<?xml version="1.0" encoding="UTF-8" standalone="no"?>
<!DOCTYPE svg PUBLIC "-//W3C//DTD SVG 1.1//EN" "http://www.w3.org/Graphics/SVG/1.1/DTD/svg11.dtd">
<svg width="100%" height="100%" viewBox="0 0 669 502" version="1.1" xmlns="http://www.w3.org/2000/svg" xmlns:xlink="http://www.w3.org/1999/xlink" xml:space="preserve" xmlns:serif="http://www.serif.com/" style="fill-rule:evenodd;clip-rule:evenodd;stroke-linejoin:round;stroke-miterlimit:2;">
    <g transform="matrix(1,0,0,1,-24.718481,6.199063)">
        <g transform="matrix(1,0,0,1,-196.781609,11.625898)">
            <path d="M222.938,-9.702L222,-9.702L222,-11.405L245.906,-11.405C249.75,-11.405 253.008,-10.378 255.68,-8.324C258.352,-6.269 260.43,-3.661 261.914,-0.498C263.399,2.665 264.461,6.003 265.102,9.517C265.742,13.031 266.063,16.491 266.063,19.897C266.063,24.222 265.539,28.371 264.492,32.345C263.445,36.319 261.836,39.738 259.664,42.603C257.492,45.469 254.781,47.415 251.531,48.442L251.531,48.766C255.656,52.226 259.469,59.092 262.969,69.364L269.203,87.61C272.016,95.774 274.274,100.937 275.977,103.099C277.68,105.262 279.359,106.478 281.016,106.748L281.016,108.046L268.453,108.046C267.922,106.857 267.422,105.708 266.953,104.599C266.484,103.491 265.984,102.315 265.453,101.072C265.141,100.261 264.68,99.031 264.07,97.382C263.461,95.733 263.094,94.801 262.969,94.584L254.719,70.986C253.063,66.175 251.367,62.269 249.633,59.268C247.899,56.268 246.281,54.119 244.781,52.821C243.281,51.524 241.93,50.713 240.727,50.388C239.524,50.064 238.109,49.902 236.484,49.902L236.484,93.611C236.484,102.099 238.984,106.478 243.984,106.748L243.984,108.046L222,108.046L222,106.748C223.375,106.64 224.594,106.194 225.656,105.41C226.719,104.627 227.602,103.275 228.305,101.356C229.008,99.437 229.359,96.855 229.359,93.611L229.359,3.273C229.359,-1.485 228.688,-4.837 227.344,-6.783C226,-8.729 224.531,-9.702 222.938,-9.702ZM236.484,46.739L240.422,46.739C244.547,46.739 247.93,45.712 250.57,43.658C253.211,41.603 255.125,38.67 256.313,34.859C257.5,31.047 258.094,26.385 258.094,20.87C258.094,16.275 257.563,11.774 256.5,7.368C255.438,2.962 253.633,-0.741 251.086,-3.742C248.539,-6.742 245.109,-8.242 240.797,-8.242C239.047,-8.242 237.609,-7.999 236.484,-7.513L236.484,46.739Z" style="fill-opacity:0;fill-rule:nonzero;stroke:rgb(255,255,0);stroke-width:1px;"/>
            <path d="M285.047,-10.027L285.047,-11.405L326.203,-11.405L326.203,7.409L325.547,7.409C325.547,-2.647 321.672,-7.675 313.922,-7.675L299.531,-7.675L299.531,46.577L312.188,46.577C314.688,46.577 316.922,45.874 318.891,44.468C320.859,43.063 321.984,39.846 322.266,34.818L322.969,34.818L322.969,61.904L322.266,61.904C321.984,58.822 321.453,56.457 320.672,54.808C319.891,53.159 319.117,52.064 318.352,51.524C317.586,50.983 316.906,50.713 316.313,50.713C315.188,50.388 314.016,50.226 312.797,50.226L299.531,50.226L299.531,92.638C299.531,95.828 299.883,98.585 300.586,100.91C301.289,103.234 302.922,104.397 305.484,104.397L315.75,104.397C318.219,104.397 320.25,103.775 321.844,102.532C323.438,101.288 324.695,99.558 325.617,97.342C326.539,95.125 327.313,92.449 327.938,89.313L328.594,89.313L326.203,108.046L285.047,108.046L285.047,106.748L285.984,106.748C287.453,106.748 288.891,105.721 290.297,103.667C291.703,101.613 292.406,98.261 292.406,93.611L292.406,3.597C292.406,-0.079 291.93,-3.269 290.977,-5.972C290.024,-8.675 288.359,-10.027 285.984,-10.027L285.047,-10.027Z" style="fill-opacity:0;fill-rule:nonzero;stroke:rgb(255,255,0);stroke-width:1px;"/>
            <path d="M369.563,11.544L368.813,11.544C368.375,5.76 366.914,0.691 364.43,-3.661C361.945,-8.013 358.672,-10.189 354.609,-10.189C351.953,-10.189 349.594,-9.107 347.531,-6.945C345.469,-4.782 343.875,-1.836 342.75,1.894C341.625,5.625 341.063,9.896 341.063,14.707C341.063,18.437 341.399,21.749 342.07,24.641C342.742,27.533 343.734,30.088 345.047,32.304C346.359,34.521 347.906,36.589 349.688,38.508C351.469,40.427 353.875,42.847 356.906,45.766C361.969,50.578 365.906,55.376 368.719,60.16C371.531,64.945 372.938,71.5 372.938,79.825C372.938,84.907 372.18,89.813 370.664,94.544C369.149,99.274 366.859,103.153 363.797,106.181C360.734,109.208 356.938,110.722 352.406,110.722C349.563,110.722 347.047,110.195 344.859,109.141C342.672,108.087 340.453,106.613 338.203,104.721C337.266,104.181 336.625,103.91 336.281,103.91C335.625,103.91 335.195,104.316 334.992,105.127C334.789,105.938 334.516,107.695 334.172,110.398L333.375,110.398L333.375,80.474L334.172,80.474C335.297,89.232 337.484,95.855 340.734,100.342C343.984,104.829 347.938,107.073 352.594,107.073C356.094,107.073 358.899,105.938 361.008,103.667C363.117,101.396 364.578,98.639 365.391,95.395C366.203,92.152 366.609,88.908 366.609,85.664C366.609,78.96 365.43,73.487 363.07,69.243C360.711,64.999 357.125,60.66 352.313,56.227C349,53.091 346.547,50.659 344.953,48.929C343.359,47.199 341.742,44.955 340.102,42.198C338.461,39.441 337.156,36.183 336.188,32.426C335.219,28.669 334.734,24.357 334.734,19.492C334.734,13.869 335.594,8.49 337.313,3.354C339.031,-1.782 341.469,-5.904 344.625,-9.013C347.781,-12.121 351.359,-13.676 355.359,-13.676C358.391,-13.676 361.5,-12.784 364.688,-11C365.188,-10.567 365.859,-10.351 366.703,-10.351C367.734,-10.351 368.438,-11.567 368.813,-14L369.563,-14L369.563,11.544Z" style="fill-opacity:0;fill-rule:nonzero;stroke:rgb(255,255,0);stroke-width:1px;"/>
            <path d="M438.047,11.869L437.297,11.869C436.953,4.084 435.641,-0.958 433.359,-3.255C431.078,-5.553 428.266,-6.702 424.922,-6.702L411.188,-6.702L411.188,93.611C411.188,102.099 413.688,106.478 418.688,106.748L418.688,108.046L396.703,108.046L396.703,106.748C398.766,106.64 400.508,105.6 401.93,103.626C403.352,101.653 404.063,98.315 404.063,93.611L404.063,-6.702L390.328,-6.702C386.984,-6.702 384.18,-5.553 381.914,-3.255C379.649,-0.958 378.328,4.084 377.953,11.869L377.203,11.869L377.203,-17.325L377.953,-17.325C378.453,-15.973 378.891,-14.973 379.266,-14.324C379.641,-13.676 380.125,-13.122 380.719,-12.662C381.313,-12.203 382.008,-11.878 382.805,-11.689C383.602,-11.5 384.547,-11.405 385.641,-11.405L430.359,-11.405C433.328,-11.405 435.641,-13.378 437.297,-17.325L438.047,-17.325L438.047,11.869Z" style="fill-opacity:0;fill-rule:nonzero;stroke:rgb(255,255,0);stroke-width:1px;"/>
            <path d="M470.391,-12.865L491.063,89.476C492.156,94.774 493.188,98.612 494.156,100.991C495.125,103.37 496.055,104.87 496.945,105.492C497.836,106.113 498.969,106.532 500.344,106.748L500.344,108.046L477.797,108.046L477.797,106.748C480.109,106.748 481.891,106.37 483.141,105.613C484.391,104.856 485.016,102.802 485.016,99.45C485.016,97.612 484.719,95.152 484.125,92.071C484,91.638 483.938,91.314 483.938,91.097L477.797,59.39L453.891,59.39L448.406,88.746C447.656,92.746 447.281,95.963 447.281,98.396C447.281,101.748 447.766,103.978 448.734,105.086C449.703,106.194 451.078,106.748 452.859,106.748L452.859,108.046L436.641,108.046L436.641,106.748C438.953,106.37 440.805,104.843 442.195,102.167C443.586,99.491 444.797,95.422 445.828,89.962L465.328,-12.865L470.391,-12.865ZM454.688,55.092L476.672,55.092L465.422,-1.593L465.234,-1.593L454.688,55.092Z" style="fill-opacity:0;fill-rule:nonzero;stroke:rgb(255,255,0);stroke-width:1px;"/>
            <path d="M567.75,108.046L553.266,108.046L553.266,88.259L553.031,87.935C551.031,95.99 548.039,101.883 544.055,105.613C540.07,109.343 535.906,111.209 531.563,111.209C526.656,111.209 522.242,109.181 518.32,105.127C514.399,101.072 511.516,96.071 509.672,90.124C508.359,85.907 507.531,81.515 507.188,76.947C506.844,72.378 506.672,67.634 506.672,62.715L506.672,3.273C506.672,-0.295 506.258,-3.296 505.43,-5.729C504.602,-8.161 502.625,-9.594 499.5,-10.027L499.5,-11.405L521.203,-11.405L521.203,-10.027C518.016,-9.378 515.984,-7.783 515.109,-5.242C514.234,-2.701 513.797,0.137 513.797,3.273L513.797,61.741C513.797,73.635 514.5,82.42 515.906,88.097C517.406,94.152 519.656,98.882 522.656,102.288C525.656,105.694 529.063,107.397 532.875,107.397C534.469,107.397 536.359,106.911 538.547,105.938C540.734,104.964 542.781,103.343 544.688,101.072C550.406,94.314 553.266,83.475 553.266,68.553L553.266,3.273C553.266,-0.025 552.828,-2.944 551.953,-5.485C551.078,-8.026 549.016,-9.54 545.766,-10.027L545.766,-11.405L567.844,-11.405L567.844,-10.027C564.656,-9.756 562.609,-8.215 561.703,-5.404C560.797,-2.593 560.344,0.245 560.344,3.111L560.344,93.611C560.344,96.747 560.649,99.22 561.258,101.031C561.867,102.842 562.711,104.126 563.789,104.883C564.867,105.64 566.188,106.262 567.75,106.748L567.75,108.046Z" style="fill-opacity:0;fill-rule:nonzero;stroke:rgb(255,255,0);stroke-width:1px;"/>
            <path d="M575.297,-9.702L574.359,-9.702L574.359,-11.405L598.266,-11.405C602.109,-11.405 605.367,-10.378 608.039,-8.324C610.711,-6.269 612.789,-3.661 614.274,-0.498C615.758,2.665 616.82,6.003 617.461,9.517C618.102,13.031 618.422,16.491 618.422,19.897C618.422,24.222 617.899,28.371 616.852,32.345C615.805,36.319 614.195,39.738 612.024,42.603C609.852,45.469 607.141,47.415 603.891,48.442L603.891,48.766C608.016,52.226 611.828,59.092 615.328,69.364L621.563,87.61C624.375,95.774 626.633,100.937 628.336,103.099C630.039,105.262 631.719,106.478 633.375,106.748L633.375,108.046L620.813,108.046C620.281,106.857 619.781,105.708 619.313,104.599C618.844,103.491 618.344,102.315 617.813,101.072C617.5,100.261 617.039,99.031 616.43,97.382C615.82,95.733 615.453,94.801 615.328,94.584L607.078,70.986C605.422,66.175 603.727,62.269 601.992,59.268C600.258,56.268 598.641,54.119 597.141,52.821C595.641,51.524 594.289,50.713 593.086,50.388C591.883,50.064 590.469,49.902 588.844,49.902L588.844,93.611C588.844,102.099 591.344,106.478 596.344,106.748L596.344,108.046L574.359,108.046L574.359,106.748C575.734,106.64 576.953,106.194 578.016,105.41C579.078,104.627 579.961,103.275 580.664,101.356C581.367,99.437 581.719,96.855 581.719,93.611L581.719,3.273C581.719,-1.485 581.047,-4.837 579.703,-6.783C578.359,-8.729 576.891,-9.702 575.297,-9.702ZM588.844,46.739L592.781,46.739C596.906,46.739 600.289,45.712 602.93,43.658C605.57,41.603 607.484,38.67 608.672,34.859C609.859,31.047 610.453,26.385 610.453,20.87C610.453,16.275 609.922,11.774 608.859,7.368C607.797,2.962 605.992,-0.741 603.445,-3.742C600.899,-6.742 597.469,-8.242 593.156,-8.242C591.406,-8.242 589.969,-7.999 588.844,-7.513L588.844,46.739Z" style="fill-opacity:0;fill-rule:nonzero;stroke:rgb(255,255,0);stroke-width:1px;"/>
            <path d="M668.953,-12.865L689.625,89.476C690.719,94.774 691.75,98.612 692.719,100.991C693.688,103.37 694.617,104.87 695.508,105.492C696.399,106.113 697.531,106.532 698.906,106.748L698.906,108.046L676.359,108.046L676.359,106.748C678.672,106.748 680.453,106.37 681.703,105.613C682.953,104.856 683.578,102.802 683.578,99.45C683.578,97.612 683.281,95.152 682.688,92.071C682.563,91.638 682.5,91.314 682.5,91.097L676.359,59.39L652.453,59.39L646.969,88.746C646.219,92.746 645.844,95.963 645.844,98.396C645.844,101.748 646.328,103.978 647.297,105.086C648.266,106.194 649.641,106.748 651.422,106.748L651.422,108.046L635.203,108.046L635.203,106.748C637.516,106.37 639.367,104.843 640.758,102.167C642.149,99.491 643.359,95.422 644.391,89.962L663.891,-12.865L668.953,-12.865ZM653.25,55.092L675.234,55.092L663.984,-1.593L663.797,-1.593L653.25,55.092Z" style="fill-opacity:0;fill-rule:nonzero;stroke:rgb(255,255,0);stroke-width:1px;"/>
            <path d="M775.031,-11.405L775.031,-10.027C773.281,-9.648 771.899,-9.067 770.883,-8.283C769.867,-7.499 769.078,-5.958 768.516,-3.661C767.953,-1.363 767.672,1.948 767.672,6.273L767.672,111.046L767.203,111.046L714.188,8.706L714.188,82.177C714.188,88.286 714.328,92.827 714.609,95.801C714.891,98.774 715.297,100.91 715.828,102.207C716.984,105.018 719,106.532 721.875,106.748L721.875,108.046L704.578,108.046L704.578,106.748C706.516,106.586 708.024,105.87 709.102,104.599C710.18,103.329 710.945,101.004 711.399,97.625C711.852,94.247 712.078,89.151 712.078,82.339L712.078,4.408L709.781,-0.052C707.75,-4.053 706.125,-6.58 704.906,-7.634C703.688,-8.688 702.172,-9.486 700.359,-10.027L700.359,-11.405L713.344,-11.405L765.563,89.8L765.563,12.68C765.563,6.895 765.43,2.57 765.164,-0.295C764.899,-3.161 764.195,-5.458 763.055,-7.188C761.914,-8.918 760.125,-9.864 757.688,-10.027L757.688,-11.405L775.031,-11.405Z" style="fill-opacity:0;fill-rule:nonzero;stroke:rgb(255,255,0);stroke-width:1px;"/>
            <path d="M840.516,11.869L839.766,11.869C839.422,4.084 838.109,-0.958 835.828,-3.255C833.547,-5.553 830.734,-6.702 827.391,-6.702L813.656,-6.702L813.656,93.611C813.656,102.099 816.156,106.478 821.156,106.748L821.156,108.046L799.172,108.046L799.172,106.748C801.234,106.64 802.977,105.6 804.399,103.626C805.82,101.653 806.531,98.315 806.531,93.611L806.531,-6.702L792.797,-6.702C789.453,-6.702 786.649,-5.553 784.383,-3.255C782.117,-0.958 780.797,4.084 780.422,11.869L779.672,11.869L779.672,-17.325L780.422,-17.325C780.922,-15.973 781.359,-14.973 781.734,-14.324C782.109,-13.676 782.594,-13.122 783.188,-12.662C783.781,-12.203 784.477,-11.878 785.274,-11.689C786.07,-11.5 787.016,-11.405 788.109,-11.405L832.828,-11.405C835.797,-11.405 838.109,-13.378 839.766,-17.325L840.516,-17.325L840.516,11.869Z" style="fill-opacity:0;fill-rule:nonzero;stroke:rgb(255,255,0);stroke-width:1px;"/>
            <path d="M845.531,-10.027L845.531,-11.405L886.688,-11.405L886.688,7.409L886.031,7.409C886.031,-2.647 882.156,-7.675 874.406,-7.675L860.016,-7.675L860.016,46.577L872.672,46.577C875.172,46.577 877.406,45.874 879.375,44.468C881.344,43.063 882.469,39.846 882.75,34.818L883.453,34.818L883.453,61.904L882.75,61.904C882.469,58.822 881.938,56.457 881.156,54.808C880.375,53.159 879.602,52.064 878.836,51.524C878.07,50.983 877.391,50.713 876.797,50.713C875.672,50.388 874.5,50.226 873.281,50.226L860.016,50.226L860.016,92.638C860.016,95.828 860.367,98.585 861.07,100.91C861.774,103.234 863.406,104.397 865.969,104.397L876.234,104.397C878.703,104.397 880.734,103.775 882.328,102.532C883.922,101.288 885.18,99.558 886.102,97.342C887.024,95.125 887.797,92.449 888.422,89.313L889.078,89.313L886.688,108.046L845.531,108.046L845.531,106.748L846.469,106.748C847.938,106.748 849.375,105.721 850.781,103.667C852.188,101.613 852.891,98.261 852.891,93.611L852.891,3.597C852.891,-0.079 852.414,-3.269 851.461,-5.972C850.508,-8.675 848.844,-10.027 846.469,-10.027L845.531,-10.027Z" style="fill-opacity:0;fill-rule:nonzero;stroke:rgb(255,255,0);stroke-width:1px;"/>
            <path d="M222.281,165.973L222.281,164.595L248.859,164.595C252.578,164.595 256.008,165.149 259.149,166.257C262.289,167.366 265.102,168.839 267.586,170.677C270.07,172.515 272.219,174.529 274.031,176.718C275.844,178.908 277.375,181.138 278.625,183.409C280.813,187.193 282.672,191.396 284.203,196.019C285.734,200.641 286.883,205.52 287.649,210.656C288.414,215.792 288.797,221.09 288.797,226.551C288.797,232.011 288.422,237.201 287.672,242.121C286.922,247.04 285.844,251.595 284.438,255.785C283.031,259.975 281.352,263.773 279.399,267.178C277.445,270.584 275.172,273.666 272.578,276.423C270.359,278.694 267.813,280.532 264.938,281.938C262.063,283.343 258.172,284.046 253.266,284.046L222.281,284.046L222.281,282.748L223.219,282.748C225.375,282.748 226.984,281.343 228.047,278.532C229.109,275.72 229.641,272.747 229.641,269.611L229.641,179.435C229.641,176.408 229.352,173.867 228.774,171.812C228.195,169.758 227.422,168.271 226.453,167.352C225.484,166.433 224.406,165.973 223.219,165.973L222.281,165.973ZM236.766,170.271L236.766,264.908C236.766,269.557 237.195,272.977 238.055,275.166C238.914,277.356 240.25,278.775 242.063,279.424C243.875,280.072 246.531,280.397 250.031,280.397C255.031,280.397 259.25,279.545 262.688,277.842C266.125,276.139 269.453,272.341 272.672,266.449C275.047,262.07 276.953,256.717 278.391,250.392C279.828,244.067 280.547,236.417 280.547,227.443C280.547,220.36 279.969,213.346 278.813,206.399C277.656,199.452 275.891,193.275 273.516,187.869C270.859,181.76 267.445,176.975 263.274,173.515C259.102,170.055 254.078,168.325 248.203,168.325C245.172,168.325 241.359,168.974 236.766,170.271Z" style="fill-opacity:0;fill-rule:nonzero;stroke:rgb(255,255,0);stroke-width:1px;"/>
            <path d="M371.625,224.442C371.625,235.633 370.024,246.04 366.82,255.663C363.617,265.286 359.25,272.95 353.719,278.653C348.188,284.357 342.063,287.209 335.344,287.209C328.594,287.209 322.406,284.357 316.781,278.653C311.156,272.95 306.727,265.259 303.492,255.582C300.258,245.905 298.641,235.363 298.641,223.956C298.641,215.197 299.602,206.966 301.524,199.262C303.445,191.559 306.133,184.841 309.586,179.111C313.039,173.38 316.977,168.947 321.399,165.811C325.82,162.676 330.438,161.108 335.25,161.108C339.969,161.108 344.5,162.608 348.844,165.609C353.188,168.609 357.086,172.948 360.539,178.624C363.992,184.301 366.703,191.031 368.672,198.816C370.641,206.601 371.625,215.143 371.625,224.442ZM363.375,224.766C363.375,208.872 361.75,196.438 358.5,187.463C355.25,178.489 351.5,172.474 347.25,169.42C343,166.365 339,164.838 335.25,164.838C332.344,164.838 329.328,165.663 326.203,167.312C323.078,168.96 320.039,171.974 317.086,176.353C314.133,180.733 311.703,186.896 309.797,194.843C307.891,202.79 306.938,212.602 306.938,224.28C306.938,234.552 307.727,243.513 309.305,251.162C310.883,258.812 313.055,265.057 315.82,269.895C318.586,274.734 321.633,278.221 324.961,280.356C328.289,282.492 331.75,283.559 335.344,283.559C338.563,283.559 341.82,282.573 345.117,280.599C348.414,278.626 351.43,275.409 354.164,270.949C356.899,266.489 359.117,260.434 360.82,252.784C362.524,245.134 363.375,235.795 363.375,224.766Z" style="fill-opacity:0;fill-rule:nonzero;stroke:rgb(255,255,0);stroke-width:1px;"/>
            <path d="M451.688,164.595L451.688,165.973C449.938,166.352 448.555,166.933 447.539,167.717C446.524,168.501 445.734,170.042 445.172,172.339C444.609,174.637 444.328,177.948 444.328,182.273L444.328,287.046L443.859,287.046L390.844,184.706L390.844,258.177C390.844,264.286 390.984,268.827 391.266,271.801C391.547,274.774 391.953,276.91 392.484,278.207C393.641,281.018 395.656,282.532 398.531,282.748L398.531,284.046L381.234,284.046L381.234,282.748C383.172,282.586 384.68,281.87 385.758,280.599C386.836,279.329 387.602,277.004 388.055,273.625C388.508,270.247 388.734,265.151 388.734,258.339L388.734,180.408L386.438,175.948C384.406,171.947 382.781,169.42 381.563,168.366C380.344,167.312 378.828,166.514 377.016,165.973L377.016,164.595L390,164.595L442.219,265.8L442.219,188.68C442.219,182.895 442.086,178.57 441.82,175.705C441.555,172.839 440.852,170.542 439.711,168.812C438.57,167.082 436.781,166.136 434.344,165.973L434.344,164.595L451.688,164.595Z" style="fill-opacity:0;fill-rule:nonzero;stroke:rgb(255,255,0);stroke-width:1px;"/>
            <path d="M299.344,461.506L300.422,462.722C297.422,468.669 294.484,473.508 291.609,477.238C288.734,480.968 285.563,482.833 282.094,482.833C281,482.833 279.906,482.671 278.813,482.347C277.719,482.022 276.336,481.374 274.664,480.401C272.992,479.427 271.047,478.022 268.828,476.184C264.984,473.048 259.703,468.507 252.984,462.56C252.922,462.452 252.547,462.1 251.859,461.506C249.203,460.1 247.274,459.005 246.07,458.221C244.867,457.437 243.297,456.086 241.359,454.167C239.422,452.247 237.477,449.72 235.524,446.584C233.57,443.449 231.75,439.746 230.063,435.475C228.75,432.177 227.609,428.541 226.641,424.567C225.672,420.594 224.938,416.485 224.438,412.241C223.938,407.997 223.688,403.902 223.688,399.956C223.688,388.116 225.391,377.371 228.797,367.721C232.203,358.071 236.711,350.556 242.32,345.177C247.93,339.797 253.953,337.108 260.391,337.108C265.328,337.108 270.024,338.73 274.477,341.973C278.93,345.217 282.82,349.745 286.149,355.557C289.477,361.368 292.063,368.099 293.906,375.749C295.75,383.399 296.672,391.522 296.672,400.118C296.672,408.551 295.695,416.796 293.742,424.851C291.789,432.907 288.953,439.989 285.234,446.098C283.547,448.855 282,451.072 280.594,452.748C279.188,454.423 277.82,455.802 276.492,456.883C275.164,457.965 273.781,458.897 272.344,459.681C270.906,460.465 269.516,461.127 268.172,461.668L268.172,462.073C268.359,462.073 269.031,462.614 270.188,463.695C274.344,467.804 277.375,470.304 279.281,471.196C281.188,472.088 283.266,472.534 285.516,472.534C288.297,472.534 290.555,471.778 292.289,470.264C294.024,468.75 296.188,466.074 298.781,462.236C298.844,462.236 298.945,462.114 299.086,461.871C299.227,461.627 299.313,461.506 299.344,461.506ZM288.422,400.929C288.422,389.035 287.484,379.101 285.609,371.127C283.734,363.152 281.352,356.976 278.461,352.597C275.57,348.218 272.563,345.163 269.438,343.433C266.313,341.703 263.266,340.838 260.297,340.838C257.234,340.838 254.117,341.73 250.945,343.514C247.774,345.298 244.727,348.434 241.805,352.921C238.883,357.408 236.516,363.531 234.703,371.289C232.891,379.047 231.984,388.494 231.984,399.631C231.984,410.498 232.813,419.864 234.469,427.73C236.125,435.596 238.391,441.935 241.266,446.747C243.078,449.72 245.047,452.153 247.172,454.045C249.297,455.937 251.508,457.302 253.805,458.14C256.102,458.978 258.359,459.397 260.578,459.397C264.547,459.397 268.258,458.127 271.711,455.586C275.164,453.045 278.078,449.396 280.453,444.638C285.766,433.934 288.422,419.364 288.422,400.929Z" style="fill-opacity:0;fill-rule:nonzero;stroke:rgb(255,255,0);stroke-width:1px;"/>
            <path d="M372.141,460.046L357.656,460.046L357.656,440.259L357.422,439.935C355.422,447.99 352.43,453.883 348.445,457.613C344.461,461.343 340.297,463.209 335.953,463.209C331.047,463.209 326.633,461.181 322.711,457.127C318.789,453.072 315.906,448.071 314.063,442.124C312.75,437.907 311.922,433.515 311.578,428.947C311.234,424.378 311.063,419.634 311.063,414.715L311.063,355.273C311.063,351.705 310.649,348.704 309.82,346.271C308.992,343.839 307.016,342.406 303.891,341.973L303.891,340.595L325.594,340.595L325.594,341.973C322.406,342.622 320.375,344.217 319.5,346.758C318.625,349.299 318.188,352.137 318.188,355.273L318.188,413.741C318.188,425.635 318.891,434.42 320.297,440.097C321.797,446.152 324.047,450.882 327.047,454.288C330.047,457.694 333.453,459.397 337.266,459.397C338.859,459.397 340.75,458.911 342.938,457.938C345.125,456.964 347.172,455.343 349.078,453.072C354.797,446.314 357.656,435.475 357.656,420.553L357.656,355.273C357.656,351.975 357.219,349.056 356.344,346.515C355.469,343.974 353.406,342.46 350.156,341.973L350.156,340.595L372.234,340.595L372.234,341.973C369.047,342.244 367,343.785 366.094,346.596C365.188,349.407 364.734,352.245 364.734,355.111L364.734,445.611C364.734,448.747 365.039,451.22 365.649,453.031C366.258,454.842 367.102,456.126 368.18,456.883C369.258,457.64 370.578,458.262 372.141,458.748L372.141,460.046Z" style="fill-opacity:0;fill-rule:nonzero;stroke:rgb(255,255,0);stroke-width:1px;"/>
            <path d="M391.5,450.071L391.5,355.273C391.5,346.677 389.031,342.244 384.094,341.973L384.094,340.595L405.891,340.595L405.891,341.973C403.828,342.082 402.102,343.163 400.711,345.217C399.32,347.272 398.625,350.623 398.625,355.273L398.625,453.234C398.625,458.694 398.195,463.371 397.336,467.263C396.477,471.156 395.344,474.237 393.938,476.508C392.531,478.779 391.008,480.401 389.367,481.374C387.727,482.347 386.063,482.833 384.375,482.833C382.469,482.833 380.789,482.32 379.336,481.293C377.883,480.265 376.649,479.008 375.633,477.522C374.617,476.035 373.578,474.264 372.516,472.21L372.984,471.318C375.578,474.994 378.453,476.832 381.609,476.832C385.891,476.832 388.609,474.264 389.766,469.128C390.922,463.993 391.5,457.64 391.5,450.071Z" style="fill-opacity:0;fill-rule:nonzero;stroke:rgb(255,255,0);stroke-width:1px;"/>
            <path d="M434.906,340.595L434.906,341.973C432.844,341.973 431.094,342.974 429.656,344.974C428.219,346.974 427.5,350.299 427.5,354.948L427.5,445.611C427.5,450.207 428.266,453.545 429.797,455.626C431.328,457.708 433.031,458.748 434.906,458.748L434.906,460.046L413.016,460.046L413.016,458.748C415.016,458.748 416.742,457.735 418.195,455.707C419.649,453.68 420.375,450.315 420.375,445.611L420.375,354.948C420.375,349.975 419.649,346.569 418.195,344.731C416.742,342.893 415.016,341.973 413.016,341.973L413.016,340.595L434.906,340.595Z" style="fill-opacity:0;fill-rule:nonzero;stroke:rgb(255,255,0);stroke-width:1px;"/>
            <path d="M516.375,400.442C516.375,411.633 514.774,422.04 511.57,431.663C508.367,441.286 504,448.95 498.469,454.653C492.938,460.357 486.813,463.209 480.094,463.209C473.344,463.209 467.156,460.357 461.531,454.653C455.906,448.95 451.477,441.259 448.242,431.582C445.008,421.905 443.391,411.363 443.391,399.956C443.391,391.197 444.352,382.966 446.274,375.262C448.195,367.559 450.883,360.841 454.336,355.111C457.789,349.38 461.727,344.947 466.149,341.811C470.57,338.676 475.188,337.108 480,337.108C484.719,337.108 489.25,338.608 493.594,341.609C497.938,344.609 501.836,348.948 505.289,354.624C508.742,360.301 511.453,367.031 513.422,374.816C515.391,382.601 516.375,391.143 516.375,400.442ZM508.125,400.766C508.125,384.872 506.5,372.438 503.25,363.463C500,354.489 496.25,348.474 492,345.42C487.75,342.365 483.75,340.838 480,340.838C477.094,340.838 474.078,341.663 470.953,343.312C467.828,344.96 464.789,347.974 461.836,352.353C458.883,356.733 456.453,362.896 454.547,370.843C452.641,378.79 451.688,388.602 451.688,400.28C451.688,410.552 452.477,419.513 454.055,427.162C455.633,434.812 457.805,441.057 460.57,445.895C463.336,450.734 466.383,454.221 469.711,456.356C473.039,458.492 476.5,459.559 480.094,459.559C483.313,459.559 486.57,458.573 489.867,456.599C493.164,454.626 496.18,451.409 498.914,446.949C501.649,442.489 503.867,436.434 505.57,428.784C507.274,421.134 508.125,411.795 508.125,400.766Z" style="fill-opacity:0;fill-rule:nonzero;stroke:rgb(255,255,0);stroke-width:1px;"/>
            <path d="M581.484,363.869L580.734,363.869C580.391,356.084 579.078,351.042 576.797,348.745C574.516,346.447 571.703,345.298 568.359,345.298L554.625,345.298L554.625,445.611C554.625,454.099 557.125,458.478 562.125,458.748L562.125,460.046L540.141,460.046L540.141,458.748C542.203,458.64 543.945,457.6 545.367,455.626C546.789,453.653 547.5,450.315 547.5,445.611L547.5,345.298L533.766,345.298C530.422,345.298 527.617,346.447 525.352,348.745C523.086,351.042 521.766,356.084 521.391,363.869L520.641,363.869L520.641,334.675L521.391,334.675C521.891,336.027 522.328,337.027 522.703,337.676C523.078,338.324 523.563,338.878 524.156,339.338C524.75,339.797 525.445,340.122 526.242,340.311C527.039,340.5 527.984,340.595 529.078,340.595L573.797,340.595C576.766,340.595 579.078,338.622 580.734,334.675L581.484,334.675L581.484,363.869Z" style="fill-opacity:0;fill-rule:nonzero;stroke:rgb(255,255,0);stroke-width:1px;"/>
            <path d="M586.5,341.973L586.5,340.595L627.656,340.595L627.656,359.409L627,359.409C627,349.353 623.125,344.325 615.375,344.325L600.984,344.325L600.984,398.577L613.641,398.577C616.141,398.577 618.375,397.874 620.344,396.468C622.313,395.063 623.438,391.846 623.719,386.818L624.422,386.818L624.422,413.904L623.719,413.904C623.438,410.822 622.906,408.457 622.125,406.808C621.344,405.159 620.57,404.064 619.805,403.524C619.039,402.983 618.359,402.713 617.766,402.713C616.641,402.388 615.469,402.226 614.25,402.226L600.984,402.226L600.984,444.638C600.984,447.828 601.336,450.585 602.039,452.91C602.742,455.234 604.375,456.397 606.938,456.397L617.203,456.397C619.672,456.397 621.703,455.775 623.297,454.532C624.891,453.288 626.149,451.558 627.07,449.342C627.992,447.125 628.766,444.449 629.391,441.313L630.047,441.313L627.656,460.046L586.5,460.046L586.5,458.748L587.438,458.748C588.906,458.748 590.344,457.721 591.75,455.667C593.156,453.613 593.859,450.261 593.859,445.611L593.859,355.597C593.859,351.921 593.383,348.731 592.43,346.028C591.477,343.325 589.813,341.973 587.438,341.973L586.5,341.973Z" style="fill-opacity:0;fill-rule:nonzero;stroke:rgb(255,255,0);stroke-width:1px;"/>
        </g>
    </g>
</svg>
