<?xml version="1.0" encoding="UTF-8" standalone="no"?>
<!DOCTYPE svg PUBLIC "-//W3C//DTD SVG 1.1//EN" "http://www.w3.org/Graphics/SVG/1.1/DTD/svg11.dtd">
<svg width="100%" height="100%" viewBox="0 0 394 303" version="1.1" xmlns="http://www.w3.org/2000/svg" xmlns:xlink="http://www.w3.org/1999/xlink" xml:space="preserve" xmlns:serif="http://www.serif.com/" style="fill-rule:evenodd;clip-rule:evenodd;stroke-linejoin:round;stroke-miterlimit:2;">
    <style>
        path {
            stroke-dasharray: 10000;
            stroke-dashoffset: 10000;
            animation: draw 15s ease-in-out forwards;
        }
        @keyframes draw {
            to { stroke-dashoffset: 0; }
        }
    </style>
    <g transform="matrix(1,0,0,1,-72.751886,-44.562289)">
        <g>
            <path d="M85.768,105.035C86.549,104.973 87.268,104.848 87.924,104.66C88.424,104.629 89.393,104.441 90.83,104.098C92.58,103.91 93.939,103.473 94.908,102.785C95.252,102.566 95.463,102.363 95.541,102.176C95.619,101.988 96.033,98.207 96.783,90.832L98.471,72.881C99.439,64.851 99.955,59.648 100.018,57.274C100.049,56.493 100.189,55.508 100.439,54.321L100.721,50.15C100.721,49.68 100.533,49.257 100.158,48.881C99.627,48.38 99.002,48.02 98.283,47.801C94.814,47.551 92.736,47.363 92.049,47.238C91.83,46.832 91.721,46.535 91.721,46.348C91.721,46.16 91.814,45.894 92.002,45.551C92.377,45.426 92.736,45.363 93.08,45.363C95.143,45.363 97.283,45.394 99.502,45.457C101.721,45.519 103.064,45.551 103.533,45.551L117.643,45.129L119.564,45.082C122.283,44.988 124.588,45.231 126.478,45.809C128.369,46.387 130.049,47.364 131.518,48.74C132.986,50.115 134.002,51.655 134.564,53.359C135.127,55.063 135.408,56.462 135.408,57.557C135.408,60.651 134.268,63.582 131.986,66.349C129.705,69.116 125.955,71.86 120.736,74.579C121.549,75.953 125.424,82.012 132.361,92.754C133.018,93.785 134.041,95.441 135.432,97.723C136.822,100.004 138.127,101.59 139.346,102.48C140.564,103.371 142.111,103.926 143.986,104.144C144.861,104.272 145.971,104.479 147.314,104.765L147.127,106.769C145.908,106.769 144.33,106.707 142.393,106.582C138.924,106.332 136.283,106.207 134.471,106.207L127.674,106.301L124.721,106.488L124.252,106.441C123.908,106.441 123.627,106.504 123.408,106.629C123.002,106.316 122.783,105.832 122.752,105.176C123.064,104.863 123.439,104.66 123.877,104.566C124.783,104.348 126.439,104.238 128.846,104.238C129.908,104.238 130.83,103.926 131.611,103.301C131.236,102.114 130.033,100.146 128.002,97.397C127.658,96.897 126.018,94.43 123.08,89.995L114.127,76.548C111.908,77.008 109.58,77.238 107.143,77.238C106.705,77.238 105.893,77.207 104.705,77.146L103.533,89.708L102.643,98.285L102.502,100.207C102.408,100.957 102.361,101.41 102.361,101.566C102.361,101.785 102.424,102.144 102.549,102.644C103.83,103.238 105.275,103.668 106.885,103.933C108.494,104.199 110.018,104.519 111.455,104.894C111.518,105.176 111.549,105.41 111.549,105.598C111.549,105.785 111.533,106.019 111.502,106.301C110.564,106.332 109.893,106.348 109.486,106.348C109.049,106.348 108.252,106.316 107.096,106.254C105.471,106.129 103.846,106.066 102.221,106.066C98.689,106.066 95.822,106.137 93.619,106.277C91.416,106.418 89.471,106.488 87.783,106.488C87.283,106.488 86.783,106.504 86.283,106.535C86.127,106.535 85.877,106.504 85.533,106.441C85.564,106.129 85.58,105.894 85.58,105.738C85.611,105.394 85.674,105.16 85.768,105.035ZM108.08,48.036L107.799,48.882C107.205,50.51 106.893,52.544 106.861,54.986C106.861,55.236 106.846,55.487 106.814,55.737L105.924,63.391C105.486,68.9 105.205,72.297 105.08,73.58L105.127,74.426C105.939,74.707 107.221,74.848 108.971,74.848C109.783,74.848 111.314,74.644 113.564,74.237C115.033,73.956 116.643,73.361 118.393,72.453C119.705,71.795 120.971,70.888 122.189,69.729C123.908,67.788 124.861,66.661 125.049,66.348C125.955,64.877 126.682,63.281 127.228,61.559C127.775,59.838 128.049,58.319 128.049,57.005C128.049,54.063 127.025,51.676 124.978,49.845C122.932,48.013 119.58,47.098 114.924,47.098C112.205,47.098 109.924,47.411 108.08,48.036Z" style="fill-opacity:0;fill-rule:nonzero;stroke:rgb(255, 252, 48);stroke-width:1px;"/>
            <path d="M153.971,89.332C152.939,92.167 152.424,95.033 152.424,97.93C152.424,100.048 152.924,101.746 153.924,103.024C154.58,103.896 155.471,104.332 156.596,104.332C157.283,104.332 157.893,104.192 158.424,103.912C159.58,103.321 160.572,102.621 161.4,101.812C162.228,101.004 163.096,99.946 164.002,98.64C164.908,97.334 165.643,95.871 166.205,94.254L166.861,94.254C167.236,94.254 167.658,94.285 168.127,94.348C167.189,97.835 164.877,101.261 161.189,104.624C158.877,106.711 156.486,107.754 154.018,107.754C152.361,107.754 150.955,107.004 149.799,105.504C148.268,103.535 147.502,100.816 147.502,97.348C147.502,95.848 147.728,94.051 148.182,91.957C148.635,89.863 149.158,88.113 149.752,86.707C150.689,84.519 151.736,82.457 152.893,80.519L156.502,75.269C158.846,72.769 160.158,71.394 160.439,71.144C161.533,70.207 162.635,69.496 163.744,69.012C164.853,68.527 166.002,68.285 167.189,68.285C168.721,68.285 170.064,68.927 171.221,70.211C172.377,71.495 172.955,73.109 172.955,75.05C172.955,76.773 172.51,78.472 171.619,80.147C170.728,81.823 169.768,83.052 168.736,83.835L164.846,86.372C164.408,86.591 163.236,86.991 161.33,87.57C159.424,88.15 156.971,88.737 153.971,89.332ZM154.768,86.941C155.768,86.973 157.33,86.582 159.455,85.769C160.611,85.332 162.143,84.473 164.049,83.191C164.799,82.691 165.658,81.84 166.627,80.637C167.596,79.433 168.33,78.183 168.83,76.887C169.33,75.59 169.58,74.254 169.58,72.879C169.58,71.973 169.314,71.223 168.783,70.629C168.252,70.035 167.658,69.738 167.002,69.738C166.158,69.738 165.158,70.223 164.002,71.191C162.064,72.879 160.033,75.707 157.908,79.676C156.314,82.707 155.268,85.129 154.768,86.941Z" style="fill-opacity:0;fill-rule:nonzero;stroke:rgb(255, 252, 48);stroke-width:1px;"/>
            <path d="M176.002,98.191C177.564,98.191 178.846,99.394 179.846,101.801C180.346,102.988 180.83,103.769 181.299,104.144C181.736,104.551 182.314,104.754 183.033,104.754C184.377,104.754 185.658,104.128 186.877,102.877C187.814,101.938 188.283,100.499 188.283,98.559C188.283,97.057 187.752,94.805 186.689,91.801C185.189,87.451 184.439,84.04 184.439,81.568C184.439,77.97 185.408,74.779 187.346,71.994C189.283,69.209 192.346,67.816 196.533,67.816C198.314,67.816 199.736,68.301 200.799,69.269C201.861,70.238 202.393,71.41 202.393,72.785C202.393,73.723 202.135,74.48 201.619,75.058C201.103,75.637 200.518,75.926 199.861,75.926C198.486,75.926 197.252,75.262 196.158,73.933C195.064,72.605 194.33,71.832 193.955,71.613C193.58,71.426 193.002,71.332 192.221,71.332C191.346,71.332 190.572,71.708 189.9,72.459C189.228,73.211 188.893,74.119 188.893,75.184C188.893,77.72 189.643,81.25 191.143,85.773C192.643,90.296 193.393,93.809 193.393,96.31C193.393,97.905 192.9,99.523 191.916,101.165C190.932,102.806 189.4,104.197 187.322,105.339C185.244,106.48 183.111,107.051 180.924,107.051C178.299,107.051 176.338,106.488 175.041,105.363C173.744,104.238 173.096,102.894 173.096,101.332C173.096,100.394 173.361,99.637 173.893,99.058C174.424,98.48 175.127,98.191 176.002,98.191Z" style="fill-opacity:0;fill-rule:nonzero;stroke:rgb(255, 252, 48);stroke-width:1px;"/>
            <path d="M215.893,72.129L213.174,72.129L211.861,72.082L208.814,72.176L208.205,72.176C208.268,71.488 208.533,70.691 209.002,69.785C213.502,69.66 216.174,69.551 217.018,69.457C217.643,67.957 218.174,66.754 218.611,65.848C219.549,63.816 220.518,61.41 221.518,58.629C221.83,57.723 222.174,56.894 222.549,56.144C223.236,56.051 224.033,56.004 224.939,56.004C225.689,56.004 226.408,56.082 227.096,56.238L227.189,56.988C227.189,57.582 225.783,61.019 222.971,67.301C222.658,68.019 222.393,68.754 222.174,69.504C223.08,69.66 223.611,69.738 223.768,69.738L224.752,69.738L226.346,69.785L230.846,69.691C230.846,70.723 230.658,71.566 230.283,72.223C229.033,72.348 227.393,72.41 225.361,72.41C224.361,72.41 223.721,72.426 223.439,72.457C221.846,72.613 220.924,72.769 220.674,72.926L212.893,91.113C212.08,92.894 210.643,96.285 208.58,101.285C208.58,101.473 208.674,101.691 208.861,101.941L209.471,102.035C210.314,102.035 211.361,101.504 212.611,100.441C215.393,98.098 218.018,95.363 220.486,92.238C221.018,92.519 221.486,92.848 221.893,93.223C218.736,97.004 216.518,99.496 215.236,100.699C213.955,101.902 212.33,103.152 210.361,104.449C208.393,105.746 207.205,106.473 206.799,106.629C206.08,106.91 205.346,107.051 204.596,107.051C203.814,107.051 203.236,106.887 202.861,106.558C202.486,106.23 202.299,105.754 202.299,105.129C202.299,104.223 203.064,102.113 204.596,98.801L206.611,94.441L213.689,77.801C214.596,75.644 215.33,73.754 215.893,72.129Z" style="fill-opacity:0;fill-rule:nonzero;stroke:rgb(255, 252, 48);stroke-width:1px;"/>
            <path d="M258.174,72.269C258.486,71.738 258.689,71.316 258.783,71.004C259.158,70.066 259.533,69.457 259.908,69.176C260.783,69.082 261.424,69.035 261.83,69.035C262.361,69.035 262.877,69.145 263.377,69.365L263.518,69.929C263.518,70.117 263.439,70.398 263.283,70.773C263.189,70.961 262.986,71.554 262.674,72.554L262.299,73.491L259.205,81.881C257.893,85.662 256.744,88.677 255.76,90.927C254.775,93.177 253.924,95.465 253.205,97.794C252.486,100.121 251.83,101.785 251.236,102.785L251.049,103.235C251.049,103.416 251.221,103.657 251.564,103.957C252.971,103.176 254.158,102.332 255.127,101.426C257.627,99.082 259.111,97.629 259.58,97.066C259.924,96.66 260.252,96.285 260.564,95.941C260.939,96.254 261.283,96.582 261.596,96.926C260.721,98.144 259.252,99.801 257.189,101.894C255.127,103.988 253.268,105.473 251.611,106.348C250.33,107.004 249.127,107.332 248.002,107.332C247.283,107.332 246.744,107.179 246.385,106.873C246.025,106.567 245.846,106.168 245.846,105.678C245.846,105.249 246.002,104.441 246.314,103.254C247.096,101.191 247.643,99.832 247.955,99.176C248.268,98.519 248.689,97.504 249.221,96.129C249.533,95.285 250.174,93.816 251.143,91.723C250.549,92.316 249.814,93.191 248.939,94.348C246.408,97.535 243.502,100.551 240.221,103.394C239.471,104.051 237.658,105.098 234.783,106.535C233.721,106.941 232.471,107.207 231.033,107.332C229.814,107.301 229.002,107.176 228.596,106.957C227.846,106.551 227.236,105.91 226.768,105.035C226.424,104.379 226.252,103.363 226.252,101.988C226.252,99.988 226.689,97.769 227.564,95.332C229.064,91.176 230.58,88.098 232.111,86.098C234.736,82.629 237.338,79.879 239.916,77.848C242.494,75.816 244.861,74.332 247.018,73.394C249.861,72.144 252.33,71.519 254.424,71.519C255.111,71.519 255.768,71.582 256.393,71.707C257.018,71.832 257.611,72.019 258.174,72.269ZM235.861,103.019C236.611,102.832 237.268,102.566 237.83,102.223C238.174,102.035 239.393,101.176 241.486,99.644C245.299,95.801 247.455,93.598 247.955,93.035C249.049,91.816 250.283,90.144 251.658,88.019C252.033,87.488 252.83,86.019 254.049,83.613L255.268,80.379C255.705,78.473 255.924,77.379 255.924,77.098C255.924,76.223 255.564,75.394 254.846,74.613C254.377,74.144 253.611,73.91 252.549,73.91C251.33,73.91 250.283,74.113 249.408,74.519C247.439,75.457 245.643,76.644 244.018,78.082C241.83,80.051 239.721,82.574 237.689,85.652C235.658,88.73 234.221,91.301 233.377,93.363C232.221,96.207 231.643,98.332 231.643,99.738C231.643,100.894 231.877,101.754 232.346,102.316C232.814,102.879 233.408,103.16 234.127,103.16C234.377,103.16 234.955,103.113 235.861,103.019Z" style="fill-opacity:0;fill-rule:nonzero;stroke:rgb(255, 252, 48);stroke-width:1px;"/>
            <path d="M280.111,71.894C279.08,72.332 277.627,73.535 275.752,75.504C274.533,76.535 273.393,77.613 272.33,78.738C271.611,79.551 271.08,80.113 270.736,80.426L269.236,80.098C269.736,79.16 271.189,77.402 273.596,74.824C276.002,72.246 278.455,70.238 280.955,68.801C282.174,68.082 283.283,67.723 284.283,67.723C284.877,67.723 285.393,67.942 285.83,68.38C286.268,68.817 286.486,69.286 286.486,69.786C286.486,70.443 286.221,71.334 285.689,72.46C285.596,72.647 285.361,73.179 284.986,74.054C283.58,77.334 280.861,82.911 276.83,90.785C273.33,97.535 271.58,101.363 271.58,102.269L271.627,102.551C272.439,102.426 273.533,101.769 274.908,100.582C279.002,97.113 282.096,94.207 284.189,91.863C284.471,91.582 285.189,90.832 286.346,89.613C289.908,85.926 292.861,82.379 295.205,78.973C296.611,76.941 298.611,73.254 301.205,67.91C302.08,67.848 302.814,67.816 303.408,67.816C304.127,67.816 304.674,68.053 305.049,68.527C304.393,70.495 303.158,73.713 301.346,78.181L292.627,99.926C292.096,101.051 291.752,102.082 291.596,103.019L291.924,103.066C292.143,103.066 292.658,102.707 293.471,101.988C295.283,100.363 296.799,98.707 298.018,97.019C298.58,96.238 299.064,95.629 299.471,95.191L300.971,95.426C299.471,98.269 296.939,101.363 293.377,104.707C291.408,106.519 289.861,107.426 288.736,107.426C288.33,107.426 287.799,107.332 287.143,107.144C286.58,106.551 286.299,105.988 286.299,105.457C286.299,103.894 286.939,101.613 288.221,98.613L294.83,83.191C295.018,82.879 295.143,82.566 295.205,82.254C294.643,82.879 293.408,84.285 291.502,86.473C287.002,91.723 283.135,95.848 279.9,98.848C276.666,101.848 273.189,104.426 269.471,106.582C268.564,107.082 267.674,107.332 266.799,107.332C266.361,107.332 265.994,107.176 265.697,106.863C265.4,106.551 265.252,106.113 265.252,105.551C265.252,105.051 265.361,104.426 265.58,103.676C266.08,102.082 266.971,100.051 268.252,97.582L276.268,81.785L279.549,74.801C280.143,73.863 280.439,73.176 280.439,72.738C280.439,72.582 280.33,72.301 280.111,71.894Z" style="fill-opacity:0;fill-rule:nonzero;stroke:rgb(255, 252, 48);stroke-width:1px;"/>
            <path d="M317.986,71.801C316.955,72.551 315.986,73.426 315.08,74.426C314.83,74.707 313.408,76.582 310.814,80.051L308.893,80.144C309.674,78.457 311.127,76.379 313.252,73.91C315.377,71.441 317.221,69.754 318.783,68.848C319.783,68.254 320.908,67.91 322.158,67.816C322.939,68.033 323.478,68.327 323.775,68.699C324.072,69.07 324.221,69.519 324.221,70.046C324.221,70.572 324.158,71.098 324.033,71.625C323.689,73.328 323.002,75.773 321.971,78.961C320.939,82.148 320.018,84.664 319.205,86.508L316.768,92.273L316.58,93.117C317.018,92.367 317.908,90.695 319.252,88.101C324.346,78.449 328.018,72.492 330.268,70.232C331.924,68.621 333.861,67.816 336.08,67.816C337.33,67.816 338.502,68.316 339.596,69.316C340.408,70.098 340.814,71.129 340.814,72.41C340.814,73.848 340.361,75.082 339.455,76.113C338.83,76.832 337.939,77.191 336.783,77.191C335.814,77.191 335.135,76.965 334.744,76.512C334.353,76.058 334.111,74.926 334.018,73.113C333.611,72.301 333.158,71.894 332.658,71.894C332.158,71.894 331.627,72.16 331.064,72.691C329.564,74.032 326.736,78.331 322.58,85.587C318.424,92.843 315.822,97.883 314.775,100.707C313.728,103.531 312.877,105.474 312.221,106.535C311.877,107.066 311.236,107.332 310.299,107.332C309.455,107.332 308.853,107.183 308.494,106.887C308.135,106.59 307.955,106.207 307.955,105.738C307.955,105.113 308.111,104.394 308.424,103.582C309.768,100.301 311.924,94.254 314.893,85.441L318.174,75.41C318.393,74.515 318.549,73.945 318.643,73.698L318.924,73.004C318.924,72.695 318.611,72.294 317.986,71.801Z" style="fill-opacity:0;fill-rule:nonzero;stroke:rgb(255, 252, 48);stroke-width:1px;"/>
            <path d="M367.205,72.269C367.518,71.738 367.721,71.316 367.814,71.004C368.189,70.066 368.564,69.457 368.939,69.176C369.814,69.082 370.455,69.035 370.861,69.035C371.393,69.035 371.908,69.145 372.408,69.365L372.549,69.929C372.549,70.117 372.471,70.398 372.314,70.773C372.221,70.961 372.018,71.554 371.705,72.554L371.33,73.491L368.236,81.881C366.924,85.662 365.775,88.677 364.791,90.927C363.807,93.177 362.955,95.465 362.236,97.794C361.518,100.121 360.861,101.785 360.268,102.785L360.08,103.235C360.08,103.416 360.252,103.657 360.596,103.957C362.002,103.176 363.189,102.332 364.158,101.426C366.658,99.082 368.143,97.629 368.611,97.066C368.955,96.66 369.283,96.285 369.596,95.941C369.971,96.254 370.314,96.582 370.627,96.926C369.752,98.144 368.283,99.801 366.221,101.894C364.158,103.988 362.299,105.473 360.643,106.348C359.361,107.004 358.158,107.332 357.033,107.332C356.314,107.332 355.775,107.179 355.416,106.873C355.057,106.567 354.877,106.168 354.877,105.678C354.877,105.249 355.033,104.441 355.346,103.254C356.127,101.191 356.674,99.832 356.986,99.176C357.299,98.519 357.721,97.504 358.252,96.129C358.564,95.285 359.205,93.816 360.174,91.723C359.58,92.316 358.846,93.191 357.971,94.348C355.439,97.535 352.533,100.551 349.252,103.394C348.502,104.051 346.689,105.098 343.814,106.535C342.752,106.941 341.502,107.207 340.064,107.332C338.846,107.301 338.033,107.176 337.627,106.957C336.877,106.551 336.268,105.91 335.799,105.035C335.455,104.379 335.283,103.363 335.283,101.988C335.283,99.988 335.721,97.769 336.596,95.332C338.096,91.176 339.611,88.098 341.143,86.098C343.768,82.629 346.369,79.879 348.947,77.848C351.525,75.816 353.893,74.332 356.049,73.394C358.893,72.144 361.361,71.519 363.455,71.519C364.143,71.519 364.799,71.582 365.424,71.707C366.049,71.832 366.643,72.019 367.205,72.269ZM344.893,103.019C345.643,102.832 346.299,102.566 346.861,102.223C347.205,102.035 348.424,101.176 350.518,99.644C354.33,95.801 356.486,93.598 356.986,93.035C358.08,91.816 359.314,90.144 360.689,88.019C361.064,87.488 361.861,86.019 363.08,83.613L364.299,80.379C364.736,78.473 364.955,77.379 364.955,77.098C364.955,76.223 364.596,75.394 363.877,74.613C363.408,74.144 362.643,73.91 361.58,73.91C360.361,73.91 359.314,74.113 358.439,74.519C356.471,75.457 354.674,76.644 353.049,78.082C350.861,80.051 348.752,82.574 346.721,85.652C344.689,88.73 343.252,91.301 342.408,93.363C341.252,96.207 340.674,98.332 340.674,99.738C340.674,100.894 340.908,101.754 341.377,102.316C341.846,102.879 342.439,103.16 343.158,103.16C343.408,103.16 343.986,103.113 344.893,103.019Z" style="fill-opacity:0;fill-rule:nonzero;stroke:rgb(255, 252, 48);stroke-width:1px;"/>
            <path d="M387.596,73.723C387.533,73.473 387.447,73.301 387.338,73.207C387.228,73.113 387.096,73.066 386.939,73.066C385.314,73.066 382.783,75.629 379.346,80.754C379.002,80.785 378.752,80.801 378.596,80.801C378.408,80.801 378.096,80.785 377.658,80.754C378.314,79.441 379.385,77.785 380.869,75.785C382.353,73.785 383.932,72.121 385.603,70.793C387.275,69.465 388.861,68.473 390.361,67.816C390.861,67.598 391.314,67.488 391.721,67.488C391.877,67.488 392.111,67.504 392.424,67.535C392.986,68.096 393.268,68.672 393.268,69.264C393.268,69.639 393.228,70.015 393.15,70.39C393.072,70.765 392.908,71.343 392.658,72.124C391.721,74.812 391.033,76.703 390.596,77.798L387.924,84.737C387.299,86.331 386.689,88.019 386.096,89.801C386.346,89.488 386.564,89.191 386.752,88.91C389.658,84.66 392.791,80.59 396.15,76.699C399.51,72.808 402.283,70.207 404.471,68.894C406.033,67.926 407.518,67.441 408.924,67.441C409.986,67.441 410.814,67.731 411.408,68.309C412.002,68.888 412.299,69.631 412.299,70.538C412.299,71.101 412.236,71.648 412.111,72.18C411.893,73.368 411.408,75.024 410.658,77.148C409.908,79.273 407.939,83.881 404.752,90.974L400.064,101.801L399.877,102.41C399.877,102.598 399.986,102.879 400.205,103.254C401.955,102.879 404.58,100.098 408.08,94.91L410.002,94.957C409.033,96.707 407.439,98.957 405.221,101.707C403.502,103.801 401.658,105.426 399.689,106.582C398.596,107.238 397.424,107.566 396.174,107.566C395.424,107.566 394.861,107.41 394.486,107.098C394.111,106.785 393.924,106.441 393.924,106.066C393.924,104.41 394.721,101.848 396.314,98.379L403.111,83.519L405.736,77.285C406.33,75.91 406.689,74.957 406.814,74.426C406.939,73.894 407.002,73.363 407.002,72.832C407.002,72.426 406.893,72.105 406.674,71.871C406.455,71.637 406.174,71.519 405.83,71.519C405.33,71.519 404.752,71.723 404.096,72.129C401.783,73.504 399.236,75.863 396.455,79.207C392.455,84.019 389.799,87.473 388.486,89.566C385.205,94.754 382.346,100.051 379.908,105.457C379.533,106.332 379.08,106.973 378.549,107.379C377.893,107.473 377.393,107.519 377.049,107.519C376.643,107.519 376.018,107.441 375.174,107.285C375.049,107.035 374.986,106.832 374.986,106.676C374.986,106.426 375.143,105.863 375.455,104.988C376.143,102.957 377.83,98.676 380.518,92.144L381.596,89.613L387.596,73.723Z" style="fill-opacity:0;fill-rule:nonzero;stroke:rgb(255, 252, 48);stroke-width:1px;"/>
            <path d="M428.939,72.129L426.221,72.129L424.908,72.082L421.861,72.176L421.252,72.176C421.314,71.488 421.58,70.691 422.049,69.785C426.549,69.66 429.221,69.551 430.064,69.457C430.689,67.957 431.221,66.754 431.658,65.848C432.596,63.816 433.564,61.41 434.564,58.629C434.877,57.723 435.221,56.894 435.596,56.144C436.283,56.051 437.08,56.004 437.986,56.004C438.736,56.004 439.455,56.082 440.143,56.238L440.236,56.988C440.236,57.582 438.83,61.019 436.018,67.301C435.705,68.019 435.439,68.754 435.221,69.504C436.127,69.66 436.658,69.738 436.814,69.738L437.799,69.738L439.393,69.785L443.893,69.691C443.893,70.723 443.705,71.566 443.33,72.223C442.08,72.348 440.439,72.41 438.408,72.41C437.408,72.41 436.768,72.426 436.486,72.457C434.893,72.613 433.971,72.769 433.721,72.926L425.939,91.113C425.127,92.894 423.689,96.285 421.627,101.285C421.627,101.473 421.721,101.691 421.908,101.941L422.518,102.035C423.361,102.035 424.408,101.504 425.658,100.441C428.439,98.098 431.064,95.363 433.533,92.238C434.064,92.519 434.533,92.848 434.939,93.223C431.783,97.004 429.564,99.496 428.283,100.699C427.002,101.902 425.377,103.152 423.408,104.449C421.439,105.746 420.252,106.473 419.846,106.629C419.127,106.91 418.393,107.051 417.643,107.051C416.861,107.051 416.283,106.887 415.908,106.558C415.533,106.23 415.346,105.754 415.346,105.129C415.346,104.223 416.111,102.113 417.643,98.801L419.658,94.441L426.736,77.801C427.643,75.644 428.377,73.754 428.939,72.129Z" style="fill-opacity:0;fill-rule:nonzero;stroke:rgb(255, 252, 48);stroke-width:1px;"/>
            <path d="M446.986,89.332C445.955,92.167 445.439,95.033 445.439,97.93C445.439,100.048 445.939,101.746 446.939,103.024C447.596,103.896 448.486,104.332 449.611,104.332C450.299,104.332 450.908,104.192 451.439,103.912C452.596,103.321 453.588,102.621 454.416,101.812C455.244,101.004 456.111,99.946 457.018,98.64C457.924,97.334 458.658,95.871 459.221,94.254L459.877,94.254C460.252,94.254 460.674,94.285 461.143,94.348C460.205,97.835 457.893,101.261 454.205,104.624C451.893,106.711 449.502,107.754 447.033,107.754C445.377,107.754 443.971,107.004 442.814,105.504C441.283,103.535 440.518,100.816 440.518,97.348C440.518,95.848 440.744,94.051 441.197,91.957C441.65,89.863 442.174,88.113 442.768,86.707C443.705,84.519 444.752,82.457 445.908,80.519L449.518,75.269C451.861,72.769 453.174,71.394 453.455,71.144C454.549,70.207 455.65,69.496 456.76,69.012C457.869,68.527 459.018,68.285 460.205,68.285C461.736,68.285 463.08,68.927 464.236,70.211C465.393,71.495 465.971,73.109 465.971,75.05C465.971,76.773 465.525,78.472 464.635,80.147C463.744,81.823 462.783,83.052 461.752,83.835L457.861,86.372C457.424,86.591 456.252,86.991 454.346,87.57C452.439,88.15 449.986,88.737 446.986,89.332ZM447.783,86.941C448.783,86.973 450.346,86.582 452.471,85.769C453.627,85.332 455.158,84.473 457.064,83.191C457.814,82.691 458.674,81.84 459.643,80.637C460.611,79.433 461.346,78.183 461.846,76.887C462.346,75.59 462.596,74.254 462.596,72.879C462.596,71.973 462.33,71.223 461.799,70.629C461.268,70.035 460.674,69.738 460.018,69.738C459.174,69.738 458.174,70.223 457.018,71.191C455.08,72.879 453.049,75.707 450.924,79.676C449.33,82.707 448.283,85.129 447.783,86.941Z" style="fill-opacity:0;fill-rule:nonzero;stroke:rgb(255, 252, 48);stroke-width:1px;"/>
            <path d="M84.361,214.723L84.408,213.082C89.127,212.519 91.752,212.113 92.283,211.863C92.564,211.738 92.783,211.551 92.939,211.301C93.283,210.832 93.705,209.379 94.205,206.941L97.58,188.566L102.455,164.66C103.018,161.316 103.393,159.363 103.58,158.801C103.861,157.957 104.002,157.316 104.002,156.879C104.002,156.39 103.721,155.986 103.158,155.666C102.596,155.346 100.783,155.109 97.721,154.957C96.408,154.926 95.33,154.801 94.486,154.582L94.393,153.973C94.393,153.723 94.502,153.348 94.721,152.848C95.221,152.869 96.268,152.9 97.861,152.941C99.955,153.004 101.236,153.035 101.705,153.035C102.361,153.035 103.018,153.019 103.674,152.988C105.268,152.915 106.174,152.879 106.393,152.879C109.143,152.879 112.158,152.9 115.439,152.941L122.611,152.894L124.814,153.035L129.83,152.988C132.549,152.988 135.143,153.418 137.611,154.277C140.08,155.137 142.275,156.293 144.197,157.746C146.119,159.199 147.924,161.176 149.611,163.676C150.736,165.332 151.603,167.285 152.213,169.535C152.822,171.785 153.127,173.832 153.127,175.676C153.127,179.269 152.307,183.129 150.666,187.254C149.025,191.379 146.666,195.223 143.588,198.785C140.51,202.348 136.83,205.457 132.549,208.113C129.455,210.019 125.541,211.574 120.807,212.777C116.072,213.98 111.721,214.582 107.752,214.582L99.08,214.488L94.674,214.769C93.955,214.801 91.799,214.816 88.205,214.816C86.424,214.816 85.143,214.785 84.361,214.723ZM110.986,155.379C110.924,155.941 110.666,157.215 110.213,159.199C109.76,161.183 109.424,162.91 109.205,164.379C109.08,165.379 108.518,168.41 107.518,173.473L103.205,195.504C102.924,196.785 102.486,198.613 101.893,200.988C100.986,204.394 100.533,206.973 100.533,208.723C100.533,210.066 101.01,211.058 101.963,211.699C102.916,212.34 105.518,212.66 109.768,212.66C110.111,212.66 111.549,212.457 114.08,212.051C117.58,211.457 120.783,210.504 123.689,209.191C126.596,207.879 129.307,206.144 131.822,203.988C134.338,201.832 136.572,199.254 138.525,196.254C140.478,193.254 141.893,190.488 142.768,187.957C144.393,183.394 145.205,179.582 145.205,176.519C145.205,172.801 144.307,169.355 142.51,166.183C140.713,163.012 138.643,160.621 136.299,159.012C133.955,157.402 130.697,156.324 126.525,155.777C122.353,155.23 118.721,154.957 115.627,154.957C113.596,154.957 112.049,155.098 110.986,155.379Z" style="fill-opacity:0;fill-rule:nonzero;stroke:rgb(255, 252, 48);stroke-width:1px;"/>
            <path d="M186.689,187.582C186.689,194.832 184.494,201.269 180.103,206.894C175.713,212.519 171.158,215.332 166.439,215.332C163.908,215.332 161.861,214.387 160.299,212.496C158.736,210.605 157.955,207.644 157.955,203.613C157.955,200.894 158.564,197.762 159.783,194.215C161.002,190.668 162.58,187.723 164.518,185.379C164.955,184.848 165.455,184.207 166.018,183.457C167.674,181.301 169.643,179.488 171.924,178.019C174.205,176.551 176.533,175.816 178.908,175.816C181.096,175.816 182.939,176.73 184.439,178.558C185.939,180.387 186.689,183.394 186.689,187.582ZM162.314,208.91C162.314,210.348 162.65,211.41 163.322,212.098C163.994,212.785 165.08,213.129 166.58,213.129C168.049,213.129 169.533,212.41 171.033,210.973C173.721,208.348 176.408,203.832 179.096,197.426C181.783,191.019 183.127,185.973 183.127,182.285C183.127,180.973 182.799,179.933 182.143,179.168C181.486,178.402 180.736,178.019 179.893,178.019C178.049,178.019 176.127,179.098 174.127,181.254C170.721,184.879 167.783,189.879 165.314,196.254C163.314,201.441 162.314,205.66 162.314,208.91Z" style="fill-opacity:0;fill-rule:nonzero;stroke:rgb(255, 252, 48);stroke-width:1px;"/>
            <path d="M203.564,181.723C203.502,181.473 203.416,181.301 203.307,181.207C203.197,181.113 203.064,181.066 202.908,181.066C201.283,181.066 198.752,183.629 195.314,188.754C194.971,188.785 194.721,188.801 194.564,188.801C194.377,188.801 194.064,188.785 193.627,188.754C194.283,187.441 195.353,185.785 196.838,183.785C198.322,181.785 199.9,180.121 201.572,178.793C203.244,177.465 204.83,176.473 206.33,175.816C206.83,175.598 207.283,175.488 207.689,175.488C207.846,175.488 208.08,175.504 208.393,175.535C208.955,176.096 209.236,176.672 209.236,177.264C209.236,177.639 209.197,178.015 209.119,178.39C209.041,178.765 208.877,179.343 208.627,180.124C207.689,182.812 207.002,184.703 206.564,185.798L203.893,192.737C203.268,194.331 202.658,196.019 202.064,197.801C202.314,197.488 202.533,197.191 202.721,196.91C205.627,192.66 208.76,188.59 212.119,184.699C215.478,180.808 218.252,178.207 220.439,176.894C222.002,175.926 223.486,175.441 224.893,175.441C225.955,175.441 226.783,175.731 227.377,176.309C227.971,176.888 228.268,177.631 228.268,178.538C228.268,179.101 228.205,179.648 228.08,180.18C227.861,181.368 227.377,183.024 226.627,185.148C225.877,187.273 223.908,191.881 220.721,198.974L216.033,209.801L215.846,210.41C215.846,210.598 215.955,210.879 216.174,211.254C217.924,210.879 220.549,208.098 224.049,202.91L225.971,202.957C225.002,204.707 223.408,206.957 221.189,209.707C219.471,211.801 217.627,213.426 215.658,214.582C214.564,215.238 213.393,215.566 212.143,215.566C211.393,215.566 210.83,215.41 210.455,215.098C210.08,214.785 209.893,214.441 209.893,214.066C209.893,212.41 210.689,209.848 212.283,206.379L219.08,191.519L221.705,185.285C222.299,183.91 222.658,182.957 222.783,182.426C222.908,181.894 222.971,181.363 222.971,180.832C222.971,180.426 222.861,180.105 222.643,179.871C222.424,179.637 222.143,179.519 221.799,179.519C221.299,179.519 220.721,179.723 220.064,180.129C217.752,181.504 215.205,183.863 212.424,187.207C208.424,192.019 205.768,195.473 204.455,197.566C201.174,202.754 198.314,208.051 195.877,213.457C195.502,214.332 195.049,214.973 194.518,215.379C193.861,215.473 193.361,215.519 193.018,215.519C192.611,215.519 191.986,215.441 191.143,215.285C191.018,215.035 190.955,214.832 190.955,214.676C190.955,214.426 191.111,213.863 191.424,212.988C192.111,210.957 193.799,206.676 196.486,200.144L197.564,197.613L203.564,181.723Z" style="fill-opacity:0;fill-rule:nonzero;stroke:rgb(255, 252, 48);stroke-width:1px;"/>
            <path d="M103.861,323.473C103.361,323.285 102.721,323.051 101.939,322.769C97.939,321.363 94.775,318.879 92.447,315.316C90.119,311.754 88.955,307.473 88.955,302.473C88.955,299.004 89.393,295.941 90.268,293.285C91.643,289.066 93.861,284.738 96.924,280.301C99.986,275.863 103.111,272.379 106.299,269.848C110.549,266.535 115.096,263.973 119.939,262.16C123.158,261.004 126.564,260.426 130.158,260.426C133.596,260.426 136.338,260.933 138.385,261.949C140.432,262.965 142.268,264.551 143.893,266.707C145.518,268.863 146.893,271.644 148.018,275.051C148.611,276.863 148.908,279.379 148.908,282.598C148.908,287.223 148.205,291.394 146.799,295.113C145.018,299.926 141.939,305.082 137.564,310.582C134.158,314.863 130.01,318.144 125.119,320.426C120.228,322.707 114.939,323.848 109.252,323.848L107.236,323.848C107.08,323.848 106.689,323.879 106.064,323.941C105.627,324.441 105.236,324.91 104.893,325.348C103.33,327.254 101.627,329.129 99.783,330.973L103.955,332.371C106.705,333.304 108.877,334.128 110.471,334.843C113.002,335.931 115.018,336.708 116.518,337.174C119.455,338.013 122.236,338.666 124.861,339.132C127.486,339.599 129.861,339.832 131.986,339.832C138.08,339.832 143.049,337.957 146.893,334.207L147.877,335.196C146.408,337.016 144.861,338.507 143.236,339.669C140.768,341.426 138.197,342.721 135.525,343.553C132.853,344.385 130.643,344.801 128.893,344.801L127.439,344.754L122.096,344.613C118.689,344.144 116.439,343.738 115.346,343.394C112.283,342.488 109.213,341.324 106.135,339.902C103.057,338.48 99.611,336.769 95.799,334.769C94.111,336.488 91.705,338.285 88.58,340.16C86.393,341.441 83.986,342.144 81.361,342.269L78.596,342.41C77.127,342.285 75.869,341.707 74.822,340.676C73.775,339.644 73.252,338.566 73.252,337.441C73.252,335.504 74.377,333.723 76.627,332.098C79.564,329.941 83.721,328.863 89.096,328.863C91.346,328.863 94.221,329.379 97.721,330.41C97.846,330.16 98.26,329.738 98.963,329.144C99.666,328.551 100.541,327.644 101.588,326.426C102.635,325.207 103.393,324.223 103.861,323.473ZM125.518,263.613C124.205,264.051 122.596,264.863 120.689,266.051C119.658,266.707 117.721,268.223 114.877,270.598C113.189,272.035 112.033,273.16 111.408,273.973C109.814,275.691 107.674,278.348 104.986,281.941L99.643,290.988C98.361,293.176 97.283,295.457 96.408,297.832C95.533,300.207 94.908,302.269 94.533,304.019C94.283,305.332 94.158,306.738 94.158,308.238C94.158,310.738 94.455,312.644 95.049,313.957C96.143,316.269 97.728,318.09 99.807,319.418C101.885,320.746 104.314,321.41 107.096,321.41C109.752,321.41 112.596,320.785 115.627,319.535C118.658,318.285 122.111,315.816 125.986,312.129C129.861,308.441 133.158,304.348 135.877,299.848C139.533,293.754 141.799,289.269 142.674,286.394C143.861,282.426 144.455,279.285 144.455,276.973C144.455,274.254 143.853,271.723 142.65,269.379C141.447,267.035 139.893,265.262 137.986,264.058C136.08,262.855 133.955,262.254 131.611,262.254C131.236,262.254 130.236,262.41 128.611,262.723C127.424,262.941 126.393,263.238 125.518,263.613ZM84.268,332.238C82.736,332.238 81.158,332.519 79.533,333.082C77.908,333.644 76.783,334.332 76.158,335.144C75.533,335.957 75.221,336.738 75.221,337.488C75.221,338.332 75.643,339.09 76.486,339.762C77.33,340.433 78.689,340.769 80.564,340.769C82.439,340.769 84.33,340.285 86.236,339.316C89.018,337.941 91.002,336.676 92.189,335.519C92.533,335.207 92.783,335.004 92.939,334.91L93.549,334.207C93.424,334.113 93.143,334.019 92.705,333.926C91.799,333.707 90.986,333.473 90.268,333.223C88.268,332.566 86.268,332.238 84.268,332.238Z" style="fill-opacity:0;fill-rule:nonzero;stroke:rgb(255, 252, 48);stroke-width:1px;"/>
            <path d="M167.143,287.894C166.111,288.332 164.658,289.535 162.783,291.504C161.564,292.535 160.424,293.613 159.361,294.738C158.643,295.551 158.111,296.113 157.768,296.426L156.268,296.098C156.768,295.16 158.221,293.402 160.627,290.824C163.033,288.246 165.486,286.238 167.986,284.801C169.205,284.082 170.314,283.723 171.314,283.723C171.908,283.723 172.424,283.942 172.861,284.38C173.299,284.817 173.518,285.286 173.518,285.786C173.518,286.443 173.252,287.334 172.721,288.46C172.627,288.647 172.393,289.179 172.018,290.054C170.611,293.334 167.893,298.911 163.861,306.785C160.361,313.535 158.611,317.363 158.611,318.269L158.658,318.551C159.471,318.426 160.564,317.769 161.939,316.582C166.033,313.113 169.127,310.207 171.221,307.863C171.502,307.582 172.221,306.832 173.377,305.613C176.939,301.926 179.893,298.379 182.236,294.973C183.643,292.941 185.643,289.254 188.236,283.91C189.111,283.848 189.846,283.816 190.439,283.816C191.158,283.816 191.705,284.053 192.08,284.527C191.424,286.495 190.189,289.713 188.377,294.181L179.658,315.926C179.127,317.051 178.783,318.082 178.627,319.019L178.955,319.066C179.174,319.066 179.689,318.707 180.502,317.988C182.314,316.363 183.83,314.707 185.049,313.019C185.611,312.238 186.096,311.629 186.502,311.191L188.002,311.426C186.502,314.269 183.971,317.363 180.408,320.707C178.439,322.519 176.893,323.426 175.768,323.426C175.361,323.426 174.83,323.332 174.174,323.144C173.611,322.551 173.33,321.988 173.33,321.457C173.33,319.894 173.971,317.613 175.252,314.613L181.861,299.191C182.049,298.879 182.174,298.566 182.236,298.254C181.674,298.879 180.439,300.285 178.533,302.473C174.033,307.723 170.166,311.848 166.932,314.848C163.697,317.848 160.221,320.426 156.502,322.582C155.596,323.082 154.705,323.332 153.83,323.332C153.393,323.332 153.025,323.176 152.728,322.863C152.432,322.551 152.283,322.113 152.283,321.551C152.283,321.051 152.393,320.426 152.611,319.676C153.111,318.082 154.002,316.051 155.283,313.582L163.299,297.785L166.58,290.801C167.174,289.863 167.471,289.176 167.471,288.738C167.471,288.582 167.361,288.301 167.143,287.894Z" style="fill-opacity:0;fill-rule:nonzero;stroke:rgb(255, 252, 48);stroke-width:1px;"/>
            <path d="M216.736,264.269C217.705,264.269 218.588,264.681 219.385,265.504C220.182,266.328 220.58,267.298 220.58,268.416C220.58,269.41 220.189,270.256 219.408,270.956C218.627,271.654 217.736,272.004 216.736,272.004C215.611,272.004 214.689,271.647 213.971,270.932C213.252,270.218 212.893,269.395 212.893,268.463C212.893,267.22 213.291,266.211 214.088,265.435C214.885,264.658 215.768,264.269 216.736,264.269ZM237.408,264.363C239.752,264.363 240.924,265.528 240.924,267.857C240.924,268.726 240.596,269.588 239.939,270.442C239.283,271.296 238.346,271.723 237.127,271.723C236.096,271.723 235.228,271.412 234.525,270.791C233.822,270.17 233.471,269.347 233.471,268.323C233.471,267.266 233.83,266.343 234.549,265.551C235.268,264.759 236.221,264.363 237.408,264.363ZM194.752,339.691C195.346,339.441 195.814,339.316 196.158,339.316C197.314,339.316 198.408,340.535 199.439,342.973C199.564,343.066 199.643,343.129 199.674,343.16C200.236,343.785 200.939,344.098 201.783,344.098C203.064,344.098 204.228,343.682 205.275,342.852C206.322,342.022 207.768,339.963 209.611,336.674L210.033,336.017L215.705,323.473L221.846,308.379L224.189,302.848C225.752,299.285 226.721,296.971 227.096,295.905C223.221,301.151 220.393,304.691 218.611,306.522L215.283,310.526C212.971,313.413 210.135,316.27 206.775,319.095C203.416,321.92 200.611,323.332 198.361,323.332C197.705,323.332 197.041,323.074 196.369,322.558C195.697,322.043 195.361,321.41 195.361,320.66C195.361,318.691 198.268,312.285 204.08,301.441C208.236,293.66 210.361,289.254 210.455,288.223C210.299,287.848 210.08,287.66 209.799,287.66C209.08,287.66 207.893,288.238 206.236,289.394C204.58,290.551 203.143,291.801 201.924,293.144C201.393,293.738 200.674,294.082 199.768,294.176L198.83,294.316C201.611,290.816 204.416,288.191 207.244,286.441C210.072,284.691 212.189,283.816 213.596,283.816C215.064,283.816 215.799,284.661 215.799,286.35C215.799,288.383 212.205,296.226 205.018,309.88L202.58,314.613C202.111,315.613 201.721,316.394 201.408,316.957C200.971,317.644 200.752,318.16 200.752,318.504C200.752,318.66 200.861,318.941 201.08,319.348C202.111,319.348 203.744,318.575 205.978,317.031C208.213,315.486 210.908,312.841 214.064,309.097L217.908,304.603C219.189,303.23 220.533,301.591 221.939,299.688L225.268,295.381C227.268,292.916 228.877,290.045 230.096,286.769C230.658,285.248 231.127,284.298 231.502,283.918C231.877,283.538 232.439,283.348 233.189,283.348C234.471,283.348 235.314,283.457 235.721,283.676C235.752,283.863 235.768,284.003 235.768,284.097C235.768,285.128 235.033,287.698 233.564,291.808C232.096,295.917 229.971,301.034 227.189,307.159L223.064,318.176L217.346,331.135C215.471,335.423 213.76,338.506 212.213,340.384C210.666,342.263 208.877,343.703 206.846,344.704C204.814,345.706 202.736,346.207 200.611,346.207C198.174,346.207 196.346,345.769 195.127,344.894C193.908,344.019 193.299,343.019 193.299,341.894C193.299,341.176 193.783,340.441 194.752,339.691Z" style="fill-opacity:0;fill-rule:nonzero;stroke:rgb(255, 252, 48);stroke-width:1px;"/>
            <path d="M267.736,295.582C267.736,302.832 265.541,309.269 261.15,314.894C256.76,320.519 252.205,323.332 247.486,323.332C244.955,323.332 242.908,322.387 241.346,320.496C239.783,318.605 239.002,315.644 239.002,311.613C239.002,308.894 239.611,305.762 240.83,302.215C242.049,298.668 243.627,295.723 245.564,293.379C246.002,292.848 246.502,292.207 247.064,291.457C248.721,289.301 250.689,287.488 252.971,286.019C255.252,284.551 257.58,283.816 259.955,283.816C262.143,283.816 263.986,284.73 265.486,286.558C266.986,288.387 267.736,291.394 267.736,295.582ZM243.361,316.91C243.361,318.348 243.697,319.41 244.369,320.098C245.041,320.785 246.127,321.129 247.627,321.129C249.096,321.129 250.58,320.41 252.08,318.973C254.768,316.348 257.455,311.832 260.143,305.426C262.83,299.019 264.174,293.973 264.174,290.285C264.174,288.973 263.846,287.933 263.189,287.168C262.533,286.402 261.783,286.019 260.939,286.019C259.096,286.019 257.174,287.098 255.174,289.254C251.768,292.879 248.83,297.879 246.361,304.254C244.361,309.441 243.361,313.66 243.361,316.91Z" style="fill-opacity:0;fill-rule:nonzero;stroke:rgb(255, 252, 48);stroke-width:1px;"/>
            <path d="M284.939,288.129L282.221,288.129L280.908,288.082L277.861,288.176L277.252,288.176C277.314,287.488 277.58,286.691 278.049,285.785C282.549,285.66 285.221,285.551 286.064,285.457C286.689,283.957 287.221,282.754 287.658,281.848C288.596,279.816 289.564,277.41 290.564,274.629C290.877,273.723 291.221,272.894 291.596,272.144C292.283,272.051 293.08,272.004 293.986,272.004C294.736,272.004 295.455,272.082 296.143,272.238L296.236,272.988C296.236,273.582 294.83,277.019 292.018,283.301C291.705,284.019 291.439,284.754 291.221,285.504C292.127,285.66 292.658,285.738 292.814,285.738L293.799,285.738L295.393,285.785L299.893,285.691C299.893,286.723 299.705,287.566 299.33,288.223C298.08,288.348 296.439,288.41 294.408,288.41C293.408,288.41 292.768,288.426 292.486,288.457C290.893,288.613 289.971,288.769 289.721,288.926L281.939,307.113C281.127,308.894 279.689,312.285 277.627,317.285C277.627,317.473 277.721,317.691 277.908,317.941L278.518,318.035C279.361,318.035 280.408,317.504 281.658,316.441C284.439,314.098 287.064,311.363 289.533,308.238C290.064,308.519 290.533,308.848 290.939,309.223C287.783,313.004 285.564,315.496 284.283,316.699C283.002,317.902 281.377,319.152 279.408,320.449C277.439,321.746 276.252,322.473 275.846,322.629C275.127,322.91 274.393,323.051 273.643,323.051C272.861,323.051 272.283,322.887 271.908,322.558C271.533,322.23 271.346,321.754 271.346,321.129C271.346,320.223 272.111,318.113 273.643,314.801L275.658,310.441L282.736,293.801C283.643,291.644 284.377,289.754 284.939,288.129Z" style="fill-opacity:0;fill-rule:nonzero;stroke:rgb(255, 252, 48);stroke-width:1px;"/>
            <path d="M302.986,305.332C301.955,308.167 301.439,311.033 301.439,313.93C301.439,316.048 301.939,317.746 302.939,319.024C303.596,319.896 304.486,320.332 305.611,320.332C306.299,320.332 306.908,320.192 307.439,319.912C308.596,319.321 309.588,318.621 310.416,317.812C311.244,317.004 312.111,315.946 313.018,314.64C313.924,313.334 314.658,311.871 315.221,310.254L315.877,310.254C316.252,310.254 316.674,310.285 317.143,310.348C316.205,313.835 313.893,317.261 310.205,320.624C307.893,322.711 305.502,323.754 303.033,323.754C301.377,323.754 299.971,323.004 298.814,321.504C297.283,319.535 296.518,316.816 296.518,313.348C296.518,311.848 296.744,310.051 297.197,307.957C297.65,305.863 298.174,304.113 298.768,302.707C299.705,300.519 300.752,298.457 301.908,296.519L305.518,291.269C307.861,288.769 309.174,287.394 309.455,287.144C310.549,286.207 311.65,285.496 312.76,285.012C313.869,284.527 315.018,284.285 316.205,284.285C317.736,284.285 319.08,284.927 320.236,286.211C321.393,287.495 321.971,289.109 321.971,291.05C321.971,292.773 321.525,294.472 320.635,296.147C319.744,297.823 318.783,299.052 317.752,299.835L313.861,302.372C313.424,302.591 312.252,302.991 310.346,303.57C308.439,304.15 305.986,304.737 302.986,305.332ZM303.783,302.941C304.783,302.973 306.346,302.582 308.471,301.769C309.627,301.332 311.158,300.473 313.064,299.191C313.814,298.691 314.674,297.84 315.643,296.637C316.611,295.433 317.346,294.183 317.846,292.887C318.346,291.59 318.596,290.254 318.596,288.879C318.596,287.973 318.33,287.223 317.799,286.629C317.268,286.035 316.674,285.738 316.018,285.738C315.174,285.738 314.174,286.223 313.018,287.191C311.08,288.879 309.049,291.707 306.924,295.676C305.33,298.707 304.283,301.129 303.783,302.941Z" style="fill-opacity:0;fill-rule:nonzero;stroke:rgb(255, 252, 48);stroke-width:1px;"/>
        </g>
    </g>
</svg>
