<?xml version="1.0" encoding="UTF-8" standalone="no"?><!DOCTYPE svg PUBLIC "-//W3C//DTD SVG 1.1//EN" "http://www.w3.org/Graphics/SVG/1.1/DTD/svg11.dtd"><svg width="100%" height="100%" viewBox="0 0 1883 3905" version="1.1" xmlns="http://www.w3.org/2000/svg" xmlns:xlink="http://www.w3.org/1999/xlink" xml:space="preserve" xmlns:serif="http://www.serif.com/" style="fill-rule:evenodd;clip-rule:evenodd;stroke-linejoin:round;stroke-miterlimit:2;"><path d="M1091.715,1610.211c2.837,-14.318 5.206,-12.141 15.867,-22.553c7.452,-7.278 -8.05,-32.236 -30.714,-32.164c-62.121,0.199 -61.633,-3.789 -66.647,-1.97c-44.804,16.256 -16.253,-22.009 3.176,-30.157c40.683,-17.062 26.5,-31.695 27.291,-55.92c1.411,-43.23 76.616,-34.353 63.538,-76.057c-7.677,-24.479 -0.579,-25.552 -9.609,-48.975c-11.414,-29.608 4.621,-38.337 31.155,-21.951c143.159,88.409 152.238,79.028 192.096,138.271c58.161,86.447 7.861,187.839 -21.999,185.321c-20.737,-1.749 -28.43,-3.357 -27.264,20.005c2.873,57.611 -63.433,-73.693 -76.311,-18.042c-8.699,37.592 29.207,41.359 35.665,45.949c105.014,74.623 11.282,140.044 27.511,182.103c17.987,46.613 -17.939,55.294 12.857,94.188c28.478,35.966 -78.35,59.995 -30.831,75.965c29.371,9.871 20.81,-19.346 22.936,-22.627c30.09,-46.449 12.667,46.587 34.927,38.423c1.761,-0.646 51.88,-19.027 13.424,19.223c-62.425,62.092 -109,32.453 -156.948,6.86c-12.232,-6.529 -36.016,-1.502 -22.795,171.814c-9.563,90.434 -50.643,47.696 -70.591,53.237c-12.26,3.406 29.979,34.115 39.892,26.325c3.964,-3.115 40.468,-31.798 62.733,5.978c5.789,9.821 -40.774,29.481 -26.693,49.195c17.275,24.186 15.617,24.741 21.519,53.883c1.056,5.213 45.585,26.014 16.278,-10.899c-7.383,-9.3 -6.07,-86.863 40.59,-40.958c7.434,7.313 92.45,-13.489 126.535,12.66c8.708,6.68 26.331,20.2 130.779,41.445c17.041,3.466 19.465,-27.519 45.589,-4.063c21.731,19.511 131.649,47.493 143.123,90.299c11.13,41.526 26.235,32.623 43.864,71.557c4.047,8.938 37.833,10.881 48.405,-0.171c112.04,-117.124 142.714,165.028 104.982,225.012c-2.193,3.486 -38.718,128.982 -54.508,213.41l-7.077,66.756c-5.211,29.988 3.818,38.232 -25.473,48.701c-1.111,0.397 -4.288,63.373 -23.838,87.86c-1.502,1.881 -17.143,5.624 -8.315,-28.92l-2.579,-1.518c-16.565,11.049 -8.562,17.481 -23.712,31.153c-44.58,40.231 38.098,-88.955 42.63,-96.034c9.481,-14.814 10.523,-13.43 20.21,-28.054c7.124,-10.754 24.106,-151.779 24.441,-161.32c0.095,-2.713 -12.44,-9.895 -19.939,27.454c-17.538,87.34 -14.207,87.007 -17.142,94.071c-27.569,66.347 -27.444,66.147 -27.628,66.341c-33.335,35.361 17.824,-58.146 0.376,-61.712c-20.647,-4.22 -9.052,-28.949 -21.576,-20.916c-25.601,16.421 -33.388,68.03 -34.367,74.521c-13.602,90.152 46.328,103.422 -12.844,172.92c-9.432,29.822 -8.167,29.917 0.462,59.575c7.703,36.299 -1.96,34.857 -15.132,58.309c-13.255,23.599 -3.706,38.377 -3.874,48.41c-2.753,164.368 2.663,164.697 -4.117,177.146c-16.694,30.653 5.325,53.896 -11.996,63.244c-17.818,9.615 -17.51,12.757 -11.449,31.813c12.008,37.757 -0.218,65.76 21.466,70.34c28.384,5.995 26.347,9.381 54.068,17.483c102.746,30.028 -200.639,28.064 -242.437,21.949c-116.401,-17.028 -143.158,5.431 -151.651,5.535c-144.392,1.766 -155.803,13.479 -182.919,9.236c-40.334,-6.311 -39.657,-7.897 -80.524,-3.565c-40.684,4.313 -72.819,-17.23 -90.163,8.255c-19.541,28.713 -41.647,-13.025 -84.188,-15.662c-86.178,-5.343 -86.157,-2.099 -93.624,-2.724c-127.534,-10.668 -127.558,-2.225 -138.564,-3.575c-60.9,-7.472 -59.915,7.845 -120.642,7.057c-128.382,-1.668 -127.33,-12.928 -138.448,-12.649c-82.013,2.06 -79.523,-13.042 -160.898,-21.054c-45.57,-4.487 -38.985,-24.252 -84.797,-31.759c-8.729,-1.43 -48.084,-28.589 4.43,-27.101c102.528,2.906 102.123,-12.359 178.927,-0.09c86.941,13.888 85.266,-5.543 163.761,-67.434c17.192,-13.555 3.818,-22.137 52.388,-91.198l18.344,-41.814l2.488,-12.853c3.32,-8.435 3.015,-8.113 11.003,-31.609c13.026,-47.331 12.4,-57.388 12.083,-62.468c-2.62,-42.023 25.975,-121.554 3.577,-160.898c-22.599,-39.697 -18.637,-46.485 -17.477,-89.164c2.006,-73.84 -16.749,-68.57 -75.854,-179.221c-21.752,-40.723 -35.937,-24.273 -73.578,7.986c-38.353,32.869 93.563,28.727 59.179,59.332c-26.693,23.76 6.735,68.25 -26.713,63.518c-23.068,-3.264 -21.9,-6.961 -44.744,-8.544c-37.164,-2.574 -11.19,-31.174 -39.836,-55.07c-11.867,-9.899 -14.281,14.671 -15.64,16.74c-17.137,26.104 -19.652,27.674 -6.559,59.384c19.968,48.36 -14.68,63.803 -7.494,174.251c2.152,33.079 42.201,17.541 55.458,32.229c32.035,35.492 38.963,55.636 -7.734,67.636c-6.177,1.587 -43.321,45.15 17.628,35.727c67.296,-10.405 57.368,42.262 44.473,40.11c-24.792,-4.137 -9.185,10.009 -8.193,10.376c60.933,22.535 9.187,42.72 4.397,82.187c-8.131,66.997 -32.504,-20.522 -77.941,-61.06c-35.732,-31.879 -31.38,-63.906 -44.351,-76.457c-33.646,-32.557 -26.503,-36.641 -38.637,-81.634c-29.207,-108.302 -5.761,-258.827 -19.5,-276.104c-40.683,-51.158 -3.053,-74.247 -11.681,-85.971c-68.563,-93.164 -104.335,-60.727 -148.052,-56.928c-8.155,0.709 -26.372,-12.958 5.761,-30.013c80.13,-42.532 151.902,-11.42 181.536,-1.083c54.851,19.135 42.685,-20.307 107.264,-72.852c31.396,-25.546 15.875,-32.008 7.397,-70.653c-12.815,-58.413 -46.898,-72.094 -50.132,-121.227c-5.626,-85.481 -41.004,-80.093 -33.795,-165.239c14.528,-171.589 71.072,-158.71 61.547,-169.55c-12.744,-14.503 -38.782,49.029 -55.718,21.823c-13.686,-21.986 -14.39,13.606 -40.655,14.001c-26.544,0.399 22.966,43.971 -49.63,101.888c-25.925,20.683 -46.655,-25.518 -21.007,-37.81c49.048,-23.506 -0.698,-101.912 -14.296,-82.213c-49.98,72.403 13.919,152.184 -49.483,139.873c-46.528,-9.035 -35.238,-23.733 -47.396,-68.697c-22.947,-84.867 -11.001,-86.817 -13.736,-93.9c-24.321,-62.986 -16.152,-107.706 -21.268,-152.245c-0.214,-1.861 -37.592,-15.561 -41.729,-39.655c-18.638,-108.574 49.915,-130.617 26.169,-267.871c-0.439,-2.535 -0.34,-132.912 41.287,-26.997c4.607,12.76 25.045,26.289 39.418,-26.615c9.137,-67.314 77.36,45.867 98.147,17.99c20.629,-27.665 30.563,-20.192 50.888,7.522c6.671,9.097 8.602,3.199 25.427,-0.978c39.957,-9.919 41.229,28.305 49.125,32.66c41.74,23.019 14.014,34.536 -5.622,44.732c-9.302,4.83 0.051,11.501 -9.26,17.404c-3.769,2.389 -7.95,4.097 -11.66,6.577c-3.486,2.329 -4.718,14.364 -6.358,15.933c-7.487,7.164 -83.037,-35.719 -43.711,36.999c12.095,22.365 28.714,-8.849 50.461,-25.3c39.088,-29.57 115.362,44.659 84.443,2.397c-21.511,-29.401 9.071,-65.158 53.382,-22.578c47.589,-25.95 46.354,11.111 75.378,11.063c32.33,-0.053 -5.06,39.56 26.756,48.166c31.868,8.62 -23.344,17.099 -26.527,21.825c35.16,23.647 34.6,24.71 40.383,25.515c20.423,2.841 13.362,11.936 27.568,27.171c20.787,22.294 31.469,2.318 38.91,-3.91c43.452,-36.366 19.027,30.801 31.853,35.405c26.418,9.484 15.545,-26.707 17.554,-30.536c22.233,-42.38 7.397,-48.41 28.758,-79.103c41.322,-59.376 21.958,-132.623 59.958,-125.896c3.495,40.298 -1.978,39.776 -0.594,80.112c1.046,30.462 57.484,-47.546 61.276,-52.788c76.677,-155.055 59.822,-399.498 58.628,-496.894c-2.828,-230.679 71.64,-1280.549 83.909,-1349.016c57.239,-319.419 -18.684,510.354 -20.432,812.81c-2.765,478.527 -34.801,477.48 -25.651,665.704c6.184,127.214 -23.057,202.327 2.985,246.544c21.069,35.773 22.334,-3.091 46.53,-36.236c27.169,-37.218 -26.631,12.67 -36.554,9.306c-37.247,-12.628 34.449,-56.069 95.11,-96.977c10.803,-7.285 84.841,8.057 49.692,-73.727Zm-227.021,625.373c4.509,-18.979 29.741,-104.047 10.779,-213.994c-3.7,-21.453 -33.905,29.424 -63.606,51.907c-24.023,18.185 -18.444,21.835 -24.166,51.013c-5.124,26.13 -30.779,26.287 -24.797,44.802c16.575,51.298 47.151,62.541 48.269,63.948c24.164,30.412 39.407,37.808 53.521,2.323Zm276.409,875.713c-3.037,-43.994 -3.412,-43.102 -17.018,-84.072c-12.316,-6.626 -11.791,-6.425 -18.395,-19.262c-18.821,-36.589 -19.989,-35.803 -20.578,-39.303l6.709,-5.321c-12.839,-18.108 -48.446,-69.268 -61.345,-8.477c-3.463,16.322 -48.914,26.315 -42.382,-17.426c2.347,-15.715 -41.022,11.559 -45.401,-49.194c-0.687,-9.536 14.388,-44.292 -16.49,-21.137c-24.149,18.109 46.309,39.039 -4.376,111.479c-0.071,0.101 -5.394,73.595 11.087,111.023c2.593,5.888 -9.937,7.014 4.534,80.298c0.605,3.062 0.022,36.56 -39.008,-0.424l-6.069,4.697c-3.766,-7.03 -19.628,-19.562 -23.105,-35.742l7.48,-5.115c-17.68,-30.864 -29.994,-20.886 -40.11,-44.529c-19.411,-45.365 -20.889,-47.144 -67.633,-63.137c-46.431,-15.887 10.982,-73.168 48.634,-75.812c34.004,-2.388 26.001,-14.772 30.711,-48.288c0.837,-5.955 18.377,-31.308 -12.612,-29.85c-41.508,1.953 -40.781,4.097 -80.162,18.186c-14.15,5.063 -16.458,-3.574 -27.756,6.666c-7.836,7.102 -46.593,2.709 -75.184,18.987c-57.16,32.543 -98.137,19.608 -73.966,80.879c27.445,69.569 33.192,65.528 77.752,124.406c5.232,6.913 3.484,6.831 7.816,26.697c15.822,-21.164 9.063,11.135 9.604,17.717c0.526,6.399 -2.497,4.335 -5.207,9.04c1.262,16.045 0.533,15.192 -0.177,39.725l6.586,4.848l-15.402,35.452c-5.032,103.028 -7.095,102.248 -9.984,205.801c-1.943,69.629 -11.749,68.026 -12.199,138.502c-0.488,76.48 -42.006,60.654 -62.303,111.308l4.747,4.86l-0.32,4.468l-0.603,4.468c-1.315,2.35 -0.036,2.206 -12.456,31.274l-1.078,4.468l-0.546,4.468l-1.883,6.576l-6.029,-7.376c-7.109,17.839 -13.459,28.7 5.706,25.633c104.979,-16.798 105.473,-20.604 209.985,-0.928c102.184,19.238 106.627,-6.232 108.128,-14.834c11.248,-64.476 -1.359,-79.142 30.688,-111.838c3.763,-3.84 2.272,-4.499 10.945,-66.306c-8.077,-20.39 -7.304,-20.275 -2.02,-40.911l2.663,-8.936l1.475,-4.468l1.926,-4.468l1.386,-4.468l1.672,-4.468l2.267,-4.468l1.432,-4.468l3.366,-4.468l7.935,5.865c63.187,-49.349 46.445,-64.087 102.113,-121.12c40.836,-60.235 7.643,-77.811 57.977,-129.504c44.362,-45.559 29.423,-53.032 26.029,-108.212c-1.58,-25.695 13.266,-22.957 10.444,-49.459Zm366.645,-133.903l-2.539,-21.531c14.186,-4.796 27.682,12.83 41.809,34.3c18.592,28.254 24.747,29.773 28.047,21.855c4.363,-10.467 19.737,-47.346 9.233,-141.451c-0.095,-0.852 -51.525,-11.286 -32.976,-35.382c13.835,-17.973 29.748,29.893 39.656,17.693c53.541,-65.93 36.845,29.695 48.781,30.867c3.047,0.299 25.286,-43.714 52.761,-20.957c0.17,0.141 17,26.817 18.993,12.193c9.558,-70.135 14.228,-69.801 1.02,-138.817c-8.375,-43.759 18.98,-69.277 -14.668,-62.248c-28.815,6.019 18.168,114.48 -32.228,58.952c-7.38,-8.132 -70.997,-13.89 -43.201,11.812c3.065,2.834 26.386,9.937 29.017,22.988c4.889,24.25 -60.021,12.347 -65.503,-71.501c-1.05,-16.061 -98.975,40.78 -63.272,103.094c15.74,27.472 -32.4,22.362 -35.68,30.341c-11.757,28.606 -18.433,27.635 -11.415,58.364c5.28,23.118 -0.204,25.151 15.89,41.7c6.478,13.374 12.032,30.615 16.275,47.729Zm7.579,68.405c-4.683,6.148 -21.504,-35.657 -33.54,-33.344c-27.282,5.243 -54.181,-39.508 -110.089,-34.619c-41.794,3.655 -44.286,-7.7 -57.302,-23.011c-32.256,16.31 -24.637,24.635 -27.6,24.724c-2.806,0.084 -2.147,-6.894 -4.953,-6.81c-13.297,21.078 -24.993,78.122 -26.65,89.685c-6.253,43.633 -14.822,47.08 11.597,82.177l6.603,-2.772l4.468,2.965c26.087,29.073 17.446,32.422 16.226,34.986c30.675,79.067 -34.797,98.477 -43.222,100.975c-8.654,2.174 -32.727,8.223 -86.4,70.546c-12.379,14.374 -66.653,127.041 -66.64,131.09c0.098,29.571 4.137,33.539 -20.468,49.745c-5.484,3.612 6.332,36.331 -10.477,47.029c-14.541,9.254 -72.451,32.468 -78.968,90.966c-4.096,36.768 42.207,51.924 40.56,116.166c-0.395,15.406 9.109,10.681 191.145,23.956c245.427,17.898 256.086,11.538 269.056,-23.625c17.677,-47.929 18.139,-47.847 55.581,-82.483c39.266,-36.322 -8.319,-111.646 16.393,-252.734c1.767,-10.09 2.521,-115.287 -3.136,-119.009c-48.568,-31.956 -16.723,-47.495 -30.7,-104.167c-2.671,-10.829 -18.446,-74.79 4.475,-139.35c8.801,-24.789 -27.933,-21.042 -15.96,-43.085Zm0.403,-0.719c2.98,-7.042 -0.414,-37.161 -7.982,-67.686l7.982,67.686Zm-0.403,0.719c0.146,-0.192 0.281,-0.431 0.403,-0.719l-0.403,0.719Z" style="fill:#1f0804;fill-opacity:0;stroke:#000;stroke-width:21.67px;"/></svg>