<?xml version="1.0" encoding="UTF-8" standalone="no"?><!DOCTYPE svg PUBLIC "-//W3C//DTD SVG 1.1//EN" "http://www.w3.org/Graphics/SVG/1.1/DTD/svg11.dtd"><svg width="100%" height="100%" viewBox="0 0 452 937" version="1.1" xmlns="http://www.w3.org/2000/svg" xmlns:xlink="http://www.w3.org/1999/xlink" xml:space="preserve" xmlns:serif="http://www.serif.com/" style="fill-rule:evenodd;clip-rule:evenodd;stroke-linejoin:round;stroke-miterlimit:2;"><path d="M200.899,462.788c18.403,-37.213 14.357,-95.88 14.071,-119.255c-0.679,-55.363 17.194,-307.332 20.138,-323.764c13.737,-76.66 -4.484,122.485 -4.904,195.074c-0.664,114.847 -8.352,114.595 -6.156,159.769c1.484,30.531 -5.534,48.559 0.716,59.17c5.056,8.585 5.36,-0.742 11.167,-8.697c6.521,-8.932 -6.391,3.041 -8.773,2.233c-8.939,-3.031 8.268,-13.457 22.826,-23.275c2.593,-1.748 20.362,1.934 11.926,-17.695c0.681,-3.436 1.249,-2.914 3.808,-5.413c1.788,-1.747 -1.932,-7.737 -7.371,-7.719c-14.909,0.048 -14.792,-0.909 -15.995,-0.473c-10.753,3.901 -3.901,-5.282 0.762,-7.238c9.764,-4.095 6.36,-7.607 6.55,-13.421c0.339,-10.375 18.388,-8.245 15.249,-18.254c-1.842,-5.875 -0.139,-6.133 -2.306,-11.754c-2.739,-7.106 1.109,-9.201 7.477,-5.268c34.358,21.218 36.537,18.967 46.103,33.185c13.959,20.747 1.887,45.081 -5.28,44.477c-4.977,-0.42 -6.823,-0.806 -6.543,4.801c0.69,13.827 -15.224,-17.686 -18.315,-4.33c-2.088,9.022 7.01,9.926 8.56,11.028c25.203,17.909 2.708,33.611 6.603,43.705c4.317,11.187 -4.305,13.271 3.086,22.605c6.835,8.632 -18.804,14.399 -7.399,18.232c7.049,2.369 4.994,-4.643 5.505,-5.43c7.222,-11.148 3.04,11.181 8.383,9.222c0.423,-0.155 12.451,-4.567 3.222,4.614c-14.982,14.902 -26.16,7.789 -37.667,1.646c-2.936,-1.567 -8.644,-0.361 -5.471,41.235c-2.295,21.704 -12.154,11.447 -16.942,12.777c-2.942,0.817 7.195,8.188 9.574,6.318c0.951,-0.748 9.712,-7.631 15.056,1.435c1.389,2.357 -9.786,7.076 -6.406,11.807c4.146,5.805 3.748,5.938 5.165,12.932c0.253,1.251 10.94,6.243 3.907,-2.616c-1.772,-2.232 -1.457,-20.847 9.742,-9.83c1.784,1.755 22.188,-3.237 30.368,3.038c2.09,1.603 6.319,4.848 31.387,9.947c4.09,0.832 4.671,-6.604 10.941,-0.975c5.216,4.683 31.596,11.398 34.349,21.672c2.671,9.966 6.296,7.83 10.527,17.174c0.971,2.145 9.08,2.611 11.617,-0.041c26.89,-28.11 34.251,39.607 25.196,54.003c-0.526,0.837 -9.292,30.956 -13.082,51.218l-1.699,16.022c-1.251,7.197 0.916,9.176 -6.114,11.688c-0.267,0.095 -1.029,15.21 -5.721,21.086c-0.36,0.452 -4.114,1.35 -1.996,-6.941l-0.619,-0.364c-3.976,2.652 -2.055,4.195 -5.691,7.477c-10.699,9.656 9.144,-21.349 10.231,-23.048c2.275,-3.555 2.526,-3.223 4.85,-6.733c1.71,-2.581 5.786,-36.427 5.866,-38.717c0.023,-0.651 -2.986,-2.375 -4.785,6.589c-4.209,20.962 -3.41,20.882 -4.114,22.577c-6.616,15.923 -6.587,15.875 -6.631,15.922c-8,8.487 4.278,-13.955 0.09,-14.811c-4.955,-1.013 -2.172,-6.948 -5.178,-5.02c-6.144,3.941 -8.013,16.327 -8.248,17.885c-3.264,21.636 11.119,24.821 -3.083,41.501c-2.264,7.157 -1.96,7.18 0.111,14.298c1.849,8.712 -0.47,8.366 -3.632,13.994c-3.181,5.664 -0.889,9.211 -0.93,11.618c-0.661,39.448 0.639,39.527 -0.988,42.515c-4.006,7.357 1.278,12.935 -2.879,15.178c-4.276,2.308 -4.202,3.062 -2.748,7.635c2.882,9.062 -0.052,15.782 5.152,16.882c6.812,1.439 6.323,2.251 12.976,4.196c24.659,7.207 -48.153,6.735 -58.185,5.268c-27.936,-4.087 -34.358,1.303 -36.396,1.328c-34.654,0.424 -37.393,3.235 -43.9,2.217c-9.68,-1.515 -9.518,-1.895 -19.326,-0.856c-9.764,1.035 -17.477,-4.135 -21.639,1.981c-4.69,6.891 -9.995,-3.126 -20.205,-3.759c-20.683,-1.282 -20.678,-0.504 -22.47,-0.654c-30.608,-2.56 -30.614,-0.534 -33.255,-0.858c-14.616,-1.793 -14.38,1.883 -28.954,1.694c-30.812,-0.4 -30.559,-3.103 -33.228,-3.036c-19.683,0.494 -19.086,-3.13 -38.616,-5.053c-10.937,-1.077 -9.356,-5.82 -20.351,-7.622c-2.095,-0.343 -11.54,-6.861 1.063,-6.504c24.607,0.698 24.509,-2.966 42.942,-0.022c20.866,3.333 20.464,-1.33 39.303,-16.184c4.126,-3.253 0.916,-5.313 12.573,-21.887l4.403,-10.035l0.597,-3.085c0.797,-2.024 0.724,-1.947 2.641,-7.586c3.126,-11.359 2.976,-13.773 2.9,-14.992c-0.629,-10.086 6.234,-29.173 0.858,-38.615c-5.424,-9.527 -4.473,-11.156 -4.195,-21.399c0.481,-17.722 -4.02,-16.457 -18.205,-43.013c-5.221,-9.773 -8.625,-5.826 -17.659,1.917c-9.205,7.889 22.455,6.894 14.203,14.24c-6.406,5.702 1.616,16.38 -6.411,15.244c-5.536,-0.783 -5.256,-1.671 -10.739,-2.05c-8.919,-0.618 -2.686,-7.482 -9.561,-13.217c-2.848,-2.376 -3.427,3.521 -3.754,4.018c-4.113,6.265 -4.716,6.642 -1.574,14.252c4.792,11.606 -3.523,15.313 -1.798,41.82c0.517,7.939 10.128,4.21 13.31,7.735c7.688,8.518 9.351,13.353 -1.856,16.233c-1.482,0.381 -10.397,10.836 4.231,8.574c16.151,-2.497 13.768,10.143 10.674,9.627c-5.95,-0.993 -2.204,2.402 -1.966,2.49c14.624,5.408 2.205,10.253 1.055,19.725c-1.952,16.079 -7.801,-4.925 -18.706,-14.654c-8.576,-7.651 -7.531,-15.337 -10.644,-18.35c-8.075,-7.814 -6.361,-8.794 -9.273,-19.592c-7.01,-25.992 -1.383,-62.119 -4.68,-66.265c-9.764,-12.278 -0.733,-17.819 -2.804,-20.633c-16.455,-22.359 -25.04,-14.575 -35.532,-13.663c-1.957,0.17 -6.329,-3.11 1.383,-7.203c19.231,-10.208 36.456,-2.741 43.569,-0.26c13.164,4.592 10.244,-4.874 25.743,-17.485c7.535,-6.131 3.81,-7.682 1.775,-16.957c-3.076,-14.019 -11.256,-17.303 -12.032,-29.095c-1.35,-20.515 -9.841,-19.222 -8.111,-39.657c3.487,-41.181 17.057,-38.09 14.771,-40.692c-3.059,-3.481 -9.308,11.767 -13.372,5.237c-3.285,-5.277 -3.454,3.266 -9.757,3.36c-6.371,0.096 5.512,10.553 -11.911,24.453c-6.222,4.964 -11.197,-6.124 -5.042,-9.074c11.771,-5.642 -0.168,-24.459 -3.431,-19.731c-11.995,17.377 3.341,36.524 -11.876,33.569c-11.167,-2.168 -8.457,-5.696 -11.375,-16.487c-5.507,-20.368 -2.64,-20.836 -3.297,-22.536c-5.837,-15.117 -3.876,-25.849 -5.104,-36.539c-0.051,-0.447 -9.022,-3.735 -10.015,-9.517c-4.473,-26.058 11.98,-31.348 6.281,-64.289c-0.105,-0.609 -0.082,-31.899 9.909,-6.479c1.106,3.063 6.011,6.309 9.46,-6.387c2.193,-16.155 18.566,11.008 23.555,4.318c4.951,-6.64 7.335,-4.846 12.213,1.805c1.601,2.183 2.064,0.768 6.103,-0.235c9.59,-2.381 9.895,6.793 11.79,7.838c10.018,5.525 3.363,8.289 -1.349,10.736c-2.233,1.159 0.012,2.76 -2.222,4.177c-0.904,0.573 -1.908,0.983 -2.798,1.578c-0.837,0.559 -1.132,3.447 -1.526,3.824c-1.797,1.719 -19.929,-8.572 -10.491,8.88c2.903,5.368 6.891,-2.124 12.111,-6.072c9.381,-7.097 27.687,10.718 20.266,0.575c-5.163,-7.056 2.177,-15.638 12.812,-5.419c11.421,-6.228 11.125,2.667 18.091,2.655c7.759,-0.013 -1.214,9.494 6.422,11.56c7.648,2.069 -5.603,4.104 -6.367,5.238c8.438,5.675 8.304,5.93 9.692,6.123c4.902,0.682 3.207,2.865 6.616,6.521c4.989,5.35 7.552,0.556 9.338,-0.938c10.428,-8.728 4.567,7.392 7.645,8.497c6.34,2.276 3.731,-6.41 4.213,-7.329c5.336,-10.171 1.775,-11.618 6.902,-18.985c9.917,-14.25 5.27,-31.829 14.39,-30.215c0.839,9.671 -0.475,9.546 -0.143,19.227c0.251,7.311 13.796,-11.411 14.706,-12.669l0.001,0.002Zm72.865,283.824c-0.729,-10.559 -0.819,-10.344 -4.084,-20.177c-2.956,-1.59 -2.83,-1.542 -4.415,-4.623c-4.517,-8.781 -4.797,-8.593 -4.939,-9.433l1.61,-1.277c-3.081,-4.346 -11.627,-16.624 -14.723,-2.034c-0.831,3.917 -11.739,6.316 -10.172,-4.182c0.563,-3.772 -9.845,2.774 -10.896,-11.807c-0.165,-2.289 3.453,-10.63 -3.958,-5.073c-5.796,4.346 11.114,9.369 -1.05,26.755c-0.017,0.024 -1.294,17.663 2.661,26.646c0.622,1.413 -2.385,1.683 1.088,19.271c0.145,0.735 0.005,8.774 -9.362,-0.102l-1.457,1.127c-0.904,-1.687 -4.711,-4.695 -5.545,-8.578l1.795,-1.228c-4.243,-7.407 -7.198,-5.013 -9.626,-10.687c-4.659,-10.888 -5.013,-11.314 -16.232,-15.153c-11.144,-3.813 2.636,-17.56 11.672,-18.195c8.161,-0.573 6.24,-3.545 7.371,-11.589c0.201,-1.429 4.411,-7.514 -3.027,-7.164c-9.962,0.469 -9.787,0.983 -19.239,4.365c-3.396,1.215 -3.95,-0.858 -6.661,1.6c-1.881,1.705 -11.182,0.65 -18.044,4.557c-13.718,7.81 -23.553,4.706 -17.752,19.411c6.587,16.697 7.966,15.727 18.66,29.857c1.256,1.659 0.836,1.639 1.876,6.407c3.797,-5.079 2.175,2.672 2.305,4.252c0.126,1.536 -0.599,1.04 -1.25,2.17c0.303,3.851 0.128,3.646 -0.043,9.534l1.581,1.163l-3.697,8.509c-1.208,24.727 -1.703,24.54 -2.396,49.392c-0.466,16.711 -2.82,16.326 -2.928,33.241c-0.117,18.355 -10.081,14.557 -14.953,26.714l1.139,1.166l-0.077,1.072l-0.145,1.072c-0.315,0.564 -0.009,0.529 -2.989,7.506l-0.259,1.072l-0.131,1.072l-0.452,1.578l-1.447,-1.77c-1.706,4.281 -3.23,6.888 1.369,6.152c25.195,-4.032 25.314,-4.945 50.396,-0.223c24.524,4.617 25.591,-1.496 25.951,-3.56c2.7,-15.474 -0.326,-18.994 7.365,-26.841c0.903,-0.921 0.545,-1.08 2.627,-15.913c-1.938,-4.893 -1.753,-4.866 -0.485,-9.819l0.639,-2.145l0.354,-1.072l0.462,-1.072l0.333,-1.072l0.401,-1.072l0.544,-1.072l0.344,-1.072l0.808,-1.072l1.904,1.407c15.165,-11.844 11.147,-15.381 24.507,-29.069c9.801,-14.456 1.834,-18.675 13.914,-31.081c10.647,-10.934 7.061,-12.728 6.247,-25.971c-0.379,-6.167 3.184,-5.51 2.506,-11.87l0.005,-0Zm-66.338,-210.171c1.082,-4.555 7.138,-24.971 2.587,-51.359c-0.888,-5.149 -8.137,7.062 -15.265,12.458c-5.765,4.364 -4.427,5.24 -5.8,12.243c-1.23,6.271 -7.387,6.309 -5.951,10.753c3.978,12.312 11.316,15.01 11.585,15.348c5.799,7.299 9.458,9.074 12.845,0.558l-0.001,-0.001Zm150.427,166.579c6.596,8.9 2.39,9.698 -2.325,19.87c-2.804,6.049 -13.003,-9.482 -26.421,-8.309c-10.03,0.877 -10.629,-1.848 -13.752,-5.523c-7.741,3.914 -5.913,5.912 -6.624,5.934c-0.673,0.02 -0.515,-1.655 -1.189,-1.634c-3.191,5.059 -5.998,18.749 -6.396,21.524c-1.501,10.472 -3.557,11.299 2.783,19.723l1.585,-0.665l1.072,0.712c6.261,6.977 4.187,7.781 3.894,8.397c7.362,18.976 -8.351,23.634 -10.373,24.234c-2.077,0.522 -7.854,1.973 -20.736,16.931c-2.971,3.45 -15.997,30.49 -15.994,31.462c0.024,7.097 0.993,8.049 -4.912,11.939c-1.316,0.867 1.52,8.719 -2.515,11.287c-3.49,2.221 -17.388,7.792 -18.952,21.832c-0.983,8.824 10.13,12.462 9.734,27.88c-0.095,3.697 2.186,2.563 45.875,5.75c58.903,4.296 61.461,2.769 64.573,-5.67c4.243,-11.503 4.353,-11.483 13.34,-19.796c9.424,-8.717 -1.996,-26.795 3.934,-60.656c0.424,-2.422 0.605,-27.669 -0.753,-28.562c-11.656,-7.669 -4.014,-11.399 -7.368,-25c-0.641,-2.599 -4.427,-17.95 1.074,-33.444c2.135,-6.013 -6.895,-5.03 -3.734,-10.513c3.174,-5.506 1.866,-5.778 0.845,-11.91c-0.991,-5.951 3.274,-6.423 6.665,-1.27c4.462,6.781 5.939,7.146 6.731,5.245c1.047,-2.512 4.737,-11.363 2.216,-33.948c-0.023,-0.205 -12.366,-2.709 -7.914,-8.492c3.32,-4.313 7.14,7.174 9.517,4.246c12.85,-15.823 8.843,7.127 11.707,7.408c0.731,0.072 6.069,-10.491 12.663,-5.03c0.041,0.034 4.08,6.436 4.558,2.926c2.294,-16.832 3.415,-16.752 0.245,-33.316c-2.01,-10.502 4.555,-16.627 -3.52,-14.939c-6.916,1.445 4.36,27.475 -7.735,14.148c-1.771,-1.952 -17.039,-3.334 -10.368,2.835c0.736,0.68 6.333,2.385 6.964,5.517c1.173,5.82 -14.405,2.963 -15.721,-17.16c-0.252,-3.855 -23.754,9.787 -15.185,24.742c3.778,6.593 -7.776,5.367 -8.563,7.282c-2.822,6.865 -4.424,6.632 -2.74,14.007c1.267,5.548 -0.049,6.036 3.813,10.008l0.002,-0.002Z" style="fill:#1f0804;fill-opacity:0;stroke:#000;stroke-opacity:0.14;stroke-width:1px;"/></svg>