<?xml version="1.0" encoding="UTF-8" standalone="no"?>
<!DOCTYPE svg PUBLIC "-//W3C//DTD SVG 1.1//EN" "http://www.w3.org/Graphics/SVG/1.1/DTD/svg11.dtd">
<svg width="100%" height="100%" viewBox="0 0 1041 454" version="1.1" xmlns="http://www.w3.org/2000/svg" xmlns:xlink="http://www.w3.org/1999/xlink" xml:space="preserve" xmlns:serif="http://www.serif.com/" style="fill-rule:evenodd;clip-rule:evenodd;stroke-linejoin:round;stroke-miterlimit:2;">
    <style>
        path {
            stroke-dasharray: 10000;
            stroke-dashoffset: 10000;
            animation: draw 15s ease-in-out forwards;
        }
        @keyframes draw {
            to { stroke-dashoffset: 0; }
        }
    </style>
    <g transform="matrix(1,0,0,1,-73.59375,-84.892284)">
        <g transform="matrix(1,0,0,1,-225.857579,-22.390805)">
            <g opacity="0.5">
                <path d="M300.803,198.242C301.975,198.148 303.053,197.961 304.037,197.68C304.787,197.633 306.24,197.352 308.397,196.836C311.022,196.555 313.061,195.898 314.514,194.867C315.029,194.539 315.346,194.234 315.463,193.953C315.58,193.672 316.201,188 317.326,176.937L319.858,150.011C321.311,137.966 322.084,130.162 322.178,126.6C322.225,125.428 322.436,123.952 322.811,122.171L323.233,115.914C323.233,115.209 322.951,114.575 322.389,114.011C321.592,113.26 320.654,112.719 319.576,112.391C314.373,112.016 311.256,111.734 310.225,111.547C309.897,110.937 309.733,110.492 309.733,110.211C309.733,109.93 309.873,109.531 310.154,109.016C310.717,108.828 311.256,108.734 311.772,108.734C314.865,108.734 318.076,108.781 321.404,108.875C324.733,108.969 326.748,109.016 327.451,109.016L348.615,108.383L351.498,108.312C355.576,108.172 359.033,108.536 361.869,109.403C364.705,110.271 367.225,111.736 369.428,113.799C371.631,115.862 373.154,118.172 373.998,120.728C374.842,123.284 375.264,125.383 375.264,127.024C375.264,131.667 373.553,136.063 370.131,140.214C366.709,144.364 361.084,148.479 353.256,152.559C354.475,154.62 360.287,163.707 370.694,179.82C371.678,181.367 373.213,183.852 375.299,187.273C377.385,190.695 379.342,193.074 381.17,194.41C382.998,195.746 385.319,196.578 388.131,196.906C389.444,197.097 391.108,197.408 393.123,197.837L392.842,200.844C391.014,200.844 388.647,200.75 385.74,200.562C380.537,200.187 376.576,200 373.858,200L363.662,200.141L359.233,200.422L358.529,200.352C358.014,200.352 357.592,200.445 357.264,200.633C356.654,200.164 356.326,199.437 356.279,198.453C356.748,197.984 357.311,197.68 357.967,197.539C359.326,197.211 361.811,197.047 365.42,197.047C367.014,197.047 368.397,196.578 369.569,195.641C369.006,193.86 367.201,190.908 364.154,186.786C363.639,186.036 361.178,182.334 356.772,175.682L343.342,155.512C340.014,156.202 336.522,156.547 332.865,156.547C332.209,156.547 330.99,156.501 329.209,156.408L327.451,175.251L326.115,188.117L325.904,191C325.764,192.125 325.694,192.805 325.694,193.039C325.694,193.367 325.787,193.906 325.975,194.656C327.897,195.547 330.065,196.191 332.479,196.59C334.893,196.988 337.178,197.469 339.334,198.031C339.428,198.453 339.475,198.805 339.475,199.086C339.475,199.367 339.451,199.719 339.404,200.141C337.998,200.187 336.99,200.211 336.381,200.211C335.725,200.211 334.529,200.164 332.795,200.07C330.358,199.883 327.92,199.789 325.483,199.789C320.186,199.789 315.885,199.895 312.58,200.105C309.276,200.316 306.358,200.422 303.826,200.422C303.076,200.422 302.326,200.445 301.576,200.492C301.342,200.492 300.967,200.445 300.451,200.352C300.498,199.883 300.522,199.531 300.522,199.297C300.569,198.781 300.662,198.43 300.803,198.242ZM334.272,112.744L333.85,114.012C332.959,116.454 332.49,119.506 332.444,123.168C332.444,123.544 332.42,123.92 332.373,124.295L331.037,135.776C330.381,144.04 329.959,149.135 329.772,151.06L329.842,152.328C331.061,152.75 332.983,152.961 335.608,152.961C336.826,152.961 339.123,152.656 342.498,152.046C344.701,151.623 347.115,150.731 349.74,149.368C351.709,148.383 353.608,147.021 355.436,145.284C358.014,142.372 359.444,140.682 359.725,140.212C361.084,138.006 362.174,135.611 362.994,133.028C363.815,130.446 364.225,128.169 364.225,126.197C364.225,121.784 362.69,118.203 359.619,115.457C356.549,112.71 351.522,111.336 344.537,111.336C340.459,111.336 337.037,111.805 334.272,112.744Z" style="fill-opacity:0;stroke:black;stroke-width:2px;"/>
                <path d="M403.108,174.687C401.561,178.94 400.787,183.239 400.787,187.584C400.787,190.762 401.537,193.309 403.037,195.225C404.022,196.533 405.358,197.187 407.045,197.187C408.076,197.187 408.99,196.978 409.787,196.558C411.522,195.671 413.01,194.621 414.252,193.408C415.494,192.195 416.795,190.609 418.154,188.65C419.514,186.69 420.615,184.497 421.459,182.07L422.444,182.07C423.006,182.07 423.639,182.117 424.342,182.211C422.936,187.443 419.467,192.581 413.936,197.626C410.467,200.755 406.881,202.32 403.178,202.32C400.694,202.32 398.584,201.195 396.85,198.945C394.553,195.992 393.404,191.914 393.404,186.711C393.404,184.461 393.744,181.766 394.424,178.625C395.104,175.484 395.889,172.859 396.779,170.75C398.186,167.469 399.756,164.375 401.49,161.469L406.904,153.594C410.42,149.844 412.389,147.781 412.811,147.406C414.451,146 416.104,144.934 417.768,144.207C419.432,143.48 421.154,143.117 422.936,143.117C425.233,143.117 427.248,144.08 428.983,146.007C430.717,147.933 431.584,150.352 431.584,153.265C431.584,155.849 430.916,158.397 429.58,160.911C428.244,163.424 426.803,165.268 425.256,166.442L419.42,170.248C418.764,170.577 417.006,171.176 414.147,172.045C411.287,172.914 407.608,173.795 403.108,174.687ZM404.303,171.102C405.803,171.148 408.147,170.562 411.334,169.344C413.069,168.687 415.365,167.398 418.225,165.477C419.35,164.727 420.639,163.449 422.092,161.645C423.545,159.84 424.647,157.965 425.397,156.02C426.147,154.074 426.522,152.07 426.522,150.008C426.522,148.648 426.123,147.523 425.326,146.633C424.529,145.742 423.639,145.297 422.654,145.297C421.389,145.297 419.889,146.023 418.154,147.477C415.248,150.008 412.201,154.25 409.014,160.203C406.623,164.75 405.053,168.383 404.303,171.102Z" style="fill-opacity:0;stroke:black;stroke-width:2px;"/>
                <path d="M436.154,187.977C438.498,187.977 440.42,189.781 441.92,193.391C442.67,195.172 443.397,196.344 444.1,196.906C444.756,197.516 445.623,197.82 446.701,197.82C448.717,197.82 450.639,196.882 452.467,195.005C453.873,193.597 454.576,191.438 454.576,188.528C454.576,186.276 453.779,182.897 452.186,178.391C449.936,171.867 448.811,166.75 448.811,163.042C448.811,157.645 450.264,152.858 453.17,148.681C456.076,144.503 460.67,142.414 466.951,142.414C469.623,142.414 471.756,143.141 473.35,144.594C474.944,146.047 475.74,147.805 475.74,149.867C475.74,151.273 475.354,152.41 474.58,153.277C473.807,154.145 472.928,154.578 471.944,154.578C469.881,154.578 468.029,153.582 466.389,151.59C464.748,149.598 463.647,148.437 463.084,148.109C462.522,147.828 461.654,147.687 460.483,147.687C459.17,147.687 458.01,148.251 457.002,149.378C455.994,150.505 455.49,151.868 455.49,153.465C455.49,157.269 456.615,162.564 458.865,169.349C461.115,176.134 462.24,181.403 462.24,185.155C462.24,187.547 461.502,189.975 460.026,192.437C458.549,194.899 456.252,196.986 453.135,198.698C450.018,200.41 446.819,201.266 443.537,201.266C439.6,201.266 436.658,200.422 434.713,198.734C432.768,197.047 431.795,195.031 431.795,192.687C431.795,191.281 432.194,190.145 432.99,189.277C433.787,188.41 434.842,187.977 436.154,187.977Z" style="fill-opacity:0;stroke:black;stroke-width:2px;"/>
                <path d="M495.99,148.883L491.912,148.883L489.944,148.812L485.373,148.953L484.459,148.953C484.553,147.922 484.951,146.727 485.654,145.367C492.404,145.18 496.412,145.016 497.678,144.875C498.615,142.625 499.412,140.82 500.069,139.461C501.475,136.414 502.928,132.805 504.428,128.633C504.897,127.273 505.412,126.031 505.975,124.906C507.006,124.766 508.201,124.695 509.561,124.695C510.686,124.695 511.764,124.812 512.795,125.047L512.936,126.172C512.936,127.062 510.826,132.219 506.608,141.641C506.139,142.719 505.74,143.82 505.412,144.945C506.772,145.18 507.569,145.297 507.803,145.297L509.279,145.297L511.67,145.367L518.42,145.227C518.42,146.773 518.139,148.039 517.576,149.023C515.701,149.211 513.24,149.305 510.194,149.305C508.694,149.305 507.733,149.328 507.311,149.375C504.92,149.609 503.537,149.844 503.162,150.078L491.49,177.359C490.272,180.031 488.115,185.117 485.022,192.617C485.022,192.898 485.162,193.227 485.444,193.602L486.358,193.742C487.623,193.742 489.194,192.945 491.069,191.352C495.24,187.836 499.178,183.734 502.881,179.047C503.678,179.469 504.381,179.961 504.99,180.523C500.256,186.195 496.928,189.934 495.006,191.738C493.084,193.543 490.647,195.418 487.694,197.363C484.74,199.309 482.959,200.398 482.35,200.633C481.272,201.055 480.17,201.266 479.045,201.266C477.873,201.266 477.006,201.02 476.444,200.527C475.881,200.035 475.6,199.32 475.6,198.383C475.6,197.023 476.748,193.859 479.045,188.891L482.069,182.352L492.686,157.391C494.045,154.156 495.147,151.32 495.99,148.883Z" style="fill-opacity:0;stroke:black;stroke-width:2px;"/>
                <path d="M559.412,149.094C559.881,148.297 560.186,147.664 560.326,147.195C560.889,145.789 561.451,144.875 562.014,144.453C563.326,144.312 564.287,144.242 564.897,144.242C565.694,144.242 566.467,144.407 567.217,144.737L567.428,145.584C567.428,145.865 567.311,146.287 567.076,146.849C566.936,147.13 566.631,148.021 566.162,149.521L565.6,150.926L560.959,163.511C558.99,169.182 557.268,173.705 555.791,177.08C554.315,180.455 553.037,183.888 551.959,187.38C550.881,190.871 549.897,193.367 549.006,194.867L548.725,195.543C548.725,195.814 548.983,196.175 549.498,196.625C551.608,195.453 553.389,194.187 554.842,192.828C558.592,189.312 560.819,187.133 561.522,186.289C562.037,185.68 562.529,185.117 562.998,184.602C563.561,185.07 564.076,185.562 564.545,186.078C563.233,187.906 561.029,190.391 557.936,193.531C554.842,196.672 552.053,198.898 549.569,200.211C547.647,201.195 545.842,201.687 544.154,201.687C543.076,201.687 542.268,201.458 541.729,200.999C541.19,200.539 540.92,199.942 540.92,199.207C540.92,198.564 541.154,197.352 541.623,195.57C542.795,192.477 543.615,190.437 544.084,189.453C544.553,188.469 545.186,186.945 545.983,184.883C546.451,183.617 547.412,181.414 548.865,178.273C547.975,179.164 546.873,180.477 545.561,182.211C541.764,186.992 537.404,191.516 532.483,195.781C531.358,196.766 528.639,198.336 524.326,200.492C522.733,201.102 520.858,201.5 518.701,201.687C516.873,201.641 515.654,201.453 515.045,201.125C513.92,200.516 513.006,199.555 512.303,198.242C511.787,197.258 511.529,195.734 511.529,193.672C511.529,190.672 512.186,187.344 513.498,183.687C515.748,177.453 518.022,172.836 520.319,169.836C524.256,164.633 528.158,160.508 532.026,157.461C535.893,154.414 539.444,152.187 542.678,150.781C546.944,148.906 550.647,147.969 553.787,147.969C554.819,147.969 555.803,148.062 556.74,148.25C557.678,148.437 558.569,148.719 559.412,149.094ZM525.944,195.219C527.069,194.937 528.053,194.539 528.897,194.023C529.412,193.742 531.24,192.453 534.381,190.156C540.1,184.391 543.334,181.086 544.084,180.242C545.725,178.414 547.576,175.906 549.639,172.719C550.201,171.922 551.397,169.719 553.225,166.109L555.053,161.258C555.709,158.398 556.037,156.758 556.037,156.336C556.037,155.023 555.498,153.781 554.42,152.609C553.717,151.906 552.569,151.555 550.975,151.555C549.147,151.555 547.576,151.859 546.264,152.469C543.311,153.875 540.615,155.656 538.178,157.812C534.897,160.766 531.733,164.551 528.686,169.168C525.639,173.785 523.483,177.641 522.217,180.734C520.483,185 519.615,188.187 519.615,190.297C519.615,192.031 519.967,193.32 520.67,194.164C521.373,195.008 522.264,195.43 523.342,195.43C523.717,195.43 524.584,195.359 525.944,195.219Z" style="fill-opacity:0;stroke:black;stroke-width:2px;"/>
                <path d="M592.319,148.531C590.772,149.187 588.592,150.992 585.779,153.945C583.951,155.492 582.24,157.109 580.647,158.797C579.569,160.016 578.772,160.859 578.256,161.328L576.006,160.836C576.756,159.43 578.936,156.793 582.545,152.926C586.154,149.059 589.834,146.047 593.584,143.891C595.412,142.812 597.076,142.273 598.576,142.273C599.467,142.273 600.24,142.602 600.897,143.259C601.553,143.915 601.881,144.619 601.881,145.369C601.881,146.354 601.483,147.691 600.686,149.379C600.545,149.661 600.194,150.458 599.631,151.77C597.522,156.691 593.444,165.057 587.397,176.867C582.147,186.992 579.522,192.734 579.522,194.094L579.592,194.516C580.811,194.328 582.451,193.344 584.514,191.562C590.654,186.359 595.295,182 598.436,178.484C598.858,178.062 599.936,176.937 601.67,175.109C607.014,169.578 611.444,164.258 614.959,159.148C617.069,156.102 620.069,150.57 623.959,142.555C625.272,142.461 626.373,142.414 627.264,142.414C628.342,142.414 629.162,142.769 629.725,143.48C628.74,146.432 626.889,151.259 624.17,157.961L611.092,190.578C610.295,192.266 609.779,193.812 609.545,195.219L610.037,195.289C610.365,195.289 611.139,194.75 612.358,193.672C615.076,191.234 617.35,188.75 619.178,186.219C620.022,185.047 620.748,184.133 621.358,183.477L623.608,183.828C621.358,188.094 617.561,192.734 612.217,197.75C609.264,200.469 606.944,201.828 605.256,201.828C604.647,201.828 603.85,201.687 602.865,201.406C602.022,200.516 601.6,199.672 601.6,198.875C601.6,196.531 602.561,193.109 604.483,188.609L614.397,165.477C614.678,165.008 614.865,164.539 614.959,164.07C614.115,165.008 612.264,167.117 609.404,170.398C602.654,178.273 596.854,184.461 592.002,188.961C587.151,193.461 581.936,197.328 576.358,200.562C574.998,201.312 573.662,201.687 572.35,201.687C571.694,201.687 571.143,201.453 570.697,200.984C570.252,200.516 570.029,199.859 570.029,199.016C570.029,198.266 570.194,197.328 570.522,196.203C571.272,193.812 572.608,190.766 574.529,187.062L586.553,163.367L591.475,152.891C592.365,151.484 592.811,150.453 592.811,149.797C592.811,149.562 592.647,149.141 592.319,148.531Z" style="fill-opacity:0;stroke:black;stroke-width:2px;"/>
                <path d="M649.131,148.391C647.584,149.516 646.131,150.828 644.772,152.328C644.397,152.75 642.264,155.562 638.373,160.766L635.49,160.906C636.662,158.375 638.842,155.258 642.029,151.555C645.217,147.852 647.983,145.32 650.326,143.961C651.826,143.07 653.514,142.555 655.389,142.414C656.561,142.739 657.369,143.181 657.815,143.738C658.26,144.295 658.483,144.969 658.483,145.758C658.483,146.548 658.389,147.337 658.201,148.127C657.686,150.682 656.654,154.35 655.108,159.131C653.561,163.912 652.178,167.686 650.959,170.451L647.303,179.1L647.022,180.365C647.678,179.24 649.014,176.732 651.029,172.842C658.67,158.363 664.178,149.428 667.553,146.037C670.037,143.622 672.944,142.414 676.272,142.414C678.147,142.414 679.904,143.164 681.545,144.664C682.764,145.836 683.373,147.383 683.373,149.305C683.373,151.461 682.694,153.312 681.334,154.859C680.397,155.937 679.061,156.477 677.326,156.477C675.873,156.477 674.854,156.137 674.268,155.457C673.682,154.777 673.319,153.078 673.178,150.359C672.569,149.141 671.889,148.531 671.139,148.531C670.389,148.531 669.592,148.929 668.748,149.725C666.498,151.738 662.256,158.186 656.022,169.07C649.787,179.954 645.885,187.514 644.315,191.75C642.744,195.987 641.467,198.901 640.483,200.492C639.967,201.289 639.006,201.687 637.6,201.687C636.334,201.687 635.432,201.465 634.893,201.02C634.354,200.574 634.084,200 634.084,199.297C634.084,198.359 634.319,197.281 634.787,196.062C636.803,191.141 640.037,182.07 644.49,168.852L649.412,153.805C649.74,152.463 649.975,151.607 650.115,151.236L650.537,150.196C650.537,149.733 650.069,149.131 649.131,148.391Z" style="fill-opacity:0;stroke:black;stroke-width:2px;"/>
                <path d="M722.959,149.094C723.428,148.297 723.733,147.664 723.873,147.195C724.436,145.789 724.998,144.875 725.561,144.453C726.873,144.312 727.834,144.242 728.444,144.242C729.24,144.242 730.014,144.407 730.764,144.737L730.975,145.584C730.975,145.865 730.858,146.287 730.623,146.849C730.483,147.13 730.178,148.021 729.709,149.521L729.147,150.926L724.506,163.511C722.537,169.182 720.815,173.705 719.338,177.08C717.861,180.455 716.584,183.888 715.506,187.38C714.428,190.871 713.444,193.367 712.553,194.867L712.272,195.543C712.272,195.814 712.529,196.175 713.045,196.625C715.154,195.453 716.936,194.187 718.389,192.828C722.139,189.312 724.365,187.133 725.069,186.289C725.584,185.68 726.076,185.117 726.545,184.602C727.108,185.07 727.623,185.562 728.092,186.078C726.779,187.906 724.576,190.391 721.483,193.531C718.389,196.672 715.6,198.898 713.115,200.211C711.194,201.195 709.389,201.687 707.701,201.687C706.623,201.687 705.815,201.458 705.276,200.999C704.736,200.539 704.467,199.942 704.467,199.207C704.467,198.564 704.701,197.352 705.17,195.57C706.342,192.477 707.162,190.437 707.631,189.453C708.1,188.469 708.733,186.945 709.529,184.883C709.998,183.617 710.959,181.414 712.412,178.273C711.522,179.164 710.42,180.477 709.108,182.211C705.311,186.992 700.951,191.516 696.029,195.781C694.904,196.766 692.186,198.336 687.873,200.492C686.279,201.102 684.404,201.5 682.248,201.687C680.42,201.641 679.201,201.453 678.592,201.125C677.467,200.516 676.553,199.555 675.85,198.242C675.334,197.258 675.076,195.734 675.076,193.672C675.076,190.672 675.733,187.344 677.045,183.687C679.295,177.453 681.569,172.836 683.865,169.836C687.803,164.633 691.705,160.508 695.572,157.461C699.44,154.414 702.99,152.187 706.225,150.781C710.49,148.906 714.194,147.969 717.334,147.969C718.365,147.969 719.35,148.062 720.287,148.25C721.225,148.437 722.115,148.719 722.959,149.094ZM689.49,195.219C690.615,194.937 691.6,194.539 692.444,194.023C692.959,193.742 694.787,192.453 697.928,190.156C703.647,184.391 706.881,181.086 707.631,180.242C709.272,178.414 711.123,175.906 713.186,172.719C713.748,171.922 714.944,169.719 716.772,166.109L718.6,161.258C719.256,158.398 719.584,156.758 719.584,156.336C719.584,155.023 719.045,153.781 717.967,152.609C717.264,151.906 716.115,151.555 714.522,151.555C712.694,151.555 711.123,151.859 709.811,152.469C706.858,153.875 704.162,155.656 701.725,157.812C698.444,160.766 695.279,164.551 692.233,169.168C689.186,173.785 687.029,177.641 685.764,180.734C684.029,185 683.162,188.187 683.162,190.297C683.162,192.031 683.514,193.32 684.217,194.164C684.92,195.008 685.811,195.43 686.889,195.43C687.264,195.43 688.131,195.359 689.49,195.219Z" style="fill-opacity:0;stroke:black;stroke-width:2px;"/>
                <path d="M753.545,151.273C753.451,150.898 753.322,150.641 753.158,150.5C752.994,150.359 752.795,150.289 752.561,150.289C750.123,150.289 746.326,154.133 741.17,161.82C740.654,161.867 740.279,161.891 740.045,161.891C739.764,161.891 739.295,161.867 738.639,161.82C739.623,159.852 741.229,157.367 743.455,154.367C745.682,151.367 748.049,148.871 750.557,146.879C753.065,144.887 755.444,143.398 757.694,142.414C758.444,142.086 759.123,141.922 759.733,141.922C759.967,141.922 760.319,141.945 760.787,141.992C761.631,142.833 762.053,143.698 762.053,144.586C762.053,145.149 761.994,145.711 761.877,146.275C761.76,146.837 761.514,147.704 761.139,148.876C759.733,152.908 758.701,155.745 758.045,157.386L754.037,167.795C753.1,170.186 752.186,172.718 751.295,175.391C751.67,174.922 751.998,174.477 752.279,174.055C756.639,167.68 761.338,161.574 766.377,155.738C771.416,149.902 775.576,146 778.858,144.031C781.201,142.578 783.428,141.852 785.537,141.852C787.131,141.852 788.373,142.286 789.264,143.153C790.154,144.021 790.6,145.136 790.6,146.497C790.6,147.341 790.506,148.162 790.319,148.96C789.99,150.741 789.264,153.225 788.139,156.412C787.014,159.599 784.061,166.511 779.279,177.151L772.248,193.391L771.967,194.305C771.967,194.586 772.131,195.008 772.459,195.57C775.084,195.008 779.022,190.836 784.272,183.055L787.154,183.125C785.701,185.75 783.311,189.125 779.983,193.25C777.404,196.391 774.639,198.828 771.686,200.562C770.045,201.547 768.287,202.039 766.412,202.039C765.287,202.039 764.444,201.805 763.881,201.336C763.319,200.867 763.037,200.352 763.037,199.789C763.037,197.305 766.623,188.258 766.623,188.258L776.819,165.969L780.756,156.617C781.647,154.555 782.186,153.125 782.373,152.328C782.561,151.531 782.654,150.734 782.654,149.937C782.654,149.328 782.49,148.848 782.162,148.496C781.834,148.145 781.412,147.969 780.897,147.969C780.147,147.969 779.279,148.273 778.295,148.883C774.826,150.945 771.006,154.484 766.834,159.5C760.834,166.719 756.85,171.898 754.881,175.039C749.959,182.82 745.67,190.766 742.014,198.875C741.451,200.187 740.772,201.148 739.975,201.758C738.99,201.898 738.24,201.969 737.725,201.969C737.115,201.969 736.178,201.852 734.912,201.617C734.725,201.242 734.631,200.937 734.631,200.703C734.631,200.328 734.865,199.484 735.334,198.172C736.365,195.125 738.897,188.703 742.928,178.906L744.545,175.109L753.545,151.273Z" style="fill-opacity:0;stroke:black;stroke-width:2px;"/>
                <path d="M815.561,148.883L811.483,148.883L809.514,148.812L804.944,148.953L804.029,148.953C804.123,147.922 804.522,146.727 805.225,145.367C811.975,145.18 815.983,145.016 817.248,144.875C818.186,142.625 818.983,140.82 819.639,139.461C821.045,136.414 822.498,132.805 823.998,128.633C824.467,127.273 824.983,126.031 825.545,124.906C826.576,124.766 827.772,124.695 829.131,124.695C830.256,124.695 831.334,124.812 832.365,125.047L832.506,126.172C832.506,127.062 830.397,132.219 826.178,141.641C825.709,142.719 825.311,143.82 824.983,144.945C826.342,145.18 827.139,145.297 827.373,145.297L828.85,145.297L831.24,145.367L837.99,145.227C837.99,146.773 837.709,148.039 837.147,149.023C835.272,149.211 832.811,149.305 829.764,149.305C828.264,149.305 827.303,149.328 826.881,149.375C824.49,149.609 823.108,149.844 822.733,150.078L811.061,177.359C809.842,180.031 807.686,185.117 804.592,192.617C804.592,192.898 804.733,193.227 805.014,193.602L805.928,193.742C807.194,193.742 808.764,192.945 810.639,191.352C814.811,187.836 818.748,183.734 822.451,179.047C823.248,179.469 823.951,179.961 824.561,180.523C819.826,186.195 816.498,189.934 814.576,191.738C812.654,193.543 810.217,195.418 807.264,197.363C804.311,199.309 802.529,200.398 801.92,200.633C800.842,201.055 799.74,201.266 798.615,201.266C797.444,201.266 796.576,201.02 796.014,200.527C795.451,200.035 795.17,199.32 795.17,198.383C795.17,197.023 796.319,193.859 798.615,188.891L801.639,182.352L812.256,157.391C813.615,154.156 814.717,151.32 815.561,148.883Z" style="fill-opacity:0;stroke:black;stroke-width:2px;"/>
                <path d="M842.631,174.687C841.084,178.94 840.311,183.239 840.311,187.584C840.311,190.762 841.061,193.309 842.561,195.225C843.545,196.533 844.881,197.187 846.569,197.187C847.6,197.187 848.514,196.978 849.311,196.558C851.045,195.671 852.533,194.621 853.776,193.408C855.018,192.195 856.319,190.609 857.678,188.65C859.037,186.69 860.139,184.497 860.983,182.07L861.967,182.07C862.529,182.07 863.162,182.117 863.865,182.211C862.459,187.443 858.99,192.581 853.459,197.626C849.99,200.755 846.404,202.32 842.701,202.32C840.217,202.32 838.108,201.195 836.373,198.945C834.076,195.992 832.928,191.914 832.928,186.711C832.928,184.461 833.268,181.766 833.947,178.625C834.627,175.484 835.412,172.859 836.303,170.75C837.709,167.469 839.279,164.375 841.014,161.469L846.428,153.594C849.944,149.844 851.912,147.781 852.334,147.406C853.975,146 855.627,144.934 857.291,144.207C858.955,143.48 860.678,143.117 862.459,143.117C864.756,143.117 866.772,144.08 868.506,146.007C870.24,147.933 871.108,150.352 871.108,153.265C871.108,155.849 870.44,158.397 869.104,160.911C867.768,163.424 866.326,165.268 864.779,166.442L858.944,170.248C858.287,170.577 856.529,171.176 853.67,172.045C850.811,172.914 847.131,173.795 842.631,174.687ZM843.826,171.102C845.326,171.148 847.67,170.562 850.858,169.344C852.592,168.687 854.889,167.398 857.748,165.477C858.873,164.727 860.162,163.449 861.615,161.645C863.069,159.84 864.17,157.965 864.92,156.02C865.67,154.074 866.045,152.07 866.045,150.008C866.045,148.648 865.647,147.523 864.85,146.633C864.053,145.742 863.162,145.297 862.178,145.297C860.912,145.297 859.412,146.023 857.678,147.477C854.772,150.008 851.725,154.25 848.537,160.203C846.147,164.75 844.576,168.383 843.826,171.102Z" style="fill-opacity:0;stroke:black;stroke-width:2px;"/>
                <path d="M838.694,362.773L838.764,360.312C845.842,359.469 849.779,358.859 850.576,358.484C850.998,358.297 851.326,358.016 851.561,357.641C852.076,356.937 852.709,354.758 853.459,351.102L858.522,323.539L865.834,287.68C866.678,282.664 867.24,279.734 867.522,278.891C867.944,277.625 868.154,276.664 868.154,276.008C868.154,275.275 867.733,274.669 866.889,274.188C866.045,273.708 863.326,273.354 858.733,273.125C856.764,273.078 855.147,272.891 853.881,272.562L853.74,271.648C853.74,271.273 853.904,270.711 854.233,269.961C854.983,269.992 856.553,270.039 858.944,270.102C862.084,270.195 864.006,270.242 864.709,270.242C865.694,270.242 866.678,270.219 867.662,270.172C870.053,270.063 871.412,270.008 871.74,270.008C875.865,270.008 880.389,270.039 885.311,270.102L896.069,270.031L899.373,270.242L906.897,270.172C910.975,270.172 914.865,270.816 918.569,272.105C922.272,273.395 925.565,275.129 928.447,277.309C931.33,279.488 934.037,282.453 936.569,286.203C938.256,288.687 939.557,291.617 940.471,294.992C941.385,298.367 941.842,301.437 941.842,304.203C941.842,309.594 940.611,315.383 938.151,321.57C935.69,327.758 932.151,333.523 927.533,338.867C922.916,344.211 917.397,348.875 910.975,352.859C906.334,355.719 900.463,358.051 893.361,359.855C886.26,361.66 879.733,362.562 873.779,362.562L860.772,362.422L854.162,362.844C853.084,362.891 849.85,362.914 844.459,362.914C841.787,362.914 839.865,362.867 838.694,362.773ZM878.631,273.758C878.537,274.602 878.151,276.512 877.471,279.488C876.791,282.465 876.287,285.055 875.959,287.258C875.772,288.758 874.928,293.305 873.428,300.898L866.959,333.945C866.537,335.867 865.881,338.609 864.99,342.172C863.631,347.281 862.951,351.148 862.951,353.773C862.951,355.789 863.666,357.277 865.096,358.238C866.526,359.199 870.428,359.68 876.803,359.68C877.319,359.68 879.475,359.375 883.272,358.766C888.522,357.875 893.326,356.445 897.686,354.477C902.045,352.508 906.111,349.906 909.885,346.672C913.658,343.437 917.01,339.57 919.94,335.07C922.869,330.57 924.99,326.422 926.303,322.625C928.74,315.781 929.959,310.062 929.959,305.469C929.959,299.891 928.611,294.723 925.916,289.965C923.221,285.207 920.115,281.621 916.6,279.207C913.084,276.793 908.197,275.176 901.94,274.355C895.682,273.535 890.233,273.125 885.592,273.125C882.545,273.125 880.225,273.336 878.631,273.758Z" style="fill-opacity:0;stroke:black;stroke-width:2px;"/>
                <path d="M992.186,322.062C992.186,332.937 988.893,342.594 982.307,351.031C975.721,359.469 968.889,363.687 961.811,363.687C958.014,363.687 954.944,362.27 952.6,359.434C950.256,356.598 949.084,352.156 949.084,346.109C949.084,342.031 949.998,337.332 951.826,332.012C953.654,326.691 956.022,322.273 958.928,318.758C959.584,317.961 960.334,317 961.178,315.875C963.662,312.641 966.615,309.922 970.037,307.719C973.459,305.516 976.951,304.414 980.514,304.414C983.795,304.414 986.561,305.785 988.811,308.527C991.061,311.27 992.186,315.781 992.186,322.062ZM955.623,354.055C955.623,356.211 956.127,357.805 957.135,358.836C958.143,359.867 959.772,360.383 962.022,360.383C964.225,360.383 966.451,359.305 968.701,357.148C972.733,353.211 976.764,346.437 980.795,336.828C984.826,327.219 986.842,319.648 986.842,314.117C986.842,312.148 986.35,310.59 985.365,309.441C984.381,308.293 983.256,307.719 981.99,307.719C979.225,307.719 976.342,309.336 973.342,312.57C968.233,318.008 963.826,325.508 960.123,335.07C957.123,342.852 955.623,349.18 955.623,354.055Z" style="fill-opacity:0;stroke:black;stroke-width:2px;"/>
                <path d="M1017.498,313.273C1017.404,312.898 1017.276,312.641 1017.111,312.5C1016.947,312.359 1016.748,312.289 1016.514,312.289C1014.076,312.289 1010.279,316.133 1005.123,323.82C1004.608,323.867 1004.233,323.891 1003.998,323.891C1003.717,323.891 1003.248,323.867 1002.592,323.82C1003.576,321.852 1005.182,319.367 1007.408,316.367C1009.635,313.367 1012.002,310.871 1014.51,308.879C1017.018,306.887 1019.397,305.398 1021.647,304.414C1022.397,304.086 1023.076,303.922 1023.686,303.922C1023.92,303.922 1024.272,303.945 1024.74,303.992C1025.584,304.833 1026.006,305.698 1026.006,306.586C1026.006,307.149 1025.947,307.711 1025.83,308.275C1025.713,308.837 1025.467,309.704 1025.092,310.876C1023.686,314.908 1022.654,317.745 1021.998,319.386L1017.99,329.795C1017.053,332.186 1016.139,334.718 1015.248,337.391C1015.623,336.922 1015.951,336.477 1016.233,336.055C1020.592,329.68 1025.291,323.574 1030.33,317.738C1035.369,311.902 1039.529,308 1042.811,306.031C1045.154,304.578 1047.381,303.852 1049.49,303.852C1051.084,303.852 1052.326,304.286 1053.217,305.153C1054.108,306.021 1054.553,307.136 1054.553,308.497C1054.553,309.341 1054.459,310.162 1054.272,310.96C1053.944,312.741 1053.217,315.225 1052.092,318.412C1050.967,321.599 1048.014,328.511 1043.233,339.151L1036.201,355.391L1035.92,356.305C1035.92,356.586 1036.084,357.008 1036.412,357.57C1039.037,357.008 1042.975,352.836 1048.225,345.055L1051.108,345.125C1049.654,347.75 1047.264,351.125 1043.936,355.25C1041.358,358.391 1038.592,360.828 1035.639,362.562C1033.998,363.547 1032.24,364.039 1030.365,364.039C1029.24,364.039 1028.397,363.805 1027.834,363.336C1027.272,362.867 1026.99,362.352 1026.99,361.789C1026.99,359.305 1028.186,355.461 1030.576,350.258L1040.772,327.969L1044.709,318.617C1045.6,316.555 1046.139,315.125 1046.326,314.328C1046.514,313.531 1046.608,312.734 1046.608,311.937C1046.608,311.328 1046.444,310.848 1046.115,310.496C1045.787,310.145 1045.365,309.969 1044.85,309.969C1044.1,309.969 1043.233,310.273 1042.248,310.883C1038.779,312.945 1034.959,316.484 1030.787,321.5C1024.787,328.719 1020.803,333.898 1018.834,337.039C1013.912,344.82 1009.623,352.766 1005.967,360.875C1005.404,362.187 1004.725,363.148 1003.928,363.758C1002.944,363.898 1002.194,363.969 1001.678,363.969C1001.069,363.969 1000.131,363.852 998.865,363.617C998.678,363.242 998.584,362.937 998.584,362.703C998.584,362.328 998.819,361.484 999.287,360.172C1000.319,357.125 1002.85,350.703 1006.881,340.906L1008.498,337.109L1017.498,313.273Z" style="fill-opacity:0;stroke:black;stroke-width:2px;"/>
                <path d="M1011.944,525.898C1011.194,525.617 1010.233,525.266 1009.061,524.844C1003.061,522.734 998.315,519.008 994.822,513.664C991.33,508.32 989.584,501.898 989.584,494.398C989.584,489.195 990.24,484.602 991.553,480.617C993.615,474.289 996.944,467.797 1001.537,461.141C1006.131,454.484 1010.819,449.258 1015.6,445.461C1021.975,440.492 1028.795,436.648 1036.061,433.93C1040.889,432.195 1045.998,431.328 1051.389,431.328C1056.545,431.328 1060.658,432.09 1063.729,433.613C1066.799,435.137 1069.553,437.516 1071.99,440.75C1074.428,443.984 1076.49,448.156 1078.178,453.266C1079.069,455.984 1079.514,459.758 1079.514,464.586C1079.514,471.523 1078.459,477.781 1076.35,483.359C1073.678,490.578 1069.061,498.312 1062.498,506.562C1057.389,512.984 1051.166,517.906 1043.83,521.328C1036.494,524.75 1028.561,526.461 1020.029,526.461L1017.006,526.461C1016.772,526.461 1016.186,526.508 1015.248,526.602C1014.592,527.352 1014.006,528.055 1013.49,528.711C1011.147,531.57 1008.592,534.383 1005.826,537.148L1012.084,539.247C1016.209,540.646 1019.467,541.881 1021.858,542.954C1025.654,544.585 1028.678,545.751 1030.928,546.451C1035.334,547.71 1039.506,548.689 1043.444,549.388C1047.381,550.088 1050.944,550.438 1054.131,550.438C1063.272,550.438 1070.725,547.625 1076.49,542L1077.967,543.483C1075.764,546.214 1073.444,548.451 1071.006,550.193C1067.303,552.829 1063.447,554.771 1059.44,556.019C1055.432,557.267 1052.115,557.891 1049.49,557.891L1047.311,557.82L1039.295,557.609C1034.186,556.906 1030.811,556.297 1029.17,555.781C1024.576,554.422 1019.971,552.676 1015.354,550.543C1010.736,548.41 1005.569,545.844 999.85,542.844C997.319,545.422 993.709,548.117 989.022,550.93C985.74,552.852 982.131,553.906 978.194,554.094L974.045,554.305C971.842,554.117 969.955,553.25 968.385,551.703C966.815,550.156 966.029,548.539 966.029,546.852C966.029,543.945 967.717,541.273 971.092,538.836C975.498,535.602 981.733,533.984 989.795,533.984C993.17,533.984 997.483,534.758 1002.733,536.305C1002.92,535.93 1003.541,535.297 1004.596,534.406C1005.651,533.516 1006.963,532.156 1008.533,530.328C1010.104,528.5 1011.24,527.023 1011.944,525.898ZM1044.428,436.109C1042.459,436.766 1040.045,437.984 1037.186,439.766C1035.639,440.75 1032.733,443.023 1028.467,446.586C1025.936,448.742 1024.201,450.43 1023.264,451.648C1020.873,454.227 1017.662,458.211 1013.631,463.602L1005.615,477.172C1003.694,480.453 1002.076,483.875 1000.764,487.438C999.451,491 998.514,494.094 997.951,496.719C997.576,498.688 997.389,500.797 997.389,503.047C997.389,506.797 997.834,509.656 998.725,511.625C1000.365,515.094 1002.744,517.824 1005.861,519.816C1008.979,521.809 1012.623,522.805 1016.795,522.805C1020.779,522.805 1025.045,521.867 1029.592,519.992C1034.139,518.117 1039.319,514.414 1045.131,508.883C1050.944,503.352 1055.889,497.211 1059.967,490.461C1065.451,481.32 1068.85,474.594 1070.162,470.281C1071.944,464.328 1072.834,459.617 1072.834,456.148C1072.834,452.07 1071.932,448.273 1070.127,444.758C1068.322,441.242 1065.99,438.582 1063.131,436.777C1060.272,434.973 1057.084,434.07 1053.569,434.07C1053.006,434.07 1051.506,434.305 1049.069,434.773C1047.287,435.102 1045.74,435.547 1044.428,436.109ZM982.553,539.047C980.256,539.047 977.889,539.469 975.451,540.312C973.014,541.156 971.326,542.188 970.389,543.406C969.451,544.625 968.983,545.797 968.983,546.922C968.983,548.188 969.615,549.324 970.881,550.332C972.147,551.34 974.186,551.844 976.998,551.844C979.811,551.844 982.647,551.117 985.506,549.664C989.678,547.602 992.654,545.703 994.436,543.969C994.951,543.5 995.326,543.195 995.561,543.055L996.475,542C996.287,541.859 995.865,541.719 995.209,541.578C993.85,541.25 992.631,540.898 991.553,540.523C988.553,539.539 985.553,539.047 982.553,539.047Z" style="fill-opacity:0;stroke:black;stroke-width:2px;"/>
                <path d="M1106.865,472.531C1105.319,473.188 1103.139,474.992 1100.326,477.945C1098.498,479.492 1096.787,481.109 1095.194,482.797C1094.115,484.016 1093.319,484.859 1092.803,485.328L1090.553,484.836C1091.303,483.43 1093.483,480.793 1097.092,476.926C1100.701,473.059 1104.381,470.047 1108.131,467.891C1109.959,466.812 1111.623,466.273 1113.123,466.273C1114.014,466.273 1114.787,466.602 1115.444,467.259C1116.1,467.915 1116.428,468.619 1116.428,469.369C1116.428,470.354 1116.029,471.691 1115.233,473.379C1115.092,473.661 1114.74,474.458 1114.178,475.77C1112.069,480.691 1107.99,489.057 1101.944,500.867C1096.694,510.992 1094.069,516.734 1094.069,518.094L1094.139,518.516C1095.358,518.328 1096.998,517.344 1099.061,515.562C1105.201,510.359 1109.842,506 1112.983,502.484C1113.404,502.062 1114.483,500.938 1116.217,499.109C1121.561,493.578 1125.99,488.258 1129.506,483.148C1131.615,480.102 1134.615,474.57 1138.506,466.555C1139.819,466.461 1140.92,466.414 1141.811,466.414C1142.889,466.414 1143.709,466.769 1144.272,467.48C1143.287,470.432 1141.436,475.259 1138.717,481.961L1125.639,514.578C1124.842,516.266 1124.326,517.812 1124.092,519.219L1124.584,519.289C1124.912,519.289 1125.686,518.75 1126.904,517.672C1129.623,515.234 1131.897,512.75 1133.725,510.219C1134.569,509.047 1135.295,508.133 1135.904,507.477L1138.154,507.828C1135.904,512.094 1132.108,516.734 1126.764,521.75C1123.811,524.469 1121.49,525.828 1119.803,525.828C1119.194,525.828 1118.397,525.688 1117.412,525.406C1116.569,524.516 1116.147,523.672 1116.147,522.875C1116.147,520.531 1117.108,517.109 1119.029,512.609L1128.944,489.477C1129.225,489.008 1129.412,488.539 1129.506,488.07C1128.662,489.008 1126.811,491.117 1123.951,494.398C1117.201,502.273 1111.401,508.461 1106.549,512.961C1101.697,517.461 1096.483,521.328 1090.904,524.562C1089.545,525.312 1088.209,525.688 1086.897,525.688C1086.24,525.688 1085.69,525.453 1085.244,524.984C1084.799,524.516 1084.576,523.859 1084.576,523.016C1084.576,522.266 1084.74,521.328 1085.069,520.203C1085.819,517.812 1087.154,514.766 1089.076,511.062L1101.1,487.367L1106.022,476.891C1106.912,475.484 1107.358,474.453 1107.358,473.797C1107.358,473.562 1107.194,473.141 1106.865,472.531Z" style="fill-opacity:0;stroke:black;stroke-width:2px;"/>
                <path d="M1181.256,437.094C1182.709,437.094 1184.033,437.711 1185.229,438.946C1186.424,440.181 1187.022,441.637 1187.022,443.314C1187.022,444.805 1186.436,446.074 1185.264,447.123C1184.092,448.171 1182.756,448.695 1181.256,448.695C1179.569,448.695 1178.186,448.16 1177.108,447.088C1176.029,446.016 1175.49,444.782 1175.49,443.383C1175.49,441.52 1176.088,440.006 1177.283,438.842C1178.479,437.676 1179.803,437.094 1181.256,437.094ZM1212.264,437.234C1215.779,437.234 1217.537,438.981 1217.537,442.475C1217.537,443.779 1217.045,445.071 1216.061,446.352C1215.076,447.633 1213.67,448.273 1211.842,448.273C1210.295,448.273 1208.994,447.808 1207.94,446.876C1206.885,445.944 1206.358,444.71 1206.358,443.174C1206.358,441.589 1206.897,440.204 1207.975,439.016C1209.053,437.828 1210.483,437.234 1212.264,437.234ZM1148.279,550.227C1149.17,549.852 1149.873,549.664 1150.389,549.664C1152.123,549.664 1153.764,551.492 1155.311,555.148C1155.498,555.289 1155.615,555.383 1155.662,555.43C1156.506,556.367 1157.561,556.836 1158.826,556.836C1160.748,556.836 1162.494,556.213 1164.065,554.968C1165.635,553.723 1167.803,550.634 1170.569,545.701L1171.201,544.715L1179.709,525.898L1188.92,503.258L1192.436,494.961C1194.779,489.617 1196.233,486.146 1196.795,484.547C1190.983,492.417 1186.74,497.725 1184.069,500.473L1179.076,506.479C1175.608,510.81 1171.354,515.094 1166.315,519.332C1161.276,523.569 1157.069,525.688 1153.694,525.688C1152.709,525.688 1151.713,525.301 1150.705,524.527C1149.697,523.754 1149.194,522.805 1149.194,521.68C1149.194,518.727 1153.553,509.117 1162.272,492.852C1168.506,481.18 1171.694,474.57 1171.834,473.023C1171.6,472.461 1171.272,472.18 1170.85,472.18C1169.772,472.18 1167.99,473.047 1165.506,474.781C1163.022,476.516 1160.865,478.391 1159.037,480.406C1158.24,481.297 1157.162,481.812 1155.803,481.953L1154.397,482.164C1158.569,476.914 1162.776,472.977 1167.018,470.352C1171.26,467.727 1174.436,466.414 1176.545,466.414C1178.748,466.414 1179.85,467.681 1179.85,470.214C1179.85,473.264 1174.459,485.029 1163.678,505.509L1160.022,512.609C1159.319,514.109 1158.733,515.281 1158.264,516.125C1157.608,517.156 1157.279,517.93 1157.279,518.445C1157.279,518.68 1157.444,519.102 1157.772,519.711C1159.319,519.711 1161.768,518.553 1165.119,516.236C1168.471,513.919 1172.514,509.951 1177.248,504.334L1183.014,497.594C1184.936,495.534 1186.951,493.076 1189.061,490.221L1194.053,483.761C1197.053,480.063 1199.467,475.757 1201.295,470.843C1202.139,468.562 1202.842,467.137 1203.404,466.567C1203.967,465.996 1204.811,465.711 1205.936,465.711C1207.858,465.711 1209.123,465.875 1209.733,466.203C1209.779,466.484 1209.803,466.694 1209.803,466.835C1209.803,468.381 1208.701,472.236 1206.498,478.401C1204.295,484.565 1201.108,492.241 1196.936,501.429L1190.748,517.953L1182.17,537.392C1179.358,543.824 1176.791,548.449 1174.471,551.266C1172.151,554.083 1169.467,556.243 1166.42,557.746C1163.373,559.249 1160.256,560 1157.069,560C1153.412,560 1150.67,559.344 1148.842,558.031C1147.014,556.719 1146.1,555.219 1146.1,553.531C1146.1,552.453 1146.826,551.352 1148.279,550.227Z" style="fill-opacity:0;stroke:black;stroke-width:2px;"/>
                <path d="M1257.756,484.062C1257.756,494.938 1254.463,504.594 1247.877,513.031C1241.291,521.469 1234.459,525.688 1227.381,525.688C1223.584,525.688 1220.514,524.27 1218.17,521.434C1215.826,518.598 1214.654,514.156 1214.654,508.109C1214.654,504.031 1215.569,499.332 1217.397,494.012C1219.225,488.691 1221.592,484.273 1224.498,480.758C1225.154,479.961 1225.904,479 1226.748,477.875C1229.233,474.641 1232.186,471.922 1235.608,469.719C1239.029,467.516 1242.522,466.414 1246.084,466.414C1249.365,466.414 1252.131,467.785 1254.381,470.527C1256.631,473.27 1257.756,477.781 1257.756,484.062ZM1221.194,516.055C1221.194,518.211 1221.697,519.805 1222.705,520.836C1223.713,521.867 1225.342,522.383 1227.592,522.383C1229.795,522.383 1232.022,521.305 1234.272,519.148C1238.303,515.211 1242.334,508.438 1246.365,498.828C1250.397,489.219 1252.412,481.648 1252.412,476.117C1252.412,474.148 1251.92,472.59 1250.936,471.441C1249.951,470.293 1248.826,469.719 1247.561,469.719C1244.795,469.719 1241.912,471.336 1238.912,474.57C1233.803,480.008 1229.397,487.508 1225.694,497.07C1222.694,504.852 1221.194,511.18 1221.194,516.055Z" style="fill-opacity:0;stroke:black;stroke-width:2px;"/>
                <path d="M1283.561,472.883L1279.483,472.883L1277.514,472.812L1272.944,472.953L1272.029,472.953C1272.123,471.922 1272.522,470.727 1273.225,469.367C1279.975,469.18 1283.983,469.016 1285.248,468.875C1286.186,466.625 1286.983,464.82 1287.639,463.461C1289.045,460.414 1290.498,456.805 1291.998,452.633C1292.467,451.273 1292.983,450.031 1293.545,448.906C1294.576,448.766 1295.772,448.695 1297.131,448.695C1298.256,448.695 1299.334,448.812 1300.365,449.047L1300.506,450.172C1300.506,451.062 1298.397,456.219 1294.178,465.641C1293.709,466.719 1293.311,467.82 1292.983,468.945C1294.342,469.18 1295.139,469.297 1295.373,469.297L1296.85,469.297L1299.24,469.367L1305.99,469.227C1305.99,470.773 1305.709,472.039 1305.147,473.023C1303.272,473.211 1300.811,473.305 1297.764,473.305C1296.264,473.305 1295.303,473.328 1294.881,473.375C1292.49,473.609 1291.108,473.844 1290.733,474.078L1279.061,501.359C1277.842,504.031 1275.686,509.117 1272.592,516.617C1272.592,516.898 1272.733,517.227 1273.014,517.602L1273.928,517.742C1275.194,517.742 1276.764,516.945 1278.639,515.352C1282.811,511.836 1286.748,507.734 1290.451,503.047C1291.248,503.469 1291.951,503.961 1292.561,504.523C1287.826,510.195 1284.498,513.934 1282.576,515.738C1280.654,517.543 1278.217,519.418 1275.264,521.363C1272.311,523.309 1270.529,524.398 1269.92,524.633C1268.842,525.055 1267.74,525.266 1266.615,525.266C1265.444,525.266 1264.576,525.02 1264.014,524.527C1263.451,524.035 1263.17,523.32 1263.17,522.383C1263.17,521.023 1264.319,517.859 1266.615,512.891L1269.639,506.352L1280.256,481.391C1281.615,478.156 1282.717,475.32 1283.561,472.883Z" style="fill-opacity:0;stroke:black;stroke-width:2px;"/>
                <path d="M1310.631,498.688C1309.084,502.94 1308.311,507.239 1308.311,511.584C1308.311,514.762 1309.061,517.309 1310.561,519.225C1311.545,520.533 1312.881,521.188 1314.569,521.188C1315.6,521.188 1316.514,520.978 1317.311,520.558C1319.045,519.671 1320.533,518.621 1321.776,517.408C1323.018,516.195 1324.319,514.609 1325.678,512.65C1327.037,510.69 1328.139,508.497 1328.983,506.07L1329.967,506.07C1330.529,506.07 1331.162,506.117 1331.865,506.211C1330.459,511.443 1326.99,516.581 1321.459,521.626C1317.99,524.755 1314.404,526.32 1310.701,526.32C1308.217,526.32 1306.108,525.195 1304.373,522.945C1302.076,519.992 1300.928,515.914 1300.928,510.711C1300.928,508.461 1301.268,505.766 1301.947,502.625C1302.627,499.484 1303.412,496.859 1304.303,494.75C1305.709,491.469 1307.279,488.375 1309.014,485.469L1314.428,477.594C1317.944,473.844 1319.912,471.781 1320.334,471.406C1321.975,470 1323.627,468.934 1325.291,468.207C1326.955,467.48 1328.678,467.117 1330.459,467.117C1332.756,467.117 1334.772,468.08 1336.506,470.007C1338.24,471.933 1339.108,474.352 1339.108,477.265C1339.108,479.849 1338.44,482.397 1337.104,484.911C1335.768,487.424 1334.326,489.268 1332.779,490.442L1326.944,494.248C1326.287,494.577 1324.529,495.176 1321.67,496.045C1318.811,496.914 1315.131,497.795 1310.631,498.688ZM1311.826,495.102C1313.326,495.148 1315.67,494.562 1318.858,493.344C1320.592,492.688 1322.889,491.398 1325.748,489.477C1326.873,488.727 1328.162,487.449 1329.615,485.645C1331.069,483.84 1332.17,481.965 1332.92,480.02C1333.67,478.074 1334.045,476.07 1334.045,474.008C1334.045,472.648 1333.647,471.523 1332.85,470.633C1332.053,469.742 1331.162,469.297 1330.178,469.297C1328.912,469.297 1327.412,470.023 1325.678,471.477C1322.772,474.008 1319.725,478.25 1316.537,484.203C1314.147,488.75 1312.576,492.383 1311.826,495.102Z" style="fill-opacity:0;stroke:black;stroke-width:2px;"/>
            </g>
        </g>
    </g>
</svg>
