<?xml version="1.0" encoding="UTF-8" standalone="no"?><!DOCTYPE svg PUBLIC "-//W3C//DTD SVG 1.1//EN" "http://www.w3.org/Graphics/SVG/1.1/DTD/svg11.dtd"><svg width="100%" height="100%" viewBox="0 0 4068 3960" version="1.1" xmlns="http://www.w3.org/2000/svg" xmlns:xlink="http://www.w3.org/1999/xlink" xml:space="preserve" xmlns:serif="http://www.serif.com/" style="fill-rule:evenodd;clip-rule:evenodd;stroke-linecap:round;stroke-linejoin:round;stroke-miterlimit:1.5;"><g><g><path d="M391.686,1606.249l0,561.163c-0.384,3.459 4.017,19.962 21.159,18.399c0,0 121.905,1.027 191.883,-49.561c0,0 65.7,-45.193 110.777,-133.507c0,0 51.517,-96.594 1.84,-229.065c0,0 -31.278,-115.641 -190.427,-176.628c0,0 -125.112,-36.526 -135.231,9.199Z" style="fill:none;stroke:#000;stroke-width:16.67px;"/><path d="M8.501,1555.31l0,27.923l32.026,0c0,0 51.273,9.449 51.966,66.514c0.693,57.065 1.393,473.339 1.393,473.339c0,0 3.878,59.278 -53.47,67.452l-32.083,0.087l0,24.971l612.33,-2.503c155.873,-5.873 243.73,-75.396 337.918,-172.003c145.241,-148.972 25.515,-289.97 28.932,-279.65c0,0 -131.243,-176.959 -473.952,-207.63l-505.06,1.5" style="fill:none;stroke:#000;stroke-width:16.67px;"/><path d="M648.753,3018.733l519.656,-887.799l81.932,93.86l-386.457,682.402l911.979,-1.242l78.011,61.82l1.472,49.309l-1206.593,1.65" style="fill:none;stroke:#000;stroke-width:16.67px;"/><path d="M3457.732,3018.733l-519.656,-887.799l-81.932,93.86l386.457,682.402l-911.979,-1.242l-115.417,112.778l1242.528,0" style="fill:none;stroke:#000;stroke-width:16.67px;"/><path d="M2058.75,3106.058l-189.065,-219.635c0,0 -29.898,-50.597 26.448,-64.396l79.345,0c0,0 24.984,-3.45 56.189,-43.697c0,0 23.523,-18.564 54.093,1.178c0,0 21.876,39.944 64.506,42.519l59.284,-0.835c0,0 91.074,6.44 3.68,111.312c-87.394,104.873 -154.479,173.553 -154.479,173.553" style="fill:none;stroke:#000;stroke-width:16.67px;"/><g><path d="M2065.862,2553.887c-8.095,5.152 -14.407,-0.684 -14.407,-0.684c-17.506,-14.127 -31.563,-14.16 -31.563,-14.16c0,0 -26.917,-5.976 -65.464,20.636c-22.558,15.573 -75.49,87.784 -92.668,105.447c-17.178,17.663 -56.948,28.43 -56.948,28.43c0,0 -35.359,8.425 -7.853,17.469c15.396,4.064 31.826,5.025 49.151,3.301c0,0 70.463,-3.768 114.172,-33.159c0,0 65.94,-46.913 98.469,-44.999" style="fill:none;stroke:#000;stroke-width:16.67px;"/><path d="M2066.045,2553.203c17.506,-14.127 31.563,-14.16 31.563,-14.16c0,0 26.917,-5.976 65.464,20.636c22.558,15.573 75.49,87.784 92.668,105.447c17.178,17.663 56.948,28.43 56.948,28.43c0,0 35.359,8.425 7.853,17.469c-15.396,4.064 -31.826,5.025 -49.151,3.301c0,0 -70.463,-3.768 -114.172,-33.159c0,0 -65.94,-46.913 -98.469,-44.999" style="fill:none;stroke:#000;stroke-width:16.67px;"/></g><path d="M1659.307,2344.4c0,0 -21.602,-89.416 0.535,-115.792c22.137,-26.376 61.961,-62.591 61.961,-62.591c0,0 -6.029,-47.854 27.13,-74.607c33.159,-26.753 50.869,-32.028 78.752,-33.536c0,0 11.681,35.42 37.681,22.985c26,-12.435 4.145,-63.68 4.145,-63.68l17.137,-3.416l3.297,-27.789l14.13,-8.007l9.42,-25.905l22.608,-4.239l21.666,-19.782l34.854,-4.71l23.079,26.847l-0.471,67.825l-10.362,4.71l0,29.202l-10.833,5.652l0.942,7.536l25.905,-0.942l3.768,-8.949l31.797,-0.471c0,0 -3.275,-16.413 2.3,-21.594c5.575,-5.181 19.234,-16.956 19.234,-16.956l24.021,-1.413l12.717,-32.97l10.362,-1.413l1.413,-16.956l29.202,-30.615l1.884,-15.543l31.557,-2.826l22.608,30.615l24.441,8.007l14.949,-0.942l5.356,-27.789l11.304,-8.949l42.391,-0.942l36.268,33.441l1.238,73.345l-4.121,30.615l-16.485,5.888l1.178,5.888l65.312,1.829l3.297,81.955l21.666,32.97l18.369,11.304c0,0 25.905,3.297 35.325,12.717c9.42,9.42 10.833,45.688 10.833,45.688l-6.123,34.854l-11.775,39.565l-1.413,36.267l32.97,0.942c0,0 939.352,-437.561 -23.811,-893.289c0,0 -420.303,-149.304 -759.912,7.764c0,0 91.749,161.47 -39.413,256.698c-131.162,95.228 -262.325,19.764 -262.325,19.764c0,0 -64.683,-28.748 -62.886,-57.496c1.797,-28.748 -115.98,102.415 -100.5,222.797c-4.385,17.541 -11.811,363.198 411.425,426.441" style="fill:none;stroke:#000;stroke-width:16.67px;"/><path d="M1578.86,1410.338l169.268,-41.213l308.322,-539.053l293.864,521.893l159.7,39.741l-453.564,-801.514l-477.59,820.146" style="fill:none;stroke:#000;stroke-width:16.67px;"/><path d="M3269.28,2369.257l-25.022,33.118l571.37,342.974l20.106,-38.917l-566.454,-337.174" style="fill:none;stroke:#000;stroke-width:16.67px;"/><path d="M324.13,2706.623l18.073,37.366l565.695,-352.256l-25.476,-35.634l-558.292,350.523" style="fill:none;stroke:#000;stroke-width:16.67px;"/><path d="M2752.381,1421.051l5.725,41.111l646.535,-161.518l-13.302,-41.735l-638.958,162.142" style="fill:none;stroke:#000;stroke-width:16.67px;"/><path d="M650.77,1239.094l-13.354,39.301l650.179,146.158l6.865,-43.262l-643.69,-142.196" style="fill:none;stroke:#000;stroke-width:16.67px;"/><path d="M2412.304,959.272l19.935,24.891l369.162,-346.347l-25.247,-22.486l-363.849,343.942" style="fill:none;stroke:#000;stroke-width:16.67px;"/><path d="M2605.287,1239.827l18.19,18.19l299.157,-222.913l-22.616,-16.771l-294.731,221.494" style="fill:none;stroke:#000;stroke-width:16.67px;"/><path d="M1339.877,636.743l-16.851,24.547l298.733,301.461l14.504,-29.374l-296.385,-296.633" style="fill:none;stroke:#000;stroke-width:16.67px;"/><path d="M2071.485,8.333l-37.808,7.702l-11.218,542.662l40.17,-14.233l8.856,-536.131" style="fill:none;stroke:#000;stroke-width:16.67px;"/><path d="M1189.531,960.324l-9.264,31.182l374.797,242.401l5.616,-35.741l-371.149,-237.842" style="fill:none;stroke:#000;stroke-width:16.67px;"/><path d="M3474.398,1561.215l440.712,548.354l-3.403,-479.809c-0.932,-49.686 -54.248,-54.371 -79.895,-52.42l0.943,-30.417l195.864,-0.049l0,30.417c-83.472,-0.097 -74.637,25.894 -74.637,50.146c0,58.646 -0.033,494.808 -0.033,494.808c0,0 -1.973,40.561 74.8,42.305l0,30.701l-366.05,1.207l-471.828,-588.606l-2.826,511.323c0,0 2.351,60.592 66.407,61.346l0.04,16.956l-182.078,-0.241l0,-17.69c0,0 70.298,-4.458 76.127,-57.416l2.944,-503.387c-9.225,-26.988 -39.371,-38.252 -79.071,-36.237l0,-28.695l401.985,7.405" style="fill:none;stroke:#000;stroke-width:16.67px;"/></g><path d="M621.1,3210.496l-426.31,0.613c-7.504,-2.501 -106.588,12.101 -98.757,148.442l-0.613,382.973c0,0 -3.68,108.571 99.983,107.344c103.664,-1.227 155.802,1.84 155.802,1.84c0,0 22.068,7.367 21.469,34.35c-1.227,55.206 25.149,63.18 25.149,63.18l337.368,1.84l-1.038,-60.682l-158.449,-0.097l0,-42.202l47.599,0c0,0 95.69,-1.472 96.671,-87.838c0.981,-86.366 1.963,-469.615 1.963,-469.615c0,0 -11.192,-78.901 -100.838,-80.148" style="fill:none;stroke:#000;stroke-width:16.67px;"/><path d="M371.725,3299.014c0,0 -15.389,-2.827 -14.761,10.364l0.942,475.17c0,0 0.282,11.934 15.398,12.248c28.889,0.6 85.1,-0.314 85.1,-0.314c0,0 20.728,1.884 20.414,-15.075l-0.306,-470.278c0,0 1.57,-10.601 -9.188,-11.817l-97.6,-0.298" style="fill:none;stroke:#000;stroke-width:16.67px;"/><path d="M853.841,3322.741c0,0 -16.465,6.174 -16.053,30.872l0.823,397.215c0,0 -5.351,94.261 55.157,95.085l60.508,0.823l167.118,2.881l38.281,-26.755l32.93,-1.235l0.823,24.697l244.503,0.412c0,0 16.465,2.058 16.876,-13.172l0.412,-15.23l-0.412,-478.304c0,0 -1.235,-16.876 -17.7,-16.876l-16.465,0l-228.038,-1.235l0.823,432.614c0,0 1.646,34.576 -15.642,34.165c-17.288,-0.412 -50.629,0 -50.629,0c0,0 -26.755,-1.235 -26.755,-25.521l-0.412,-406.682c0,0 2.161,-34.165 -47.645,-34.165l-198.505,0.412" style="fill:none;stroke:#000;stroke-width:16.67px;"/><path d="M1564.753,3210.496l256.994,0l0,53.273c0,0 0.501,17.534 -17.534,17.033l-225.433,2.505c0,0 -13.526,-1.002 -14.528,-13.526l0.501,-59.285" style="fill:none;stroke:#000;stroke-width:16.67px;"/><path d="M1595.703,3321.918c0,0 -31.326,0.4 -31.451,29.3l0,466.683c0,0 -4.406,31.856 33.057,31.716l201.765,0c0,0 22.336,2.536 22.674,-20.477l0,-476.851c0,0 -5.013,-30.771 -37.124,-30.371l-188.921,0" style="fill:none;stroke:#000;stroke-width:16.67px;"/><path d="M2198.259,3321.918l-203.624,-0.004c0,0 -48.287,-3.218 -47.831,29.581l-0.911,498.122c0,0 -1.367,35.308 -32.343,36.219l-20.955,0.911l1.169,63.035l225.563,-0.444c0,0 79.924,-2.664 80.368,-69.267l-1.436,-558.153" style="fill:none;stroke:#000;stroke-width:16.67px;"/><path d="M2467.395,3321.918c0,0 -138.921,0.116 -137.005,138.079l-0.958,278.8c0,0 5.748,107.792 139.879,110.902l371.734,0c0,0 83.353,-7.429 82.395,-106.111l-1.916,-322.872c0,0 -16.287,-97.957 -124.55,-98.798l-329.579,0" style="fill:none;stroke:#000;stroke-width:16.67px;"/><path d="M2572.656,3748.581c0,0 0,23.592 25.308,24.45l57.907,-0.429c0,0 23.592,-2.145 23.592,-25.308l-1.287,-359.454c0,0 -2.145,-24.021 -38.176,-22.734l-44.61,0.858c0,0 -23.163,-0.429 -22.734,27.023l0,355.593" style="fill:none;stroke:#000;stroke-width:16.67px;"/><path d="M3047.925,3224.325l0.642,97.502l-65.515,0.09l1.285,54.167l42.409,-0.044c0,0 23.106,3.081 23.106,46.116l0,387.312c0,0 0.642,46.246 47.531,47.531l289.681,1.285l-0.642,-102.127l-77.719,-1.927l-1.927,-336.57c0,0 -4.496,-42.262 17.985,-41.62l42.323,0l0.069,-54.167l-60.377,-0.047l-1.285,-98.144l-257.566,0.676" style="fill:none;stroke:#000;stroke-width:16.67px;"/><path d="M3534.198,3321.827c0,0 -86.847,8.582 -85.704,118.284l-1.143,287.967c0,0 -11.427,120.971 85.704,121.621l383.956,0c0,0 145.209,2.936 141.739,-128.478l0,-115.415l-242.299,-2.285l0,103.988c0,0 6.856,39.995 -30.854,41.138l-51.423,-1.143c0,0 -26.283,2.285 -28.568,-30.854l-2.285,-175.667l355.429,0l0,-80.303c0,0 -0.041,-136.015 -136.026,-138.762l-389.265,0" style="fill:none;stroke:#000;stroke-width:16.67px;"/><path d="M3737.824,3348.124c0,0 -34.682,-2.753 -33.856,34.818l0.826,79.273c0,0 -1.239,26.424 16.515,26.424c17.754,0 48.72,-0.413 48.72,-0.413c0,0 23.121,-1.652 23.121,-24.36c0,-22.708 -0.826,-77.208 -0.826,-77.208c0,0 1.652,-39.636 -19.818,-38.398l-34.682,-0.137" style="fill:none;stroke:#000;stroke-width:16.67px;"/></g></svg>