<?xml version="1.0" encoding="UTF-8" standalone="no"?><!DOCTYPE svg PUBLIC "-//W3C//DTD SVG 1.1//EN" "http://www.w3.org/Graphics/SVG/1.1/DTD/svg11.dtd"><svg width="100%" height="100%" viewBox="0 0 6996 6609" version="1.1" xmlns="http://www.w3.org/2000/svg" xmlns:xlink="http://www.w3.org/1999/xlink" xml:space="preserve" xmlns:serif="http://www.serif.com/" style="fill-rule:evenodd;clip-rule:evenodd;stroke-linejoin:round;stroke-miterlimit:2;"><path d="M4158.909,3923.415c34.509,-33.003 36.893,-31.807 56.6,-75.181c21.434,-47.175 20.038,-126.082 27.322,-145.154c12.777,-33.454 15.104,-32.888 15.741,-48.297c2.224,-53.746 -45.398,-56.102 -51.501,-56.404c-21.555,-1.067 -83.695,1.026 -90.028,-126.452c-3.359,-67.612 0.083,-78.479 -8.157,-84.884c-9.381,-7.291 -46.676,4.479 -97.822,-10.873c-14.545,-4.366 -18.838,-6.716 -19.453,-15.149c-1.46,-20.044 17.943,-15.432 35.994,-58.827c49.758,-119.619 -89.789,-217.781 -122.455,-193.106c-10.801,8.159 -21.9,43.116 -10.819,80.542c0.008,0.027 13.397,30.743 8.1,38.038c-8.695,11.975 -11.506,7.289 -25.291,1.749c-73.226,-29.428 -107.724,-80.559 -111.68,-85.58c-18.593,-23.593 -15.604,-38.233 -35.477,-27.902c-6.179,3.212 -79.013,190.493 -232.59,253.326c-6.477,2.65 -38.759,15.858 -83.908,24.735c-16.584,3.261 -24.604,9.389 -25.113,-7.622c-0.323,-10.802 5.313,-13.247 7.552,-15.319c63.117,-58.402 79.03,-174.964 62.553,-202.299c-7.724,-12.813 -34.276,-40.684 -55.89,-34.654c-28.168,7.859 -30.601,37.215 -61.59,46.033c-6.308,1.795 -31.573,3.229 -40.46,21.106c-3.11,6.256 -5.172,17.316 -19.107,39.66c-20.119,32.258 -40.232,29.687 -40.491,84.172c-0.416,87.449 2.194,115.953 -1.147,120.11c-7.035,8.752 -19.128,1.462 -20.535,0.614c-3.514,-2.118 -2.566,-3.219 -38.738,-33.617c-64.582,-54.274 -71.593,-60.946 -93.147,-46.079c-0.388,0.267 -34.335,29.05 -42.203,42.91c-15.881,27.975 -9.412,43.1 -12.707,49.391c-1.159,2.213 -4.491,2.287 -6.401,3.897c-1.782,1.502 -2.571,4.065 -4.534,5.321c-2.137,1.367 -28.929,0.823 -30.228,77.355c-0.729,42.961 3.571,43.169 1.84,46.461c-0.549,1.044 -15.588,4.102 -19.152,3.187c-5.49,-1.409 -30.515,-35.982 -48.673,-25.699c-5.308,3.006 -14.33,32.995 -15.23,35.988c-2.289,7.608 -46.91,105.877 6.703,243.846c5.844,15.04 23.213,48.051 23.723,48.906c8.18,13.713 12.805,12.159 12.332,26.272c-0.047,1.398 -0.411,12.245 -14.854,9.22c-4.195,-0.878 -3.261,-3.48 -50.193,-18.747c-48.295,-15.71 -181.095,-70.065 -208.109,-85.659c-40.322,-23.275 -51.901,-21.357 -170.172,-99.381c-83.318,-54.965 -180.696,-148.881 -212.902,-189.511c-114.592,-144.565 -156.285,-260.247 -163.774,-410.116c-1.255,-25.105 3.56,-122.793 35.189,-207.751c1.011,-2.715 26.77,-81.765 82.958,-160.509c4.066,-5.698 46.603,-65.31 53.363,-69.339c35.839,-21.357 22.487,57.544 171.335,128.57c9.918,4.732 58.195,27.769 132.868,34.845c48.888,4.633 111.223,-9.085 120.693,-11.169c146.971,-32.344 269.907,-161.162 263.262,-312.853c-0.366,-8.361 4.887,-69.979 -48.343,-154.77c-14.73,-23.464 -35.595,-35.541 -32.52,-53.319c1.758,-10.165 6.068,-6.672 62.067,-25.547c47.771,-16.102 49.014,-10.793 97.506,-25.201c5.084,-1.51 157.284,-32.439 220.168,-37.526c53.71,-4.344 206.877,-25.991 415.656,-11.893c8.826,0.596 8.549,3.185 110.028,10.963c49.112,3.764 55.765,5.695 194.514,30.921c59.785,10.869 240.412,58.633 367.836,117.371c70.545,32.519 92.877,40.114 215.661,116.858c0.81,0.506 70.039,49.001 97.599,72.313c86.187,72.901 197.547,181.073 259.957,350.26c3.711,10.06 27.392,89.461 31.384,134.976c9.252,105.476 -6.519,167.902 -10.091,182.044c-13.456,53.264 -31.493,155.489 -150.252,298.676c-219.44,264.58 -540.629,354.547 -653.578,401.034c-3.479,-0.632 -6.574,4.019 -10.053,3.387c-7.547,-1.372 -7.818,-5.822 -7.868,-6.645c-0.453,-7.433 7.184,-4.575 6.73,-12.024l0.002,0.001Zm1774.704,1046.996c1.364,2.16 15.505,24.555 16.129,27.566c3.091,14.927 -18.612,15.681 -20.691,15.754c-62.509,2.173 -62.482,-1.925 -781.837,-1.925l-1281.712,1.434c-3.943,0.004 -40.505,0.044 -49.277,0.939c-13.643,1.393 -16.188,6.692 -24.331,-4.252c-1.018,-1.369 -6.613,-8.889 5.062,-20.716c21.068,-21.343 22.62,-19.366 43.637,-41.037c134.583,-138.773 142.81,-147.527 156.956,-152.046c25.804,-8.243 151.025,-0.12 319.635,-4.704c68.331,-1.858 68.249,3.803 854.445,-1.78c33.706,-0.239 365.752,0.36 366.191,0.229c1.832,-0.545 15.366,-4.572 7.489,-22.694c-2.063,-4.746 -81.92,-140.361 -171.436,-303.765c-8.614,-15.724 -9.595,-15.019 -110.443,-195.013c-17.552,-31.326 -17.976,-30.765 -35.376,-61.872c-10.05,-17.967 -64.498,-115.304 -126.962,-223.828c-6.103,-10.604 -49.003,-85.137 -74.976,-133.297c-25.002,-46.36 -112.739,-192.723 -113.498,-206.712c-0.993,-18.281 33.824,-57.114 64.94,-121.649c32.043,-66.459 37.009,-88.938 38.814,-97.107c5.335,-24.149 16.524,-32.042 30.137,-11.221c3.105,4.749 2.048,5.246 34.467,61.985c7.143,12.501 72.485,126.859 88.781,156.557c3.79,6.906 28.762,52.416 48.939,85.449c23.842,40.735 321.921,563.572 349.874,612.601c29.231,51.272 345.168,605.431 365.047,641.104l-0.004,0Zm-1933.683,-547.074c46.938,18.568 47.096,18.403 109.486,25.359c1.714,0.191 19.757,2.203 21.166,4.093c1.602,2.149 -1.879,5.135 -1.894,7.815c-0.015,2.691 3.323,5.645 1.807,7.868c-1.892,2.775 -6.286,3.831 -130.829,15.138c-75.987,6.898 -201.84,-10.807 -295.007,-55.489c-9.827,-4.713 -88.342,-42.368 -118.251,-67.658c-24.318,-20.563 -25.178,-41.879 -48.846,-20.532c-9.548,8.611 -7.144,10.717 -17.225,18.617c-7.409,5.805 -81.523,57.122 -153.671,82.388c-42.382,14.842 -132.528,52.515 -293.98,38.17c-6.839,-0.608 -79.973,-7.106 -85.44,-8.055c-3.429,-0.596 -7.877,0.212 -10.158,-2.416c-1.857,-2.14 0.707,-5.638 0.709,-8.472c0.001,-2.882 -2.491,-6.36 -0.701,-8.619c10.354,-13.06 118.705,13.092 213.934,-91.587c83.7,-92.007 131.413,-175.98 235.691,-188.408c108.886,-12.977 99.636,56.384 134.814,47.011c4.076,-1.086 2.92,-3.765 18.728,-19.156c20.263,-19.727 25.271,-17.877 39.994,-23.593c2.136,-0.36 4.523,-1.229 8.103,-2.098c0.918,-0.387 1.808,-0.643 2.635,-0.586c9.739,-1.968 27.154,-3.306 64.248,2.458c118.31,18.384 200.911,196.036 280.103,235.917c1.95,0.982 1.973,0.807 24.584,11.837l0,-0.002Zm-2493.023,-1777.172c163.961,87.499 235.183,196.808 237.912,200.323c0.218,0.281 82.739,107.842 85.671,197.75c3.953,121.217 -74.036,246.733 -199.532,341.06c-189.609,142.515 -368.717,186.778 -427.235,206.484c-19.317,6.505 -124.837,30.273 -158.616,33.714c-75.737,7.715 -75.879,6.713 -951.599,5.8c-41.259,-0.043 -88.052,3.922 -92.839,-14.893c-4.901,-19.263 18.602,-29.547 21.346,-30.747c34.709,-15.187 36.787,-10.492 75.065,-35.142c101.208,-65.175 89.313,-125.895 89.303,-164.424c-0.178,-706.053 1.094,-706.409 -3.119,-721.499c-8.453,-30.274 -66.16,-94.523 -140.873,-127.927c-30.359,-13.573 -30.832,-12.686 -34.829,-16.771c-3.047,-3.114 -21.11,-33.744 24.855,-37.747c3.074,-0.268 671.49,-1.282 695.832,0.89c97.55,8.704 97.761,2.539 195.281,12.555c61.149,6.281 61.493,1.749 121.883,12.997c16.356,3.046 89.324,14.747 97.097,15.994c50.417,8.085 189.709,43.778 245.017,67.911c37.541,16.38 38.978,12.907 119.38,53.673l-0,-0.001Zm-785.435,-52.875c-5.942,73.005 -9.525,74.576 -13.254,170.494c-3.211,82.608 -20.88,307.129 4.182,683.668c1.742,26.165 5.904,47.679 7.194,60.378c3.307,32.547 0.478,42.627 33.198,44.236c77.277,3.799 181.915,-22.689 230.186,-47.388c54.6,-27.937 55.919,-25.711 103.871,-63.861c212.477,-169.044 180.056,-461.891 154.835,-543.21c-8.551,-27.569 -45.447,-183.765 -244.488,-281.218c-97.559,-47.767 -248.993,-74.167 -266.511,-57.909c-7.05,6.543 -8.931,32.888 -9.214,34.81l0.001,-0Zm521.486,2805.588c53.456,88.159 47.249,93.364 47.419,367.615c0.266,430.169 0.65,430.877 -10.2,464.656c-26.649,82.963 -102.016,177.519 -221.79,186.273c-7.961,0.582 -16.091,-0.148 -23.899,1.511c-18.555,3.942 -15.82,17.866 -15.433,19.839c2.604,13.258 9.817,6.465 234.096,6.545c3.947,0.001 44.263,0.016 49.142,4.35c10.544,9.367 8.222,10.897 8.497,24.936c2.288,116.671 1.475,118.999 -7.207,123.798c-12.254,6.773 -13.067,5.505 -172.469,5.628c-370.482,0.286 -370.368,1.34 -402.538,-0.134c-120.653,-5.527 -46.408,-165.466 -84.78,-180.313c-27.42,-10.61 -204.023,13.834 -283.178,-18.901c-97.82,-40.454 -167.194,-133.855 -170.043,-247.554c-1.395,-55.685 -0.268,-539.069 -0.159,-585.944c0.084,-35.951 -2.776,-148.548 108.602,-234.626c84.157,-65.04 188.539,-54.04 197.324,-54.044c561.881,-0.232 562.157,0.123 586.255,6.609c100.424,27.027 141.171,84.945 160.361,109.755l0,0.001Zm-572.125,819.263c0.454,26.092 -5.361,65.023 45.549,68.036c93.264,5.52 94.896,-16.485 95.816,-55.867c0.114,-4.889 0.125,-682.385 0.097,-683.512c-0.984,-38.884 -7.713,-61.7 -95.779,-55.805c-54.04,3.617 -45.769,37.736 -45.735,165.606l0.053,561.542l-0.001,0Zm5539.583,-3443.32c16.616,22.909 326.648,418.52 357.681,461.084c2.883,3.955 54.95,67.347 85.317,109.877c22.621,31.681 20.897,33.126 23.787,34.874c1.328,0.803 14.061,0.969 14.898,0.294c7.491,-6.048 1.352,-8.207 1.356,-92.532c0.033,-686.402 1.347,-686.588 -1.31,-694.349c-12.152,-35.497 -115.57,-81.191 -140.587,-88.533c-0.069,-0.02 -31.929,-4.694 -43.254,-18.689c-8.212,-10.149 -7.308,-34.428 18.683,-38.426c7.944,-1.222 8.009,-0.779 390.242,-0.84c16.078,-0.003 61.244,-3.347 72.202,11.552c20.612,28.026 -18.176,40.032 -21.732,41.133c-7.34,2.272 -82.117,19.082 -138.321,64.911c-32.191,26.249 -27.269,31.793 -27.256,100.746c0.113,563.703 -0.981,563.439 -0.869,732.397c0.048,71.785 -0.829,79.565 41.905,99.369c7.124,3.302 6.742,3.701 88.29,42.877c18.561,8.917 20.126,6.218 32.589,18.32c1.99,1.932 18.348,17.817 1.897,34.619c-8.856,9.045 -11.181,7.07 -305.039,7.444c-305.898,0.389 -306.023,-0.598 -329.741,-6.776c-165.283,-43.047 -224.912,-165.919 -306.763,-267.739c-6.121,-7.614 -4.427,-8.855 -73.321,-97.648c-12.609,-16.251 -131.749,-175.678 -177.914,-235.79c-53.557,-69.737 -51.972,-70.658 -105.323,-140.756c-10.449,-13.729 -102.958,-132.303 -140.235,-188.395c-12.943,-19.475 -28.149,-21.773 -28.223,1.603c-0.05,15.662 2.411,15.575 2.688,195.763c0.898,584.287 -4.312,586.202 5.635,601.278c15.822,23.982 84.178,66.448 151.576,84.795c21.155,5.759 26.041,2.115 32.983,22.851c0.867,2.591 1.41,23.423 -18.615,28.776c-7.336,1.961 -7.31,1.866 -404.427,2.145c-20.097,0.014 -59.682,4.736 -66.538,-17.824c-0.815,-2.681 -6.66,-21.914 15.09,-31.605c23.697,-10.558 87.358,-16.314 154.391,-74.185c24.075,-20.785 20.404,-25.392 20.502,-140.145c0.099,-115.907 -0.185,-744.623 -0.187,-744.679c-1.325,-35.23 -17.094,-36.205 -59.661,-54.532c-80.856,-34.813 -133.443,-36.81 -131.331,-67.176c1.41,-20.273 28.253,-22.593 31.345,-22.86c6.528,-0.564 516.117,-1.463 561.224,0.849c196.137,10.052 259.228,126.303 309.448,189.344c50.983,63.999 77.509,100.087 106.917,136.577l0.001,0.001Zm-1258.27,2783.902c56.758,65.597 76.684,96.808 76.707,219.986c0.075,412.578 0.173,412.657 -2.737,427.417c-13.268,67.283 -22.379,81.706 -50.151,121.607c-24.707,35.497 -86.685,80.945 -145.441,89.73c-29.404,4.396 -29.56,3.894 -501.173,4.037c-102.891,0.031 -184.683,11.611 -271.555,-91.017c-62.671,-74.038 -53.866,-147.251 -53.939,-319.853c-0.139,-326.596 -3.912,-330.1 30.09,-391.962c7.795,-14.181 54.821,-99.738 160.602,-122.975c17.462,-3.836 17.519,-5.142 415.559,-4.976c222.332,0.092 224.957,-3.361 283.026,26.843c32.149,16.722 31.702,17.286 59.014,41.163l-0.002,0Zm-508.687,622.636c0.043,0.238 -2.513,37.913 34.618,56.525c3.466,1.737 90.369,29.798 93.832,-56.427c0.238,-5.934 0.343,-494.387 0.107,-500.357c-0.252,-6.365 2.294,-59.496 -59.558,-61.645c-82.584,-2.869 -69.305,80.49 -69.294,110.365l0.057,219.784c0.017,172.345 -0.098,172.121 0.237,231.756l0.001,-0.001Zm-1916.051,-634.592l0.102,830.139c-0.004,32.228 2.952,42.818 -29.3,44.531c-38.208,2.029 -381.736,0.234 -414.929,0.061c-3.478,-0.018 -19.94,1.21 -26.566,-5.223c-8.007,-7.773 -8.725,-15.403 -9.058,-15.785c-14.105,-16.172 -17.747,-7.46 -36.024,3.992c-31.913,19.996 -46.192,16.867 -367.825,17.028c-11.159,0.006 -108.598,14.302 -168.263,-70.904c-35.934,-51.316 -30.228,-98.501 -30.259,-230.103c-0.012,-49.61 0.058,-597.919 0.064,-598.199c0.825,-37.046 14.768,-31.57 51.985,-31.581c32.193,-0.009 400.389,-0.113 402.411,0.234c22.877,3.926 23.685,16.201 23.925,31.421c0.672,42.598 -1.351,706.312 1.241,720.133c9.205,49.088 107.361,43.351 108.251,42.987c15.124,-6.187 15.472,-27.91 15.516,-30.659c0.226,-14.116 -0.48,-737.529 0.538,-744.286c3.506,-23.279 13.909,-19.875 180.533,-19.792c277.636,0.14 277.597,-0.077 279.768,0.602c14.306,4.475 16.805,15.867 17.229,17.803c0.645,2.939 0.049,2.781 0.66,37.6l0.001,0.001Zm3833.901,598.092c0.998,13.293 -5.492,80.722 79.927,75.508c74.488,-4.547 68.839,-55.838 68.947,-63.403c2.08,-146.097 0.793,-145.947 1.02,-158.636c0.67,-37.516 20.043,-31.262 113.104,-31.269c24.382,-0.002 303.703,-0.022 304.775,0.137c22.857,3.386 24.845,14.544 25.152,31.217c3.226,175.191 -6.369,203.254 -12.07,219.927c-22.911,67.006 -28.305,67.149 -61.04,110.126c-18.661,24.499 -76.88,67.642 -123.655,81.236c-48.582,14.119 -49.55,11.531 -499.409,11.799c-113.034,0.067 -191.864,10.462 -284.945,-76.73c-103.78,-97.214 -89.21,-218.641 -89.2,-273.089c0.059,-331.409 -0.583,-331.71 5.424,-354.629c58.417,-222.878 251.388,-225.644 271.134,-226.216c58.983,-1.707 471.611,-0.174 512.62,-0.022c171.046,0.635 276.882,143.553 280.898,275.674c4.226,139.049 -1.591,141.868 -12.58,145.937c-8.67,3.21 -9.045,2.662 -414.808,2.463c-142.738,-0.07 -155.577,-2.157 -160.923,8.779c-4.993,10.214 -4.513,45.589 -4.37,221.19l-0.001,0.001Zm-0.05,-427.224c1.274,7.844 -1.048,15.994 0.225,23.838c0.321,1.978 2.375,14.628 16.86,18.528c8.271,2.227 57.063,1.687 62.885,1.67c40.233,-0.117 33.833,-15.925 33.843,-56.253c0.025,-103.257 4.134,-116.156 -22.868,-131.739c-15.768,-9.1 -83.605,-17.022 -89.715,33.44c-2.242,18.515 1.642,23.508 -1.23,110.517l0,-0.001Zm-4245.267,-2182.98c41.884,87.22 71.373,91.402 48.721,129.915c-1.833,3.117 -261.519,462.69 -269.05,475.85c-46.512,81.276 -259.33,459.816 -281.826,499.83c-75.16,133.688 -76.338,133.641 -75.758,137.52c1.764,11.802 18.328,12.446 20.23,12.519c34.157,1.327 34.152,-1.01 427.283,0.757c150.675,0.677 718.741,-1.445 805.598,1.318c36.541,1.163 280.625,-1.444 292.021,1.897c15.83,4.641 15.714,6.065 107.112,97.07c8.378,8.342 70.584,70.28 103.689,105.311c1.216,1.287 4.634,1.434 4.265,3.165c-1.252,5.874 -3.771,12.076 -8.344,15.97c-2.119,1.805 -2.538,-1.625 -34.716,-2.356c-57.774,-1.313 -1561.121,-1.539 -1696.87,-1.559c-171.006,-0.026 -170.792,1.554 -341.785,1.441c-36.741,-0.024 -70.745,1.192 -74.27,-2.273c-10.613,-10.433 -5.745,-12.517 0.872,-25.859c1.184,-2.387 147.274,-254.468 200.274,-351.149c7.801,-14.23 9.686,-13.071 101.131,-175.834c17.715,-31.531 159.565,-279.52 173.461,-303.814c24.452,-42.748 23.857,-42.834 48.675,-85.571c11.858,-20.42 103.427,-178.1 146.287,-256.364c6.728,-12.286 101.696,-177.336 110.962,-194.736c15.381,-28.881 77.524,-135.424 84.36,-147.145c32.995,-56.569 38.466,-80.976 53.66,-64.352c10.077,11.025 4.123,18.205 19.47,53.955c16.249,37.854 15.767,37.786 34.548,74.492l0,0.002Zm1411.677,-2696.278c4.49,-0.039 3.377,3.445 7.893,3.406c9.424,-0.083 8.149,-3.783 8.879,-3.553c0.175,0.055 130.531,225.282 179.577,311.199c12.495,21.889 13.273,21.107 25.676,42.811c44.964,78.678 45.548,78.31 49.352,85.208c55.543,100.741 186.144,322.326 215.148,374.05c15.49,27.624 117.595,203.519 133.887,232.159c137.197,241.183 139.834,239.321 151.424,260.453c36.141,65.898 38.646,64.448 41.315,70.408c0.804,1.796 10.02,22.377 -11.524,21.724c-1.377,-0.042 -1.363,-0.19 -36.345,-10.545c-36.261,-10.734 -76.14,-16.841 -98.143,-22.763c-128.095,-34.475 -135.065,-23.581 -156.524,-51.009c-3.299,-4.217 -48.056,-82.116 -49.459,-84.859c-0.291,-0.569 -404.387,-700.489 -407.31,-705.299c-31.299,-51.512 -27.317,-59.863 -44.457,-58.713c-10.987,0.737 -8.408,5.49 -43.143,65.991c-17.669,30.776 -162.226,282.558 -221.964,384.064c-76.315,129.675 -74.669,130.394 -81.378,141.605c-39.472,65.954 -130.028,225.826 -134.065,232.036c-37.703,58.004 -28.247,76.848 -81.962,88.472c-49.099,10.625 -48.646,11.634 -98.303,20.657c-32.145,5.841 -181.874,38.742 -182.515,38.527c-3.006,-1.01 -3.051,-5.662 -5.29,-7.907c-1.624,-1.628 -5.586,-1.148 -5.996,-3.41c-1.521,-8.399 2.16,-7.165 7.221,-13.747c14.428,-18.767 13.825,-19.194 152.28,-253.709c17.8,-30.149 130.132,-220.418 223.491,-376.278c10.836,-18.09 124.407,-207.693 135.283,-226.224c19.5,-33.223 155.032,-264.131 244.945,-414.582c67.781,-113.418 75.908,-128.702 82.007,-140.173l0,0.001Zm2160.748,4561.897c0.001,16.976 -0.162,70.22 0.563,72.467c6.446,19.977 11.036,17.706 31.859,17.98c24.576,0.324 24.357,-0.351 48.749,0.047c25.07,0.409 28.855,12.17 29.201,31.466c1.64,91.459 1.062,92.151 -3.981,98.182c-9.264,11.079 -10.793,9.105 -25.136,9.445c-27.998,0.663 -70.93,-4.976 -77.788,11.817c-3.774,9.241 -3.589,9.644 -3.437,478.799c0.01,31.521 -0.218,81.178 0.991,84.237c0.723,1.829 5.182,13.112 18.936,15.682c8.464,1.581 96.637,-1.833 107.609,3.23c12.743,5.88 11.227,10.11 11.404,153.191c0.004,2.874 0.042,34.144 -0.534,35.918c-6.561,20.199 -11.356,17.881 -32.618,18.09c-1.506,0.015 -409.378,0.158 -415.139,0.125c-28.49,-0.163 -45.777,1.9 -86.406,-15.097c-101.879,-42.62 -86.518,-165.898 -86.509,-222.11c0.007,-42.956 0.086,-534.768 -0.039,-536.95c-1.644,-28.631 -21.584,-26.825 -34.497,-26.899c-25.192,-0.145 -55.817,2.609 -64.776,-5.464c-10.943,-9.861 -8.352,-28.003 -8.209,-77.664c0.011,-3.714 0.116,-40.045 3.911,-46.259c13.952,-22.847 96.472,7.343 102.869,-27.548c3.151,-17.184 -4.204,-118.811 5.604,-131.673c7.192,-9.43 9.924,-7.906 253.541,-7.919c126.592,-0.007 126.465,1.023 183.104,-0.721c48.778,-1.502 40.662,18.786 40.725,67.628l0.003,0Zm-1868.682,146.492c0.085,868.84 0.11,868.829 -1.831,879.138c-25.166,133.654 -191.756,161.472 -281.843,172.399c-16.864,2.045 -162.848,11.636 -219.899,10.255c-58.783,-1.423 -61.025,-3.208 -65.119,-6.47c-12.65,-10.077 -10.022,-13.165 -10.146,-139.753c-0.003,-2.752 -0.027,-27.473 5.264,-33.989c15.145,-18.654 87.52,8.704 93.208,-27.29c0.511,-3.233 0.274,-3.261 0.319,-329.388c0.078,-563.294 -0.48,-564.202 4.355,-571.5c7.794,-11.762 12.24,-9.341 216.262,-9.363c240.627,-0.026 240.737,0.085 242.807,0.856c13.112,4.882 15.548,16.081 15.957,17.959c0.632,2.904 0.049,2.747 0.667,37.147l-0.001,-0.001Zm-653.211,12.206c0.16,845.074 0.43,845.464 -2.452,851.733c-5.973,12.993 -31.425,10.69 -128.647,10.759c-25.39,0.018 -306.394,0.217 -317.377,0.146c-27.502,-0.177 -30.747,-5.103 -31.644,-32.589c-0.433,-13.281 0.044,-774.885 0.086,-842.266c0.002,-2.876 0.022,-34.897 0.291,-35.946c5.314,-20.733 10.094,-19.161 31.325,-19.94c43.437,-1.593 381.715,-0.108 414.907,0.037c40.869,0.179 33.537,21.692 33.511,68.065l0,0.001Zm565.88,-918.6c95.769,31.053 127.645,-12.965 145.876,51.733c36.829,130.7 -109.689,194.347 -169.77,258.117c-44.544,47.279 -127.173,192.903 -147.124,243.252c-3.699,9.336 -3.02,11.666 -13.128,12.366c-18.62,1.289 -13.244,-8.467 -34.454,-50.837c-13.651,-27.271 -86.252,-154.523 -116.731,-190.278c-65.955,-77.374 -171.272,-111.706 -186.843,-212.02c-3.298,-21.245 -0.979,-90.208 32.616,-97.402c46.145,-9.882 72.24,22.619 197.594,-57.045c22.109,-14.051 92.34,-63.474 181.789,-17.505c45.9,23.589 41.878,31.038 110.175,59.621l0,-0.002Zm2122.262,-630.819c2.523,1.516 593.959,342.749 596.575,344.435c19.06,12.291 153.349,85.028 158.723,95.44c8.401,16.275 -13.222,42.408 -17.602,50.317c-12.832,23.171 -11.573,23.955 -19.158,31.638c-15.916,16.121 -47.117,-8.166 -47.505,-8.387c-12.533,-7.116 -125.394,-71.191 -156.08,-89.966c-8.577,-5.248 -8.759,-4.659 -108.822,-62.908l-549.423,-317.221c-167.657,-96.814 -169.972,-96.509 -171.949,-105.798c-1.35,-6.341 -3.295,-15.482 33.772,-73.663c18.584,-29.17 59.763,10.834 110.941,37.911c9.109,4.82 127.42,73.212 132.414,76.375c18.607,11.786 19.261,10.104 38.115,21.828l-0.001,-0.001Zm-4297.693,-161.788c19.984,-10.689 43.716,-31.401 62.253,2.317c16.822,30.599 16.734,30.609 18.229,33.248c12.49,22.035 22.039,32.337 -16.858,54.239c-83.783,47.176 -82.705,48.904 -89.997,52.981c-200.902,112.328 -401.551,232.425 -706.195,406.167c-12.518,7.139 -126.606,72.205 -155.65,90.685c-44.895,28.566 -52.115,19.535 -64.095,-1.757c-9.932,-17.653 -28.196,-47.98 -29.044,-51.588c-2.627,-11.18 5.692,-20.411 6.916,-21.769c6.576,-7.298 401.512,-232.442 416.118,-241.95c14.742,-9.596 68.295,-38.468 85.218,-49.033c28.23,-17.623 248.258,-143.806 269.899,-156.217c16.284,-9.338 193.585,-111.019 203.204,-117.324l0.002,0.001Zm4250.758,-1884.879c44.718,-12.465 49.776,-12.545 61.323,-6.827c9.08,4.496 22.104,83.545 21.578,87.031c-2.35,15.575 -45.304,22.477 -48.049,23.255c-48.536,13.751 -49.263,10.061 -98.039,23.199c-102.448,27.596 -275.94,66.688 -316.126,77.478c-66.231,17.782 -71.977,16.615 -97.91,23.526c-54.875,14.625 -55.003,13.272 -109.322,26.748c-113.947,28.268 -114.092,27.127 -123.876,29.998c-54.121,15.883 -55.337,10.407 -109.149,26.854c-33.038,10.098 -162.792,38.542 -218.394,53.72c-33.261,9.079 -38.893,-0.863 -44.933,-29.24c-9.546,-44.843 -10.943,-44.5 -11.272,-48.467c-2.588,-31.223 46.481,-29.729 127.355,-52.082c45.528,-12.584 64.036,-14.596 97.937,-23.6c43.074,-11.441 43.204,-9.708 86.42,-20.707c224.561,-57.149 225.38,-53.781 244.675,-59.574c48.237,-14.483 48.888,-10.994 97.773,-23.635c100.203,-25.911 100.557,-24.32 109.197,-26.825c71.564,-20.749 72.321,-16.781 97.817,-23.756c81.238,-22.224 117.854,-28.691 232.996,-57.097l-0.001,0.001Zm-3567.15,207.609c37.515,10.014 37.6,8.537 74.996,17.947c31.179,7.846 25.947,17.746 19.89,49.322c-8.243,42.968 -10.395,63.463 -43.652,56.903c-49.743,-9.811 -442.1,-108.217 -598.39,-144.598c-49.172,-11.446 -48.505,-13.151 -97.872,-23.859c-19.26,-4.178 -175.304,-44.596 -207.253,-50.318c-27.501,-4.926 -57.294,-16.846 -97.686,-24.215c-39.514,-7.208 -60.752,-16.848 -97.696,-24.122c-43.777,-8.619 -31.179,-25.394 -22.748,-56.728c0.792,-2.942 7.45,-47.041 21.369,-51.101c18.268,-5.328 27.688,5.449 146.158,30.448c49.315,10.406 48.326,13.601 97.71,24.166c3.292,0.704 417.241,102.473 440.008,107.117c55.181,11.258 53.916,16.107 109.423,26.515c8.849,1.659 8.114,4.14 109.47,26.099c9.006,1.951 8.482,3.429 111.837,27.575c2.77,0.647 9.203,2.15 34.437,8.849l-0.001,0Zm2551.045,-1285.236c35.629,35.337 37.482,41.02 24.189,57.881c-5.244,6.652 -224.371,224.623 -243.944,244.092c-353.509,351.644 -352.164,356.308 -364.547,356.678c-12.514,0.374 -28.907,-19.873 -29.486,-20.45c-36.619,-36.571 -51.851,-43.378 -24.699,-70.977c3.208,-3.261 588.216,-589.608 592.268,-591.454c13.797,-6.288 20.681,-1.612 46.218,24.231l0.001,-0.001Zm-2294.487,158.243c32.412,32.041 31.737,32.616 402.825,402.858c34.166,34.089 14.693,42.096 -19.383,76.209c-22.493,22.517 -28.874,29.391 -51.665,7.001c-56.474,-55.48 -533.196,-533.788 -579.509,-580.256c-27.883,-27.975 -11.554,-34.802 24.14,-70.42c17.043,-17.007 25.145,-33.218 52.756,-6.275c57.347,55.959 157.254,157.129 170.836,170.883Zm668.207,4283.531c0.006,81.599 1.942,100.791 -7.828,109.932c-5.766,5.395 -7.161,4.929 -402.985,4.82c-26.525,-0.007 -59.823,4.58 -65.346,-15.607c-2.35,-8.591 0.803,-8.779 -1.9,-111.315c-0.488,-18.496 3.635,-31.105 30.853,-32.463c46.477,-2.318 381.674,-0.102 414.862,0.117c33.642,0.222 31.952,10.966 32.345,44.516l-0.001,0Zm414.259,-5285.62c0.025,59.534 0.308,742.066 -0.095,744.174c-5.325,27.831 -15.12,20.757 -43.493,20.307c-22.606,-0.359 -40.806,8.239 -41.096,-32.035c-0.697,-96.828 -0.098,-673.863 -0.037,-732.46c0.024,-22.658 -2.054,-39.748 28.482,-40.751c10.679,-0.351 47.631,-4.618 53.921,14.37c0.667,2.012 0.171,1.951 2.318,26.395Zm1333.977,1559.404c25.713,-14.635 33.934,-15.776 50.042,15.549c5.558,10.81 16.907,25.373 15.236,36.907c-1.103,7.611 -1.543,10.648 -78.94,54.866c-244.377,139.615 -243.6,140.924 -265.114,152.586c-64.55,34.991 -169.367,102.23 -183.809,101.185c-4.301,-0.311 -12.894,-0.933 -34.16,-41.701c-15.795,-30.279 12.598,-40.844 37.43,-54.951c130.983,-74.407 405.058,-234.503 459.315,-264.442l-0,0.001Zm-2306.967,225.375c74.415,42.648 82.046,47.313 71.841,69.358c-22.958,49.598 -39.409,46.219 -44.372,45.2c-3.355,-0.689 -332.032,-191.862 -354.628,-204.256c-11.144,-6.113 -10.463,-6.809 -137.521,-79.556c-25.573,-14.642 -35.983,-19.672 -15.276,-55.854c17.32,-30.263 22.644,-36.918 53.834,-20.802c5.286,2.731 405.952,234.553 426.121,245.91l0.001,0Zm1400.554,-1066.441c-35.826,86.492 -105.537,304.784 -121.157,313.586c-5.159,2.907 -58.272,8.635 -39.63,-41.144c71.289,-190.359 68.362,-191.265 108.244,-293.503c11.556,-29.624 17.227,-73.119 44.593,-71.318c33.932,2.234 28.902,30.514 28.282,33.997c-0.866,4.869 -1.797,4.558 -20.332,58.382Zm-921.055,-35.604c30.287,86.872 127.098,344.623 128.503,355.404c2.508,19.256 -41.034,43.156 -55.053,10.579c-7.309,-16.983 -4.548,-18.001 -79.761,-216.916c-10.385,-27.466 -8.545,-27.921 -17.958,-51.413c-3.07,-7.662 -33.628,-83.932 -34.844,-97.118c-1.531,-16.598 29.776,-34.175 45.224,-24.386c5.683,3.601 4.167,4.87 13.889,23.851l-0,-0.001Z" style="fill:#8a0320;fill-opacity:0;stroke:#fff;stroke-width:5px;"/></svg>