<?xml version="1.0" encoding="UTF-8" standalone="no"?>
<!DOCTYPE svg PUBLIC "-//W3C//DTD SVG 1.1//EN" "http://www.w3.org/Graphics/SVG/1.1/DTD/svg11.dtd">
<svg width="100%" height="100%" viewBox="0 0 6996 6609" version="1.1" xmlns="http://www.w3.org/2000/svg" xmlns:xlink="http://www.w3.org/1999/xlink" xml:space="preserve" xmlns:serif="http://www.serif.com/" style="fill-rule:evenodd;clip-rule:evenodd;stroke-linejoin:round;stroke-miterlimit:2;">
    <path d="M4158.909,3923.415C4193.418,3890.412 4195.802,3891.608 4215.509,3848.234C4236.943,3801.059 4235.547,3722.152 4242.831,3703.08C4255.608,3669.626 4257.935,3670.192 4258.572,3654.783C4260.796,3601.037 4213.174,3598.681 4207.071,3598.379C4185.516,3597.312 4123.376,3599.405 4117.043,3471.927C4113.684,3404.315 4117.126,3393.448 4108.886,3387.043C4099.505,3379.752 4062.21,3391.522 4011.064,3376.17C3996.519,3371.804 3992.226,3369.454 3991.611,3361.021C3990.151,3340.977 4009.554,3345.589 4027.605,3302.194C4077.363,3182.575 3937.816,3084.413 3905.15,3109.088C3894.349,3117.247 3883.25,3152.204 3894.331,3189.63C3894.339,3189.657 3907.728,3220.373 3902.431,3227.668C3893.736,3239.643 3890.925,3234.957 3877.14,3229.417C3803.914,3199.989 3769.416,3148.858 3765.46,3143.837C3746.867,3120.244 3749.856,3105.604 3729.983,3115.935C3723.804,3119.147 3650.97,3306.428 3497.393,3369.261C3490.916,3371.911 3458.634,3385.119 3413.485,3393.996C3396.901,3397.257 3388.881,3403.385 3388.372,3386.374C3388.049,3375.572 3393.685,3373.127 3395.924,3371.055C3459.041,3312.653 3474.954,3196.091 3458.477,3168.756C3450.753,3155.943 3424.201,3128.072 3402.587,3134.102C3374.419,3141.961 3371.986,3171.317 3340.997,3180.135C3334.689,3181.93 3309.424,3183.364 3300.537,3201.241C3297.427,3207.497 3295.365,3218.557 3281.43,3240.901C3261.311,3273.159 3241.198,3270.588 3240.939,3325.073C3240.523,3412.522 3243.133,3441.026 3239.792,3445.183C3232.757,3453.935 3220.664,3446.645 3219.257,3445.797C3215.743,3443.679 3216.691,3442.578 3180.519,3412.18C3115.937,3357.906 3108.926,3351.234 3087.372,3366.101C3086.984,3366.368 3053.037,3395.151 3045.169,3409.011C3029.288,3436.986 3035.757,3452.111 3032.462,3458.402C3031.303,3460.615 3027.971,3460.689 3026.061,3462.299C3024.279,3463.801 3023.49,3466.364 3021.527,3467.62C3019.39,3468.987 2992.598,3468.443 2991.299,3544.975C2990.57,3587.936 2994.87,3588.144 2993.139,3591.436C2992.59,3592.48 2977.551,3595.538 2973.987,3594.623C2968.497,3593.214 2943.472,3558.641 2925.314,3568.924C2920.006,3571.93 2910.984,3601.919 2910.084,3604.912C2907.795,3612.52 2863.174,3710.789 2916.787,3848.758C2922.631,3863.798 2940,3896.809 2940.51,3897.664C2948.69,3911.377 2953.315,3909.823 2952.842,3923.936C2952.795,3925.334 2952.431,3936.181 2937.988,3933.156C2933.793,3932.278 2934.727,3929.676 2887.795,3914.409C2839.5,3898.699 2706.7,3844.344 2679.686,3828.75C2639.364,3805.475 2627.785,3807.393 2509.514,3729.369C2426.196,3674.404 2328.818,3580.488 2296.612,3539.858C2182.02,3395.293 2140.327,3279.611 2132.838,3129.742C2131.583,3104.637 2136.398,3006.949 2168.027,2921.991C2169.038,2919.276 2194.797,2840.226 2250.985,2761.482C2255.051,2755.784 2297.588,2696.172 2304.348,2692.143C2340.187,2670.786 2326.835,2749.687 2475.683,2820.713C2485.601,2825.445 2533.878,2848.482 2608.551,2855.558C2657.439,2860.191 2719.774,2846.473 2729.244,2844.389C2876.215,2812.045 2999.151,2683.227 2992.506,2531.536C2992.14,2523.175 2997.393,2461.557 2944.163,2376.766C2929.433,2353.302 2908.568,2341.225 2911.643,2323.447C2913.401,2313.282 2917.711,2316.775 2973.71,2297.9C3021.481,2281.798 3022.724,2287.107 3071.216,2272.699C3076.3,2271.189 3228.5,2240.26 3291.384,2235.173C3345.094,2230.829 3498.261,2209.182 3707.04,2223.28C3715.866,2223.876 3715.589,2226.465 3817.068,2234.243C3866.18,2238.007 3872.833,2239.938 4011.582,2265.164C4071.367,2276.033 4251.994,2323.797 4379.418,2382.535C4449.963,2415.054 4472.295,2422.649 4595.079,2499.393C4595.889,2499.899 4665.118,2548.394 4692.678,2571.706C4778.865,2644.607 4890.225,2752.779 4952.635,2921.966C4956.346,2932.026 4980.027,3011.427 4984.019,3056.942C4993.271,3162.418 4977.5,3224.844 4973.928,3238.986C4960.472,3292.25 4942.435,3394.475 4823.676,3537.662C4604.236,3802.242 4283.047,3892.209 4170.098,3938.696C4166.619,3938.064 4163.524,3942.715 4160.045,3942.083C4152.498,3940.711 4152.227,3936.261 4152.177,3935.438C4151.724,3928.005 4159.361,3930.863 4158.907,3923.414L4158.909,3923.415ZM5933.613,4970.411C5934.977,4972.571 5949.118,4994.966 5949.742,4997.977C5952.833,5012.904 5931.13,5013.658 5929.051,5013.731C5866.542,5015.904 5866.569,5011.806 5147.214,5011.806L3865.502,5013.24C3861.559,5013.244 3824.997,5013.284 3816.225,5014.179C3802.582,5015.572 3800.037,5020.871 3791.894,5009.927C3790.876,5008.558 3785.281,5001.038 3796.956,4989.211C3818.024,4967.868 3819.576,4969.845 3840.593,4948.174C3975.176,4809.401 3983.403,4800.647 3997.549,4796.128C4023.353,4787.885 4148.574,4796.008 4317.184,4791.424C4385.515,4789.566 4385.433,4795.227 5171.629,4789.644C5205.335,4789.405 5537.381,4790.004 5537.82,4789.873C5539.652,4789.328 5553.186,4785.301 5545.309,4767.179C5543.246,4762.433 5463.389,4626.818 5373.873,4463.414C5365.259,4447.69 5364.278,4448.395 5263.43,4268.401C5245.878,4237.075 5245.454,4237.636 5228.054,4206.529C5218.004,4188.562 5163.556,4091.225 5101.092,3982.701C5094.989,3972.097 5052.089,3897.564 5026.116,3849.404C5001.114,3803.044 4913.377,3656.681 4912.618,3642.692C4911.625,3624.411 4946.442,3585.578 4977.558,3521.043C5009.601,3454.584 5014.567,3432.105 5016.372,3423.936C5021.707,3399.787 5032.896,3391.894 5046.509,3412.715C5049.614,3417.464 5048.557,3417.961 5080.976,3474.7C5088.119,3487.201 5153.461,3601.559 5169.757,3631.257C5173.547,3638.163 5198.519,3683.673 5218.696,3716.706C5242.538,3757.441 5540.617,4280.278 5568.57,4329.307C5597.801,4380.579 5913.738,4934.738 5933.617,4970.411L5933.613,4970.411ZM3999.93,4423.337C4046.868,4441.905 4047.026,4441.74 4109.416,4448.696C4111.13,4448.887 4129.173,4450.899 4130.582,4452.789C4132.184,4454.938 4128.703,4457.924 4128.688,4460.604C4128.673,4463.295 4132.011,4466.249 4130.495,4468.472C4128.603,4471.247 4124.209,4472.303 3999.666,4483.61C3923.679,4490.508 3797.826,4472.803 3704.659,4428.121C3694.832,4423.408 3616.317,4385.753 3586.408,4360.463C3562.09,4339.9 3561.23,4318.584 3537.562,4339.931C3528.014,4348.542 3530.418,4350.648 3520.337,4358.548C3512.928,4364.353 3438.814,4415.67 3366.666,4440.936C3324.284,4455.778 3234.138,4493.451 3072.686,4479.106C3065.847,4478.498 2992.713,4472 2987.246,4471.051C2983.817,4470.455 2979.369,4471.263 2977.088,4468.635C2975.231,4466.495 2977.795,4462.997 2977.797,4460.163C2977.798,4457.281 2975.306,4453.803 2977.096,4451.544C2987.45,4438.484 3095.801,4464.636 3191.03,4359.957C3274.73,4267.95 3322.443,4183.977 3426.721,4171.549C3535.607,4158.572 3526.357,4227.933 3561.535,4218.56C3565.611,4217.474 3564.455,4214.795 3580.263,4199.404C3600.526,4179.677 3605.534,4181.527 3620.257,4175.811C3622.393,4175.451 3624.78,4174.582 3628.36,4173.713C3629.278,4173.326 3630.168,4173.07 3630.995,4173.127C3640.734,4171.159 3658.149,4169.821 3695.243,4175.585C3813.553,4193.969 3896.154,4371.621 3975.346,4411.502C3977.296,4412.484 3977.319,4412.309 3999.93,4423.339L3999.93,4423.337ZM1506.907,2646.165C1670.868,2733.664 1742.09,2842.973 1744.819,2846.488C1745.037,2846.769 1827.558,2954.33 1830.49,3044.238C1834.443,3165.455 1756.454,3290.971 1630.958,3385.298C1441.349,3527.813 1262.241,3572.076 1203.723,3591.782C1184.406,3598.287 1078.886,3622.055 1045.107,3625.496C969.37,3633.211 969.228,3632.209 93.508,3631.296C52.249,3631.253 5.456,3635.218 0.669,3616.403C-4.232,3597.14 19.271,3586.856 22.015,3585.656C56.724,3570.469 58.802,3575.164 97.08,3550.514C198.288,3485.339 186.393,3424.619 186.383,3386.09C186.205,2680.037 187.477,2679.681 183.264,2664.591C174.811,2634.317 117.104,2570.068 42.391,2536.664C12.032,2523.091 11.559,2523.978 7.562,2519.893C4.515,2516.779 -13.548,2486.149 32.417,2482.146C35.491,2481.878 703.907,2480.864 728.249,2483.036C825.799,2491.74 826.01,2485.575 923.53,2495.591C984.679,2501.872 985.023,2497.34 1045.413,2508.588C1061.769,2511.634 1134.737,2523.335 1142.51,2524.582C1192.927,2532.667 1332.219,2568.36 1387.527,2592.493C1425.068,2608.873 1426.505,2605.4 1506.907,2646.166L1506.907,2646.165ZM721.472,2593.29C715.53,2666.295 711.947,2667.866 708.218,2763.784C705.007,2846.392 687.338,3070.913 712.4,3447.452C714.142,3473.617 718.304,3495.131 719.594,3507.83C722.901,3540.377 720.072,3550.457 752.792,3552.066C830.069,3555.865 934.707,3529.377 982.978,3504.678C1037.578,3476.741 1038.897,3478.967 1086.849,3440.817C1299.326,3271.773 1266.905,2978.926 1241.684,2897.607C1233.133,2870.038 1196.237,2713.842 997.196,2616.389C899.637,2568.622 748.203,2542.222 730.685,2558.48C723.635,2565.023 721.754,2591.368 721.471,2593.29L721.472,2593.29ZM1242.958,5398.878C1296.414,5487.037 1290.207,5492.242 1290.377,5766.493C1290.643,6196.662 1291.027,6197.37 1280.177,6231.149C1253.528,6314.112 1178.161,6408.668 1058.387,6417.422C1050.426,6418.004 1042.296,6417.274 1034.488,6418.933C1015.933,6422.875 1018.668,6436.799 1019.055,6438.772C1021.659,6452.03 1028.872,6445.237 1253.151,6445.317C1257.098,6445.318 1297.414,6445.333 1302.293,6449.667C1312.837,6459.034 1310.515,6460.564 1310.79,6474.603C1313.078,6591.274 1312.265,6593.602 1303.583,6598.401C1291.329,6605.174 1290.516,6603.906 1131.114,6604.029C760.632,6604.315 760.746,6605.369 728.576,6603.895C607.923,6598.368 682.168,6438.429 643.796,6423.582C616.376,6412.972 439.773,6437.416 360.618,6404.681C262.798,6364.227 193.424,6270.826 190.575,6157.127C189.18,6101.442 190.307,5618.058 190.416,5571.183C190.5,5535.232 187.64,5422.635 299.018,5336.557C383.175,5271.517 487.557,5282.517 496.342,5282.513C1058.223,5282.281 1058.499,5282.636 1082.597,5289.122C1183.021,5316.149 1223.768,5374.067 1242.958,5398.877L1242.958,5398.878ZM670.833,6218.141C671.287,6244.233 665.472,6283.164 716.382,6286.177C809.646,6291.697 811.278,6269.692 812.198,6230.31C812.312,6225.421 812.323,5547.925 812.295,5546.798C811.311,5507.914 804.582,5485.098 716.516,5490.993C662.476,5494.61 670.747,5528.729 670.781,5656.599L670.834,6218.141L670.833,6218.141ZM6210.416,2774.821C6227.032,2797.73 6537.064,3193.341 6568.097,3235.905C6570.98,3239.86 6623.047,3303.252 6653.414,3345.782C6676.035,3377.463 6674.311,3378.908 6677.201,3380.656C6678.529,3381.459 6691.262,3381.625 6692.099,3380.95C6699.59,3374.902 6693.451,3372.743 6693.455,3288.418C6693.488,2602.016 6694.802,2601.83 6692.145,2594.069C6679.993,2558.572 6576.575,2512.878 6551.558,2505.536C6551.489,2505.516 6519.629,2500.842 6508.304,2486.847C6500.092,2476.698 6500.996,2452.419 6526.987,2448.421C6534.931,2447.199 6534.996,2447.642 6917.229,2447.581C6933.307,2447.578 6978.473,2444.234 6989.431,2459.133C7010.043,2487.159 6971.255,2499.165 6967.699,2500.266C6960.359,2502.538 6885.582,2519.348 6829.378,2565.177C6797.187,2591.426 6802.109,2596.97 6802.122,2665.923C6802.235,3229.626 6801.141,3229.362 6801.253,3398.32C6801.301,3470.105 6800.424,3477.885 6843.158,3497.689C6850.282,3500.991 6849.9,3501.39 6931.448,3540.566C6950.009,3549.483 6951.574,3546.784 6964.037,3558.886C6966.027,3560.818 6982.385,3576.703 6965.934,3593.505C6957.078,3602.55 6954.753,3600.575 6660.895,3600.949C6354.997,3601.338 6354.872,3600.351 6331.154,3594.173C6165.871,3551.126 6106.242,3428.254 6024.391,3326.434C6018.27,3318.82 6019.964,3317.579 5951.07,3228.786C5938.461,3212.535 5819.321,3053.108 5773.156,2992.996C5719.599,2923.259 5721.184,2922.338 5667.833,2852.24C5657.384,2838.511 5564.875,2719.937 5527.598,2663.845C5514.655,2644.37 5499.449,2642.072 5499.375,2665.448C5499.325,2681.11 5501.786,2681.023 5502.063,2861.211C5502.961,3445.498 5497.751,3447.413 5507.698,3462.489C5523.52,3486.471 5591.876,3528.937 5659.274,3547.284C5680.429,3553.043 5685.315,3549.399 5692.257,3570.135C5693.124,3572.726 5693.667,3593.558 5673.642,3598.911C5666.306,3600.872 5666.332,3600.777 5269.215,3601.056C5249.118,3601.07 5209.533,3605.792 5202.677,3583.232C5201.862,3580.551 5196.017,3561.318 5217.767,3551.627C5241.464,3541.069 5305.125,3535.313 5372.158,3477.442C5396.233,3456.657 5392.562,3452.05 5392.66,3337.297C5392.759,3221.39 5392.475,2592.674 5392.473,2592.618C5391.148,2557.388 5375.379,2556.413 5332.812,2538.086C5251.956,2503.273 5199.369,2501.276 5201.481,2470.91C5202.891,2450.637 5229.734,2448.317 5232.826,2448.05C5239.354,2447.486 5748.943,2446.587 5794.05,2448.899C5990.187,2458.951 6053.278,2575.202 6103.498,2638.243C6154.481,2702.242 6181.007,2738.33 6210.415,2774.82L6210.416,2774.821ZM4952.146,5558.723C5008.904,5624.32 5028.83,5655.531 5028.853,5778.709C5028.928,6191.287 5029.026,6191.366 5026.116,6206.126C5012.848,6273.409 5003.737,6287.832 4975.965,6327.733C4951.258,6363.23 4889.28,6408.678 4830.524,6417.463C4801.12,6421.859 4800.964,6421.357 4329.351,6421.5C4226.46,6421.531 4144.668,6433.111 4057.796,6330.483C3995.125,6256.445 4003.93,6183.232 4003.857,6010.63C4003.718,5684.034 3999.945,5680.53 4033.947,5618.668C4041.742,5604.487 4088.768,5518.93 4194.549,5495.693C4212.011,5491.857 4212.068,5490.551 4610.108,5490.717C4832.44,5490.809 4835.065,5487.356 4893.134,5517.56C4925.283,5534.282 4924.836,5534.846 4952.148,5558.723L4952.146,5558.723ZM4443.459,6181.359C4443.502,6181.597 4440.946,6219.272 4478.077,6237.884C4481.543,6239.621 4568.446,6267.682 4571.909,6181.457C4572.147,6175.523 4572.252,5687.07 4572.016,5681.1C4571.764,5674.735 4574.31,5621.604 4512.458,5619.455C4429.874,5616.586 4443.153,5699.945 4443.164,5729.82L4443.221,5949.604C4443.238,6121.949 4443.123,6121.725 4443.458,6181.36L4443.459,6181.359ZM2527.408,5546.767L2527.51,6376.906C2527.506,6409.134 2530.462,6419.724 2498.21,6421.437C2460.002,6423.466 2116.474,6421.671 2083.281,6421.498C2079.803,6421.48 2063.341,6422.708 2056.715,6416.275C2048.708,6408.502 2047.99,6400.872 2047.657,6400.49C2033.552,6384.318 2029.91,6393.03 2011.633,6404.482C1979.72,6424.478 1965.441,6421.349 1643.808,6421.51C1632.649,6421.516 1535.21,6435.812 1475.545,6350.606C1439.611,6299.29 1445.317,6252.105 1445.286,6120.503C1445.274,6070.893 1445.344,5522.584 1445.35,5522.304C1446.175,5485.258 1460.118,5490.734 1497.335,5490.723C1529.528,5490.714 1897.724,5490.61 1899.746,5490.957C1922.623,5494.883 1923.431,5507.158 1923.671,5522.378C1924.343,5564.976 1922.32,6228.69 1924.912,6242.511C1934.117,6291.599 2032.273,6285.862 2033.163,6285.498C2048.287,6279.311 2048.635,6257.588 2048.679,6254.839C2048.905,6240.723 2048.199,5517.31 2049.217,5510.553C2052.723,5487.274 2063.126,5490.678 2229.75,5490.761C2507.386,5490.901 2507.347,5490.684 2509.518,5491.363C2523.824,5495.838 2526.323,5507.23 2526.747,5509.166C2527.392,5512.105 2526.796,5511.947 2527.407,5546.766L2527.408,5546.767ZM6361.309,6144.859C6362.307,6158.152 6355.817,6225.581 6441.236,6220.367C6515.724,6215.82 6510.075,6164.529 6510.183,6156.964C6512.263,6010.867 6510.976,6011.017 6511.203,5998.328C6511.873,5960.812 6531.246,5967.066 6624.307,5967.059C6648.689,5967.057 6928.01,5967.037 6929.082,5967.196C6951.939,5970.582 6953.927,5981.74 6954.234,5998.413C6957.46,6173.604 6947.865,6201.667 6942.164,6218.34C6919.253,6285.346 6913.859,6285.489 6881.124,6328.466C6862.463,6352.965 6804.244,6396.108 6757.469,6409.702C6708.887,6423.821 6707.919,6421.233 6258.06,6421.501C6145.026,6421.568 6066.196,6431.963 5973.115,6344.771C5869.335,6247.557 5883.905,6126.13 5883.915,6071.682C5883.974,5740.273 5883.332,5739.972 5889.339,5717.053C5947.756,5494.175 6140.727,5491.409 6160.473,5490.837C6219.456,5489.13 6632.084,5490.663 6673.093,5490.815C6844.139,5491.45 6949.975,5634.368 6953.991,5766.489C6958.217,5905.538 6952.4,5908.357 6941.411,5912.426C6932.741,5915.636 6932.366,5915.088 6526.603,5914.889C6383.865,5914.819 6371.026,5912.732 6365.68,5923.668C6360.687,5933.882 6361.167,5969.257 6361.31,6144.858L6361.309,6144.859ZM6361.259,5717.635C6362.533,5725.479 6360.211,5733.629 6361.484,5741.473C6361.805,5743.451 6363.859,5756.101 6378.344,5760.001C6386.615,5762.228 6435.407,5761.688 6441.229,5761.671C6481.462,5761.554 6475.062,5745.746 6475.072,5705.418C6475.097,5602.161 6479.206,5589.262 6452.204,5573.679C6436.436,5564.579 6368.599,5556.657 6362.489,5607.119C6360.247,5625.634 6364.131,5630.627 6361.259,5717.636L6361.259,5717.635ZM2115.992,3534.655C2157.876,3621.875 2187.365,3626.057 2164.713,3664.57C2162.88,3667.687 1903.194,4127.26 1895.663,4140.42C1849.151,4221.696 1636.333,4600.236 1613.837,4640.25C1538.677,4773.938 1537.499,4773.891 1538.079,4777.77C1539.843,4789.572 1556.407,4790.216 1558.309,4790.289C1592.466,4791.616 1592.461,4789.279 1985.592,4791.046C2136.267,4791.723 2704.333,4789.601 2791.19,4792.364C2827.731,4793.527 3071.815,4790.92 3083.211,4794.261C3099.041,4798.902 3098.925,4800.326 3190.323,4891.331C3198.701,4899.673 3260.907,4961.611 3294.012,4996.642C3295.228,4997.929 3298.646,4998.076 3298.277,4999.807C3297.025,5005.681 3294.506,5011.883 3289.933,5015.777C3287.814,5017.582 3287.395,5014.152 3255.217,5013.421C3197.443,5012.108 1694.096,5011.882 1558.347,5011.862C1387.341,5011.836 1387.555,5013.416 1216.562,5013.303C1179.821,5013.279 1145.817,5014.495 1142.292,5011.03C1131.679,5000.597 1136.547,4998.513 1143.164,4985.171C1144.348,4982.784 1290.438,4730.703 1343.438,4634.022C1351.239,4619.792 1353.124,4620.951 1444.569,4458.188C1462.284,4426.657 1604.134,4178.668 1618.03,4154.374C1642.482,4111.626 1641.887,4111.54 1666.705,4068.803C1678.563,4048.383 1770.132,3890.703 1812.992,3812.439C1819.72,3800.153 1914.688,3635.103 1923.954,3617.703C1939.335,3588.822 2001.478,3482.279 2008.314,3470.558C2041.309,3413.989 2046.78,3389.582 2061.974,3406.206C2072.051,3417.231 2066.097,3424.411 2081.444,3460.161C2097.693,3498.015 2097.211,3497.947 2115.992,3534.653L2115.992,3534.655ZM3527.669,838.377C3532.159,838.338 3531.046,841.822 3535.562,841.783C3544.986,841.7 3543.711,838 3544.441,838.23C3544.616,838.285 3674.972,1063.512 3724.018,1149.429C3736.513,1171.318 3737.291,1170.536 3749.694,1192.24C3794.658,1270.918 3795.242,1270.55 3799.046,1277.448C3854.589,1378.189 3985.19,1599.774 4014.194,1651.498C4029.684,1679.122 4131.789,1855.017 4148.081,1883.657C4285.278,2124.84 4287.915,2122.978 4299.505,2144.11C4335.646,2210.008 4338.151,2208.558 4340.82,2214.518C4341.624,2216.314 4350.84,2236.895 4329.296,2236.242C4327.919,2236.2 4327.933,2236.052 4292.951,2225.697C4256.69,2214.963 4216.811,2208.856 4194.808,2202.934C4066.713,2168.459 4059.743,2179.353 4038.284,2151.925C4034.985,2147.708 3990.228,2069.809 3988.825,2067.066C3988.534,2066.497 3584.438,1366.577 3581.515,1361.767C3550.216,1310.255 3554.198,1301.904 3537.058,1303.054C3526.071,1303.791 3528.65,1308.544 3493.915,1369.045C3476.246,1399.821 3331.689,1651.603 3271.951,1753.109C3195.636,1882.784 3197.282,1883.503 3190.573,1894.714C3151.101,1960.668 3060.545,2120.54 3056.508,2126.75C3018.805,2184.754 3028.261,2203.598 2974.546,2215.222C2925.447,2225.847 2925.9,2226.856 2876.243,2235.879C2844.098,2241.72 2694.369,2274.621 2693.728,2274.406C2690.722,2273.396 2690.677,2268.744 2688.438,2266.499C2686.814,2264.871 2682.852,2265.351 2682.442,2263.089C2680.921,2254.69 2684.602,2255.924 2689.663,2249.342C2704.091,2230.575 2703.488,2230.148 2841.943,1995.633C2859.743,1965.484 2972.075,1775.215 3065.434,1619.355C3076.27,1601.265 3189.841,1411.662 3200.717,1393.131C3220.217,1359.908 3355.749,1129 3445.662,978.549C3513.443,865.131 3521.57,849.847 3527.669,838.376L3527.669,838.377ZM5688.417,5400.274C5688.418,5417.25 5688.255,5470.494 5688.98,5472.741C5695.426,5492.718 5700.016,5490.447 5720.839,5490.721C5745.415,5491.045 5745.196,5490.37 5769.588,5490.768C5794.658,5491.177 5798.443,5502.938 5798.789,5522.234C5800.429,5613.693 5799.851,5614.385 5794.808,5620.416C5785.544,5631.495 5784.015,5629.521 5769.672,5629.861C5741.674,5630.524 5698.742,5624.885 5691.884,5641.678C5688.11,5650.919 5688.295,5651.322 5688.447,6120.477C5688.457,6151.998 5688.229,6201.655 5689.438,6204.714C5690.161,6206.543 5694.62,6217.826 5708.374,6220.396C5716.838,6221.977 5805.011,6218.563 5815.983,6223.626C5828.726,6229.506 5827.21,6233.736 5827.387,6376.817C5827.391,6379.691 5827.429,6410.961 5826.853,6412.735C5820.292,6432.934 5815.497,6430.616 5794.235,6430.825C5792.729,6430.84 5384.857,6430.983 5379.096,6430.95C5350.606,6430.787 5333.319,6432.85 5292.69,6415.853C5190.811,6373.233 5206.172,6249.955 5206.181,6193.743C5206.188,6150.787 5206.267,5658.975 5206.142,5656.793C5204.498,5628.162 5184.558,5629.968 5171.645,5629.894C5146.453,5629.749 5115.828,5632.503 5106.869,5624.43C5095.926,5614.569 5098.517,5596.427 5098.66,5546.766C5098.671,5543.052 5098.776,5506.721 5102.571,5500.507C5116.523,5477.66 5199.043,5507.85 5205.44,5472.959C5208.591,5455.775 5201.236,5354.148 5211.044,5341.286C5218.236,5331.856 5220.968,5333.38 5464.585,5333.367C5591.177,5333.36 5591.05,5334.39 5647.689,5332.646C5696.467,5331.144 5688.351,5351.432 5688.414,5400.274L5688.417,5400.274ZM3819.735,5546.766C3819.82,6415.606 3819.845,6415.595 3817.904,6425.904C3792.738,6559.558 3626.148,6587.376 3536.061,6598.303C3519.197,6600.348 3373.213,6609.939 3316.162,6608.558C3257.379,6607.135 3255.137,6605.35 3251.043,6602.088C3238.393,6592.011 3241.021,6588.923 3240.897,6462.335C3240.894,6459.583 3240.87,6434.862 3246.161,6428.346C3261.306,6409.692 3333.681,6437.05 3339.369,6401.056C3339.88,6397.823 3339.643,6397.795 3339.688,6071.668C3339.766,5508.374 3339.208,5507.466 3344.043,5500.168C3351.837,5488.406 3356.283,5490.827 3560.305,5490.805C3800.932,5490.779 3801.042,5490.89 3803.112,5491.661C3816.224,5496.543 3818.66,5507.742 3819.069,5509.62C3819.701,5512.524 3819.118,5512.367 3819.736,5546.767L3819.735,5546.766ZM3166.524,5558.972C3166.684,6404.046 3166.954,6404.436 3164.072,6410.705C3158.099,6423.698 3132.647,6421.395 3035.425,6421.464C3010.035,6421.482 2729.031,6421.681 2718.048,6421.61C2690.546,6421.433 2687.301,6416.507 2686.404,6389.021C2685.971,6375.74 2686.448,5614.136 2686.49,5546.755C2686.492,5543.879 2686.512,5511.858 2686.781,5510.809C2692.095,5490.076 2696.875,5491.648 2718.106,5490.869C2761.543,5489.276 3099.821,5490.761 3133.013,5490.906C3173.882,5491.085 3166.55,5512.598 3166.524,5558.971L3166.524,5558.972ZM3732.404,4640.372C3828.173,4671.425 3860.049,4627.407 3878.28,4692.105C3915.109,4822.805 3768.591,4886.452 3708.51,4950.222C3663.966,4997.501 3581.337,5143.125 3561.386,5193.474C3557.687,5202.81 3558.366,5205.14 3548.258,5205.84C3529.638,5207.129 3535.014,5197.373 3513.804,5155.003C3500.153,5127.732 3427.552,5000.48 3397.073,4964.725C3331.118,4887.351 3225.801,4853.019 3210.23,4752.705C3206.932,4731.46 3209.251,4662.497 3242.846,4655.303C3288.991,4645.421 3315.086,4677.922 3440.44,4598.258C3462.549,4584.207 3532.78,4534.784 3622.229,4580.753C3668.129,4604.342 3664.107,4611.791 3732.404,4640.374L3732.404,4640.372ZM5854.666,4009.553C5857.189,4011.069 6448.625,4352.302 6451.241,4353.988C6470.301,4366.279 6604.59,4439.016 6609.964,4449.428C6618.365,4465.703 6596.742,4491.836 6592.362,4499.745C6579.53,4522.916 6580.789,4523.7 6573.204,4531.383C6557.288,4547.504 6526.087,4523.217 6525.699,4522.996C6513.166,4515.88 6400.305,4451.805 6369.619,4433.03C6361.042,4427.782 6360.86,4428.371 6260.797,4370.122L5711.374,4052.901C5543.717,3956.087 5541.402,3956.392 5539.425,3947.103C5538.075,3940.762 5536.13,3931.621 5573.197,3873.44C5591.781,3844.27 5632.96,3884.274 5684.138,3911.351C5693.247,3916.171 5811.558,3984.563 5816.552,3987.726C5835.159,3999.512 5835.813,3997.83 5854.667,4009.554L5854.666,4009.553ZM1556.973,3847.765C1576.957,3837.076 1600.689,3816.364 1619.226,3850.082C1636.048,3880.681 1635.96,3880.691 1637.455,3883.33C1649.945,3905.365 1659.494,3915.667 1620.597,3937.569C1536.814,3984.745 1537.892,3986.473 1530.6,3990.55C1329.698,4102.878 1129.049,4222.975 824.405,4396.717C811.887,4403.856 697.799,4468.922 668.755,4487.402C623.86,4515.968 616.64,4506.937 604.66,4485.645C594.728,4467.992 576.464,4437.665 575.616,4434.057C572.989,4422.877 581.308,4413.646 582.532,4412.288C589.108,4404.99 984.044,4179.846 998.65,4170.338C1013.392,4160.742 1066.945,4131.87 1083.868,4121.305C1112.098,4103.682 1332.126,3977.499 1353.767,3965.088C1370.051,3955.75 1547.352,3854.069 1556.971,3847.764L1556.973,3847.765ZM5807.731,1962.886C5852.449,1950.421 5857.507,1950.341 5869.054,1956.059C5878.134,1960.555 5891.158,2039.604 5890.632,2043.09C5888.282,2058.665 5845.328,2065.567 5842.583,2066.345C5794.047,2080.096 5793.32,2076.406 5744.544,2089.544C5642.096,2117.14 5468.604,2156.232 5428.418,2167.022C5362.187,2184.804 5356.441,2183.637 5330.508,2190.548C5275.633,2205.173 5275.505,2203.82 5221.186,2217.296C5107.239,2245.564 5107.094,2244.423 5097.31,2247.294C5043.189,2263.177 5041.973,2257.701 4988.161,2274.148C4955.123,2284.246 4825.369,2312.69 4769.767,2327.868C4736.506,2336.947 4730.874,2327.005 4724.834,2298.628C4715.288,2253.785 4713.891,2254.128 4713.562,2250.161C4710.974,2218.938 4760.043,2220.432 4840.917,2198.079C4886.445,2185.495 4904.953,2183.483 4938.854,2174.479C4981.928,2163.038 4982.058,2164.771 5025.274,2153.772C5249.835,2096.623 5250.654,2099.991 5269.949,2094.198C5318.186,2079.715 5318.837,2083.204 5367.722,2070.563C5467.925,2044.652 5468.279,2046.243 5476.919,2043.738C5548.483,2022.989 5549.24,2026.957 5574.736,2019.982C5655.974,1997.758 5692.59,1991.291 5807.732,1962.885L5807.731,1962.886ZM2240.581,2170.495C2278.096,2180.509 2278.181,2179.032 2315.577,2188.442C2346.756,2196.288 2341.524,2206.188 2335.467,2237.764C2327.224,2280.732 2325.072,2301.227 2291.815,2294.667C2242.072,2284.856 1849.715,2186.45 1693.425,2150.069C1644.253,2138.623 1644.92,2136.918 1595.553,2126.21C1576.293,2122.032 1420.249,2081.614 1388.3,2075.892C1360.799,2070.966 1331.006,2059.046 1290.614,2051.677C1251.1,2044.469 1229.862,2034.829 1192.918,2027.555C1149.141,2018.936 1161.739,2002.161 1170.17,1970.827C1170.962,1967.885 1177.62,1923.786 1191.539,1919.726C1209.807,1914.398 1219.227,1925.175 1337.697,1950.174C1387.012,1960.58 1386.023,1963.775 1435.407,1974.34C1438.699,1975.044 1852.648,2076.813 1875.415,2081.457C1930.596,2092.715 1929.331,2097.564 1984.838,2107.972C1993.687,2109.631 1992.952,2112.112 2094.308,2134.071C2103.314,2136.022 2102.79,2137.5 2206.145,2161.646C2208.915,2162.293 2215.348,2163.796 2240.582,2170.495L2240.581,2170.495ZM4791.626,885.259C4827.255,920.596 4829.108,926.279 4815.815,943.14C4810.571,949.792 4591.444,1167.763 4571.871,1187.232C4218.362,1538.876 4219.707,1543.54 4207.324,1543.91C4194.81,1544.284 4178.417,1524.037 4177.838,1523.46C4141.219,1486.889 4125.987,1480.082 4153.139,1452.483C4156.347,1449.222 4741.355,862.875 4745.407,861.029C4759.204,854.741 4766.088,859.417 4791.625,885.26L4791.626,885.259ZM2497.139,1043.502C2529.551,1075.543 2528.876,1076.118 2899.964,1446.36C2934.13,1480.449 2914.657,1488.456 2880.581,1522.569C2858.088,1545.086 2851.707,1551.96 2828.916,1529.57C2772.442,1474.09 2295.72,995.782 2249.407,949.314C2221.524,921.339 2237.853,914.512 2273.547,878.894C2290.59,861.887 2298.692,845.676 2326.303,872.619C2383.65,928.578 2483.557,1029.748 2497.139,1043.502ZM3165.346,5327.033C3165.352,5408.632 3167.288,5427.824 3157.518,5436.965C3151.752,5442.36 3150.357,5441.894 2754.533,5441.785C2728.008,5441.778 2694.71,5446.365 2689.187,5426.178C2686.837,5417.587 2689.99,5417.399 2687.287,5314.863C2686.799,5296.367 2690.922,5283.758 2718.14,5282.4C2764.617,5280.082 3099.814,5282.298 3133.002,5282.517C3166.644,5282.739 3164.954,5293.483 3165.347,5327.033L3165.346,5327.033ZM3579.605,41.413C3579.63,100.947 3579.913,783.479 3579.51,785.587C3574.185,813.418 3564.39,806.344 3536.017,805.894C3513.411,805.535 3495.211,814.133 3494.921,773.859C3494.224,677.031 3494.823,99.996 3494.884,41.399C3494.908,18.741 3492.83,1.651 3523.366,0.648C3534.045,0.297 3570.997,-3.97 3577.287,15.018C3577.954,17.03 3577.458,16.969 3579.605,41.413ZM4913.582,1600.817C4939.295,1586.182 4947.516,1585.041 4963.624,1616.366C4969.182,1627.176 4980.531,1641.739 4978.86,1653.273C4977.757,1660.884 4977.317,1663.921 4899.92,1708.139C4655.543,1847.754 4656.32,1849.063 4634.806,1860.725C4570.256,1895.716 4465.439,1962.955 4450.997,1961.91C4446.696,1961.599 4438.103,1960.977 4416.837,1920.209C4401.042,1889.93 4429.435,1879.365 4454.267,1865.258C4585.25,1790.851 4859.325,1630.755 4913.582,1600.816L4913.582,1600.817ZM2606.615,1826.192C2681.03,1868.84 2688.661,1873.505 2678.456,1895.55C2655.498,1945.148 2639.047,1941.769 2634.084,1940.75C2630.729,1940.061 2302.052,1748.888 2279.456,1736.494C2268.312,1730.381 2268.993,1729.685 2141.935,1656.938C2116.362,1642.296 2105.952,1637.266 2126.659,1601.084C2143.979,1570.821 2149.303,1564.166 2180.493,1580.282C2185.779,1583.013 2586.445,1814.835 2606.614,1826.192L2606.615,1826.192ZM4007.169,759.751C3971.343,846.243 3901.632,1064.535 3886.012,1073.337C3880.853,1076.244 3827.74,1081.972 3846.382,1032.193C3917.671,841.834 3914.744,840.928 3954.626,738.69C3966.182,709.066 3971.853,665.571 3999.219,667.372C4033.151,669.606 4028.121,697.886 4027.501,701.369C4026.635,706.238 4025.704,705.927 4007.169,759.751ZM3086.114,724.147C3116.401,811.019 3213.212,1068.77 3214.617,1079.551C3217.125,1098.807 3173.583,1122.707 3159.564,1090.13C3152.255,1073.147 3155.016,1072.129 3079.803,873.214C3069.418,845.748 3071.258,845.293 3061.845,821.801C3058.775,814.139 3028.217,737.869 3027.001,724.683C3025.47,708.085 3056.777,690.508 3072.225,700.297C3077.908,703.898 3076.392,705.167 3086.114,724.148L3086.114,724.147Z" style="fill:rgb(61,7,0);fill-opacity:0.13;stroke:white;stroke-width:5px;"/>
</svg>
